<svg width="362" height="51" viewBox="0 0 362 51" fill="none" xmlns="http://www.w3.org/2000/svg">
<path d="M14.28 50.88H11.52C10.84 50.88 10.5 50.54 10.5 49.86V45H9.48C6.64 45 4.4 44.18 2.76 42.54C1.12 40.86 0.3 38.56 0.3 35.64V34.26C0.3 33.54 0.66 33.18 1.38 33.18H5.16C5.84 33.18 6.18 33.54 6.18 34.26V35.16C6.18 36.84 6.56 38.06 7.32 38.82C8.08 39.54 9.32 39.9 11.04 39.9H14.16C15.84 39.9 17.06 39.52 17.82 38.76C18.58 37.96 18.96 36.68 18.96 34.92V33C18.96 31.32 18.44 30.18 17.4 29.58C16.36 28.94 14.8 28.56 12.72 28.44C9.76 28.32 7.7 28.1 6.54 27.78C5.38 27.46 4.32 26.96 3.36 26.28C1.32 24.88 0.3 22.3 0.3 18.54V15.72C0.3 12.8 1.1 10.52 2.7 8.88C4.34 7.2 6.6 6.36 9.48 6.36H10.5V1.44C10.5 0.759999 10.84 0.419998 11.52 0.419998H14.28C14.96 0.419998 15.3 0.759999 15.3 1.44V6.36H15.6C18.32 6.36 20.46 7.2 22.02 8.88C23.62 10.56 24.42 12.84 24.42 15.72V17.04C24.42 17.76 24.08 18.12 23.4 18.12H19.62C18.9 18.12 18.54 17.76 18.54 17.04V16.26C18.54 14.58 18.16 13.38 17.4 12.66C16.68 11.9 15.46 11.52 13.74 11.52H10.98C9.22 11.52 7.98 11.92 7.26 12.72C6.54 13.48 6.18 14.8 6.18 16.68V18.72C6.18 20.24 6.68 21.3 7.68 21.9C8.72 22.5 10.3 22.86 12.42 22.98L15.48 23.1C18.28 23.26 20.54 24.06 22.26 25.5C23.98 26.9 24.84 29.32 24.84 32.76V35.64C24.84 38.56 24 40.86 22.32 42.54C20.68 44.18 18.44 45 15.6 45H15.3V49.86C15.3 50.54 14.96 50.88 14.28 50.88ZM51.0947 45H44.1347C41.1747 45 38.8747 44.18 37.2347 42.54C35.6347 40.9 34.8347 38.62 34.8347 35.7V15.72C34.8347 12.76 35.6347 10.48 37.2347 8.88C38.8747 7.24 41.1747 6.42 44.1347 6.42H51.0947C54.0147 6.42 56.2947 7.24 57.9347 8.88C59.5747 10.48 60.3947 12.76 60.3947 15.72V18.6C60.3947 19.32 60.0347 19.68 59.3147 19.68H55.5347C54.8547 19.68 54.5147 19.32 54.5147 18.6V15.96C54.5147 13 53.0747 11.52 50.1947 11.52H44.9747C42.0947 11.52 40.6547 13 40.6547 15.96V35.46C40.6547 38.42 42.0947 39.9 44.9747 39.9H50.1947C53.0747 39.9 54.5147 38.42 54.5147 35.46V32.82C54.5147 32.1 54.8547 31.74 55.5347 31.74H59.3147C60.0347 31.74 60.3947 32.1 60.3947 32.82V35.7C60.3947 38.62 59.5747 40.9 57.9347 42.54C56.2947 44.18 54.0147 45 51.0947 45ZM90.997 6.42H94.777C95.497 6.42 95.857 6.74 95.857 7.38V35.7C95.857 38.62 95.017 40.9 93.337 42.54C91.697 44.18 89.417 45 86.497 45H79.837C76.917 45 74.637 44.18 72.997 42.54C71.357 40.9 70.537 38.62 70.537 35.7V7.44C70.537 6.76 70.877 6.42 71.557 6.42H75.337C76.017 6.42 76.357 6.76 76.357 7.44V35.46C76.357 38.42 77.797 39.9 80.677 39.9H85.597C88.517 39.9 89.977 38.42 89.977 35.46V7.44C89.977 6.76 90.317 6.42 90.997 6.42ZM113.715 40.02H122.115C125.115 40.02 126.615 38.58 126.615 35.7V31.98C126.615 29.1 125.035 27.66 121.875 27.66H113.715C113.275 27.66 113.055 27.86 113.055 28.26V39.42C113.055 39.82 113.275 40.02 113.715 40.02ZM113.715 22.86H121.515C124.555 22.86 126.075 21.4 126.075 18.48V15.72C126.075 12.84 124.595 11.4 121.635 11.4H113.715C113.275 11.4 113.055 11.6 113.055 12V22.26C113.055 22.66 113.275 22.86 113.715 22.86ZM107.235 43.98V7.44C107.235 6.76 107.575 6.42 108.255 6.42H122.475C125.435 6.42 127.735 7.22 129.375 8.82C131.015 10.42 131.835 12.68 131.835 15.6V18.54C131.835 22.02 130.195 24.26 126.915 25.26C128.475 25.46 129.755 26.14 130.755 27.3C131.795 28.46 132.315 30.02 132.315 31.98V35.82C132.315 38.74 131.495 41 129.855 42.6C128.215 44.2 125.935 45 123.015 45H108.255C107.575 45 107.235 44.66 107.235 43.98ZM149.461 7.44V43.98C149.461 44.66 149.121 45 148.441 45H144.661C143.981 45 143.641 44.66 143.641 43.98V7.44C143.641 6.76 143.981 6.42 144.661 6.42H148.441C149.121 6.42 149.461 6.76 149.461 7.44ZM163.977 45H159.537C159.217 45 158.977 44.9 158.817 44.7C158.697 44.5 158.717 44.24 158.877 43.92L168.777 25.02L159.297 7.5C159.137 7.22 159.117 6.98 159.237 6.78C159.397 6.54 159.637 6.42 159.957 6.42H164.217C165.017 6.42 165.577 6.76 165.897 7.44L172.797 21.36H173.037L179.937 7.44C180.297 6.76 180.817 6.42 181.497 6.42H185.937C186.257 6.42 186.477 6.54 186.597 6.78C186.757 7.02 186.777 7.28 186.657 7.56L177.057 25.02L186.957 43.86C187.117 44.18 187.137 44.46 187.017 44.7C186.897 44.9 186.657 45 186.297 45H181.797C181.157 45 180.697 44.68 180.417 44.04L173.037 29.4H172.797L165.417 44.04C165.137 44.68 164.657 45 163.977 45Z" fill="url(#paint0_linear_28_626)"/>
<path d="M223.956 45H220.176C219.456 45 219.096 44.66 219.096 43.98V12.12C219.096 11.72 218.896 11.52 218.496 11.52H210.936C210.216 11.52 209.856 11.18 209.856 10.5V7.44C209.856 6.76 210.216 6.42 210.936 6.42H233.196C233.916 6.42 234.276 6.76 234.276 7.44V10.5C234.276 11.18 233.916 11.52 233.196 11.52H225.636C225.196 11.52 224.976 11.72 224.976 12.12V43.98C224.976 44.66 224.636 45 223.956 45ZM255.791 45H250.511C247.551 45 245.251 44.18 243.611 42.54C242.011 40.9 241.211 38.62 241.211 35.7V23.7C241.211 20.74 242.011 18.46 243.611 16.86C245.251 15.22 247.551 14.4 250.511 14.4H255.791C258.711 14.4 260.991 15.22 262.631 16.86C264.311 18.46 265.151 20.74 265.151 23.7V35.7C265.151 38.62 264.311 40.9 262.631 42.54C260.991 44.18 258.711 45 255.791 45ZM251.351 39.9H255.011C257.891 39.9 259.331 38.44 259.331 35.52V23.88C259.331 20.96 257.891 19.5 255.011 19.5H251.351C249.831 19.5 248.731 19.86 248.051 20.58C247.371 21.26 247.031 22.36 247.031 23.88V35.52C247.031 37.04 247.371 38.16 248.051 38.88C248.731 39.56 249.831 39.9 251.351 39.9ZM292.446 14.4H296.766C297.126 14.4 297.366 14.52 297.486 14.76C297.646 14.96 297.606 15.24 297.366 15.6L288.906 29.04V29.28L298.026 43.8C298.226 44.12 298.246 44.4 298.086 44.64C297.966 44.88 297.686 45 297.246 45H293.346C292.426 45 291.746 44.66 291.306 43.98L282.846 30.12C282.566 29.6 282.566 29.06 282.846 28.5L290.706 15.36C291.066 14.72 291.646 14.4 292.446 14.4ZM279.846 45H276.066C275.386 45 275.046 44.66 275.046 43.98V3.84C275.046 3.16 275.386 2.82 276.066 2.82H279.846C280.526 2.82 280.866 3.16 280.866 3.84V43.98C280.866 44.66 280.526 45 279.846 45ZM327.069 45H314.109C311.149 45 308.849 44.18 307.209 42.54C305.609 40.9 304.809 38.62 304.809 35.7V23.7C304.809 20.74 305.609 18.46 307.209 16.86C308.849 15.22 311.149 14.4 314.109 14.4H319.029C321.989 14.4 324.289 15.22 325.929 16.86C327.569 18.46 328.389 20.74 328.389 23.7V31.32C328.389 32.04 328.029 32.4 327.309 32.4H311.229C310.789 32.4 310.569 32.6 310.569 33V35.58C310.569 38.5 312.029 39.96 314.949 39.96H327.069C327.789 39.96 328.149 40.32 328.149 41.04V44.04C328.149 44.68 327.789 45 327.069 45ZM311.229 28.32H321.969C322.369 28.32 322.569 28.12 322.569 27.72V23.88C322.569 22.36 322.229 21.26 321.549 20.58C320.869 19.86 319.769 19.5 318.249 19.5H314.949C313.429 19.5 312.329 19.86 311.649 20.58C310.969 21.26 310.629 22.36 310.629 23.88V27.72C310.629 28.12 310.829 28.32 311.229 28.32ZM342.799 45H339.019C338.339 45 337.999 44.66 337.999 43.98V15.42C337.999 14.74 338.339 14.4 339.019 14.4H342.799C343.479 14.4 343.819 14.74 343.819 15.42V17.58H344.059C345.019 15.46 347.039 14.4 350.119 14.4H352.759C355.679 14.4 357.919 15.2 359.479 16.8C361.039 18.4 361.819 20.7 361.819 23.7V43.98C361.819 44.66 361.459 45 360.739 45H356.959C356.279 45 355.939 44.66 355.939 43.98V23.94C355.939 20.98 354.479 19.5 351.559 19.5H348.739C345.459 19.5 343.819 21.2 343.819 24.6V43.98C343.819 44.66 343.479 45 342.799 45Z" fill="white"/>
<defs>
<linearGradient id="paint0_linear_28_626" x1="366" y1="11.4583" x2="92.3802" y2="71.138" gradientUnits="userSpaceOnUse">
<stop stop-color="#6FEEFF"/>
<stop offset="0.494792" stop-color="#4BB3ED"/>
<stop offset="1" stop-color="#00FF94"/>
</linearGradient>
</defs>
</svg>
