<svg width="67" height="67" viewBox="0 0 67 67" fill="none" xmlns="http://www.w3.org/2000/svg">
<path d="M6.94394 64.1888L1.71893 56.9377C1.25152 56.2891 1 55.5098 1 54.7103V4.81008C1 2.70583 2.70583 1 4.81008 1H54.7663C55.6644 1 56.5336 1.31723 57.2205 1.89571L64.4155 7.95464C65.2752 8.67857 65.7714 9.74513 65.7714 10.869V61.9613C65.7714 64.0656 64.0656 65.7714 61.9613 65.7714H10.0351C8.81021 65.7714 7.66003 65.1825 6.94394 64.1888Z" fill="black" stroke="url(#paint0_linear_27_164)" stroke-width="0.762016"/>
<path d="M48.6615 19.8081C48.1199 19.3538 47.2693 19.2888 46.3897 19.6381H46.3883C45.4632 20.0053 20.2031 30.724 19.1748 31.162C18.9878 31.2262 17.3543 31.8292 17.5226 33.1723C17.6728 34.3831 18.9856 34.8847 19.1459 34.9425L25.5678 37.1178C25.9939 38.5209 27.5645 43.6974 27.9119 44.8033C28.1285 45.4927 28.4816 46.3985 29.1005 46.585C29.6435 46.7921 30.1837 46.6028 30.5332 46.3314L34.4594 42.7287L40.7975 47.6187L40.9485 47.708C41.3789 47.8966 41.7912 47.9909 42.1848 47.9909C42.4888 47.9909 42.7805 47.9345 43.0593 47.8216C44.0089 47.4358 44.3887 46.5407 44.4284 46.4392L49.1627 22.0949C49.4516 20.7947 49.05 20.1332 48.6615 19.8081ZM31.2315 37.988L29.0651 43.7031L26.8987 36.5592L43.5077 24.4145L31.2315 37.988Z" fill="url(#paint1_linear_27_164)"/>
<defs>
<linearGradient id="paint0_linear_27_164" x1="65.7714" y1="19.8916" x2="15.5614" y2="22.1769" gradientUnits="userSpaceOnUse">
<stop stop-color="#6FEEFF"/>
<stop offset="0.494792" stop-color="#4BB3ED"/>
<stop offset="1" stop-color="#00FF94"/>
</linearGradient>
<linearGradient id="paint1_linear_27_164" x1="49.2611" y1="27.7498" x2="24.6603" y2="28.9939" gradientUnits="userSpaceOnUse">
<stop stop-color="#6FEEFF"/>
<stop offset="0.494792" stop-color="#4BB3ED"/>
<stop offset="1" stop-color="#00FF94"/>
</linearGradient>
</defs>
</svg>
