<svg width="340" height="53" viewBox="0 0 340 53" fill="none" xmlns="http://www.w3.org/2000/svg">
<path d="M16.2666 43H9.30656C6.34656 43 4.04656 42.18 2.40656 40.54C0.806563 38.9 0.00656256 36.62 0.00656256 33.7V13.72C0.00656256 10.76 0.806563 8.48 2.40656 6.88C4.04656 5.24 6.34656 4.42 9.30656 4.42H16.2666C19.1866 4.42 21.4666 5.24 23.1066 6.88C24.7466 8.48 25.5666 10.76 25.5666 13.72V16.6C25.5666 17.32 25.2066 17.68 24.4866 17.68H20.7066C20.0266 17.68 19.6866 17.32 19.6866 16.6V13.96C19.6866 11 18.2466 9.52 15.3666 9.52H10.1466C7.26656 9.52 5.82656 11 5.82656 13.96V33.46C5.82656 36.42 7.26656 37.9 10.1466 37.9H15.3666C18.2466 37.9 19.6866 36.42 19.6866 33.46V30.82C19.6866 30.1 20.0266 29.74 20.7066 29.74H24.4866C25.2066 29.74 25.5666 30.1 25.5666 30.82V33.7C25.5666 36.62 24.7466 38.9 23.1066 40.54C21.4666 42.18 19.1866 43 16.2666 43ZM40.2089 43H36.4289C35.7489 43 35.4089 42.66 35.4089 41.98V13.42C35.4089 12.74 35.7489 12.4 36.4289 12.4H40.2089C40.8889 12.4 41.2289 12.74 41.2289 13.42V15.7H41.4689C41.8689 14.7 42.6289 13.9 43.7489 13.3C44.9089 12.7 46.1889 12.4 47.5889 12.4H49.8089C50.4889 12.4 50.8289 12.74 50.8289 13.42V16.54C50.8289 17.3 50.4889 17.62 49.8089 17.5H46.2089C42.8889 17.5 41.2289 19.32 41.2289 22.96V41.98C41.2289 42.66 40.8889 43 40.2089 43ZM62.1066 52.72H58.9266C58.2466 52.72 57.9066 52.38 57.9066 51.7V48.64C57.9066 47.92 58.2466 47.56 58.9266 47.56H60.3066C62.7466 47.56 64.4266 47.08 65.3466 46.12C66.3066 45.16 67.1066 43.58 67.7466 41.38H65.3466C64.7466 41.38 64.3266 41.04 64.0866 40.36L56.1066 13.42C55.9466 12.74 56.2066 12.4 56.8866 12.4H60.9066C61.5466 12.4 61.9466 12.74 62.1066 13.42L68.6466 36.94H68.8866L75.4266 13.42C75.5466 12.74 75.9466 12.4 76.6266 12.4H80.4666C81.2266 12.4 81.5466 12.76 81.4266 13.48L73.2066 42.34C72.2866 45.7 70.9866 48.26 69.3066 50.02C67.6266 51.82 65.2266 52.72 62.1066 52.72ZM94.3144 51.46H90.5344C89.8544 51.46 89.5144 51.12 89.5144 50.44V13.42C89.5144 12.74 89.8544 12.4 90.5344 12.4H94.3144C94.9944 12.4 95.3344 12.74 95.3344 13.42V15.58H95.5744C96.5344 13.46 98.5544 12.4 101.634 12.4H104.694C107.574 12.4 109.774 13.2 111.294 14.8C112.854 16.4 113.634 18.7 113.634 21.7V33.7C113.634 36.66 112.854 38.96 111.294 40.6C109.774 42.2 107.574 43 104.694 43H101.634C98.5544 43 96.5344 41.94 95.5744 39.82H95.3344V50.44C95.3344 51.12 94.9944 51.46 94.3144 51.46ZM100.254 37.9H103.434C106.314 37.9 107.754 36.42 107.754 33.46V21.94C107.754 18.98 106.314 17.5 103.434 17.5H100.254C96.9744 17.5 95.3344 19.2 95.3344 22.6V32.8C95.3344 36.2 96.9744 37.9 100.254 37.9ZM124.469 17.5H121.589C121.189 17.5 120.909 17.44 120.749 17.32C120.629 17.16 120.569 16.9 120.569 16.54V13.42C120.569 12.74 120.909 12.4 121.589 12.4H124.469C124.869 12.4 125.069 12.2 125.069 11.8V6.4C125.069 5.72 125.429 5.38 126.149 5.38H129.929C130.609 5.38 130.949 5.72 130.949 6.4V11.8C130.949 12.2 131.169 12.4 131.609 12.4H137.189C137.909 12.4 138.269 12.74 138.269 13.42V16.54C138.269 17.18 137.909 17.5 137.189 17.5H131.609C131.169 17.5 130.949 17.7 130.949 18.1V33.52C130.949 36.44 132.449 37.9 135.449 37.9H137.789C138.509 37.9 138.869 38.24 138.869 38.92V42.04C138.869 42.68 138.509 43 137.789 43H134.549C131.589 43 129.269 42.2 127.589 40.6C125.909 39 125.069 36.74 125.069 33.82V18.1C125.069 17.7 124.869 17.5 124.469 17.5ZM161.584 43H156.304C153.344 43 151.044 42.18 149.404 40.54C147.804 38.9 147.004 36.62 147.004 33.7V21.7C147.004 18.74 147.804 16.46 149.404 14.86C151.044 13.22 153.344 12.4 156.304 12.4H161.584C164.504 12.4 166.784 13.22 168.424 14.86C170.104 16.46 170.944 18.74 170.944 21.7V33.7C170.944 36.62 170.104 38.9 168.424 40.54C166.784 42.18 164.504 43 161.584 43ZM157.144 37.9H160.804C163.684 37.9 165.124 36.44 165.124 33.52V21.88C165.124 18.96 163.684 17.5 160.804 17.5H157.144C155.624 17.5 154.524 17.86 153.844 18.58C153.164 19.26 152.824 20.36 152.824 21.88V33.52C152.824 35.04 153.164 36.16 153.844 36.88C154.524 37.56 155.624 37.9 157.144 37.9Z" fill="url(#paint0_linear_28_639)"/>
<path d="M204.855 5.44V41.98C204.855 42.66 204.515 43 203.835 43H200.055C199.375 43 199.035 42.66 199.035 41.98V5.44C199.035 4.76 199.375 4.42 200.055 4.42H203.835C204.515 4.42 204.855 4.76 204.855 5.44ZM221.111 43H217.331C216.651 43 216.311 42.66 216.311 41.98V13.42C216.311 12.74 216.651 12.4 217.331 12.4H221.111C221.791 12.4 222.131 12.74 222.131 13.42V15.58H222.371C223.331 13.46 225.351 12.4 228.431 12.4H231.071C233.991 12.4 236.231 13.2 237.791 14.8C239.351 16.4 240.131 18.7 240.131 21.7V41.98C240.131 42.66 239.771 43 239.051 43H235.271C234.591 43 234.251 42.66 234.251 41.98V21.94C234.251 18.98 232.791 17.5 229.871 17.5H227.051C223.771 17.5 222.131 19.2 222.131 22.6V41.98C222.131 42.66 221.791 43 221.111 43ZM261.707 43H258.647C255.767 43 253.547 42.2 251.987 40.6C250.467 38.96 249.707 36.66 249.707 33.7V21.7C249.707 18.7 250.467 16.4 251.987 14.8C253.547 13.2 255.767 12.4 258.647 12.4H261.707C264.787 12.4 266.787 13.46 267.707 15.58H267.947V1.84C267.947 1.16 268.287 0.819999 268.967 0.819999H272.807C273.487 0.819999 273.827 1.16 273.827 1.84V41.98C273.827 42.66 273.487 43 272.807 43H268.967C268.287 43 267.947 42.66 267.947 41.98V39.82H267.707C266.787 41.94 264.787 43 261.707 43ZM267.947 32.8V22.6C267.947 19.2 266.307 17.5 263.027 17.5H259.847C256.967 17.5 255.527 18.98 255.527 21.94V33.46C255.527 36.42 256.967 37.9 259.847 37.9H263.027C266.307 37.9 267.947 36.2 267.947 32.8ZM306.022 43H293.062C290.102 43 287.802 42.18 286.162 40.54C284.562 38.9 283.762 36.62 283.762 33.7V21.7C283.762 18.74 284.562 16.46 286.162 14.86C287.802 13.22 290.102 12.4 293.062 12.4H297.982C300.942 12.4 303.242 13.22 304.882 14.86C306.522 16.46 307.342 18.74 307.342 21.7V29.32C307.342 30.04 306.982 30.4 306.262 30.4H290.182C289.742 30.4 289.522 30.6 289.522 31V33.58C289.522 36.5 290.982 37.96 293.902 37.96H306.022C306.742 37.96 307.102 38.32 307.102 39.04V42.04C307.102 42.68 306.742 43 306.022 43ZM290.182 26.32H300.922C301.322 26.32 301.522 26.12 301.522 25.72V21.88C301.522 20.36 301.182 19.26 300.502 18.58C299.822 17.86 298.722 17.5 297.202 17.5H293.902C292.382 17.5 291.282 17.86 290.602 18.58C289.922 19.26 289.582 20.36 289.582 21.88V25.72C289.582 26.12 289.782 26.32 290.182 26.32ZM319.832 43H315.272C314.392 43 314.172 42.66 314.612 41.98L322.592 27.4L314.792 13.42C314.352 12.74 314.532 12.4 315.332 12.4H319.952C320.712 12.4 321.232 12.74 321.512 13.42L326.372 23.74H326.612L331.172 13.42C331.452 12.74 331.952 12.4 332.672 12.4H337.232C338.072 12.4 338.272 12.74 337.832 13.42L330.272 27.34L338.432 41.98C338.832 42.66 338.652 43 337.892 43H333.152C332.472 43 331.992 42.66 331.712 41.98L326.612 31.36H326.372L321.332 41.98C321.052 42.66 320.552 43 319.832 43Z" fill="white"/>
<defs>
<linearGradient id="paint0_linear_28_639" x1="438" y1="9.45831" x2="57.3162" y2="130.968" gradientUnits="userSpaceOnUse">
<stop stop-color="#6FEEFF"/>
<stop offset="0.494792" stop-color="#4BB3ED"/>
<stop offset="1" stop-color="#00FF94"/>
</linearGradient>
</defs>
</svg>
