<svg width="304" height="43" viewBox="0 0 304 43" fill="none" xmlns="http://www.w3.org/2000/svg">
<path d="M5.03675 43H1.25675C0.576751 43 0.236751 42.66 0.236751 41.98V5.44C0.236751 4.76 0.576751 4.42 1.25675 4.42H20.0968C20.7768 4.42 21.1168 4.76 21.1168 5.44V8.5C21.1168 9.18 20.7768 9.52 20.0968 9.52H6.77675C6.29675 9.52 6.05675 9.72 6.05675 10.12V21.46C6.05675 21.9 6.29675 22.12 6.77675 22.12H18.3568C19.0768 22.12 19.4368 22.46 19.4368 23.14V26.14C19.4368 26.86 19.0768 27.22 18.3568 27.22H6.77675C6.29675 27.22 6.05675 27.42 6.05675 27.82V41.98C6.05675 42.66 5.71675 43 5.03675 43ZM51.5428 43H38.5828C35.6228 43 33.3228 42.18 31.6828 40.54C30.0828 38.9 29.2828 36.62 29.2828 33.7V21.7C29.2828 18.74 30.0828 16.46 31.6828 14.86C33.3228 13.22 35.6228 12.4 38.5828 12.4H43.5028C46.4628 12.4 48.7628 13.22 50.4028 14.86C52.0428 16.46 52.8628 18.74 52.8628 21.7V29.32C52.8628 30.04 52.5028 30.4 51.7828 30.4H35.7028C35.2628 30.4 35.0428 30.6 35.0428 31V33.58C35.0428 36.5 36.5028 37.96 39.4228 37.96H51.5428C52.2628 37.96 52.6228 38.32 52.6228 39.04V42.04C52.6228 42.68 52.2628 43 51.5428 43ZM35.7028 26.32H46.4428C46.8428 26.32 47.0428 26.12 47.0428 25.72V21.88C47.0428 20.36 46.7028 19.26 46.0228 18.58C45.3428 17.86 44.2428 17.5 42.7228 17.5H39.4228C37.9028 17.5 36.8028 17.86 36.1228 18.58C35.4428 19.26 35.1028 20.36 35.1028 21.88V25.72C35.1028 26.12 35.3028 26.32 35.7028 26.32ZM73.5127 43H71.1727C68.2127 43 65.9127 42.18 64.2727 40.54C62.6727 38.9 61.8727 36.62 61.8727 33.7V21.7C61.8727 18.74 62.6727 16.46 64.2727 14.86C65.9127 13.22 68.2127 12.4 71.1727 12.4H84.6127C85.3327 12.4 85.6927 12.74 85.6927 13.42V41.98C85.6927 42.66 85.3327 43 84.6127 43H80.8327C80.1527 43 79.8127 42.66 79.8127 41.98V39.82H79.5727C78.6127 41.94 76.5927 43 73.5127 43ZM79.8127 32.8V18.1C79.8127 17.7 79.5927 17.5 79.1527 17.5H72.0127C69.1327 17.5 67.6927 18.98 67.6927 21.94V33.46C67.6927 36.42 69.1327 37.9 72.0127 37.9H74.8927C78.1727 37.9 79.8127 36.2 79.8127 32.8ZM97.0758 17.5H94.1958C93.7958 17.5 93.5158 17.44 93.3558 17.32C93.2358 17.16 93.1758 16.9 93.1758 16.54V13.42C93.1758 12.74 93.5158 12.4 94.1958 12.4H97.0758C97.4758 12.4 97.6758 12.2 97.6758 11.8V6.4C97.6758 5.72 98.0358 5.38 98.7558 5.38H102.536C103.216 5.38 103.556 5.72 103.556 6.4V11.8C103.556 12.2 103.776 12.4 104.216 12.4H109.796C110.516 12.4 110.876 12.74 110.876 13.42V16.54C110.876 17.18 110.516 17.5 109.796 17.5H104.216C103.776 17.5 103.556 17.7 103.556 18.1V33.52C103.556 36.44 105.056 37.9 108.056 37.9H110.396C111.116 37.9 111.476 38.24 111.476 38.92V42.04C111.476 42.68 111.116 43 110.396 43H107.156C104.196 43 101.876 42.2 100.196 40.6C98.5158 39 97.6758 36.74 97.6758 33.82V18.1C97.6758 17.7 97.4758 17.5 97.0758 17.5ZM131.551 43H128.851C125.971 43 123.751 42.2 122.191 40.6C120.671 38.96 119.911 36.66 119.911 33.7V13.42C119.911 12.74 120.251 12.4 120.931 12.4H124.711C125.391 12.4 125.731 12.74 125.731 13.42V33.46C125.731 36.42 127.171 37.9 130.051 37.9H132.931C136.211 37.9 137.851 36.2 137.851 32.8V13.42C137.851 12.74 138.191 12.4 138.871 12.4H142.651C143.371 12.4 143.731 12.74 143.731 13.42V41.98C143.731 42.66 143.371 43 142.651 43H138.871C138.191 43 137.851 42.66 137.851 41.98V39.82H137.611C136.651 41.94 134.631 43 131.551 43ZM159.007 43H155.227C154.547 43 154.207 42.66 154.207 41.98V13.42C154.207 12.74 154.547 12.4 155.227 12.4H159.007C159.687 12.4 160.027 12.74 160.027 13.42V15.7H160.267C160.667 14.7 161.427 13.9 162.547 13.3C163.707 12.7 164.987 12.4 166.387 12.4H168.607C169.287 12.4 169.627 12.74 169.627 13.42V16.54C169.627 17.3 169.287 17.62 168.607 17.5H165.007C161.687 17.5 160.027 19.32 160.027 22.96V41.98C160.027 42.66 159.687 43 159.007 43ZM198.965 43H186.005C183.045 43 180.745 42.18 179.105 40.54C177.505 38.9 176.705 36.62 176.705 33.7V21.7C176.705 18.74 177.505 16.46 179.105 14.86C180.745 13.22 183.045 12.4 186.005 12.4H190.925C193.885 12.4 196.185 13.22 197.825 14.86C199.465 16.46 200.285 18.74 200.285 21.7V29.32C200.285 30.04 199.925 30.4 199.205 30.4H183.125C182.685 30.4 182.465 30.6 182.465 31V33.58C182.465 36.5 183.925 37.96 186.845 37.96H198.965C199.685 37.96 200.045 38.32 200.045 39.04V42.04C200.045 42.68 199.685 43 198.965 43ZM183.125 26.32H193.865C194.265 26.32 194.465 26.12 194.465 25.72V21.88C194.465 20.36 194.125 19.26 193.445 18.58C192.765 17.86 191.665 17.5 190.145 17.5H186.845C185.325 17.5 184.225 17.86 183.545 18.58C182.865 19.26 182.525 20.36 182.525 21.88V25.72C182.525 26.12 182.725 26.32 183.125 26.32ZM221.295 43H218.235C215.355 43 213.135 42.2 211.575 40.6C210.055 38.96 209.295 36.66 209.295 33.7V21.7C209.295 18.7 210.055 16.4 211.575 14.8C213.135 13.2 215.355 12.4 218.235 12.4H221.295C224.375 12.4 226.375 13.46 227.295 15.58H227.535V1.84C227.535 1.16 227.875 0.819999 228.555 0.819999H232.395C233.075 0.819999 233.415 1.16 233.415 1.84V41.98C233.415 42.66 233.075 43 232.395 43H228.555C227.875 43 227.535 42.66 227.535 41.98V39.82H227.295C226.375 41.94 224.375 43 221.295 43ZM227.535 32.8V22.6C227.535 19.2 225.895 17.5 222.615 17.5H219.435C216.555 17.5 215.115 18.98 215.115 21.94V33.46C215.115 36.42 216.555 37.9 219.435 37.9H222.615C225.895 37.9 227.535 36.2 227.535 32.8Z" fill="url(#paint0_linear_26_465)"/>
<path d="M267.966 5.44V41.98C267.966 42.66 267.626 43 266.946 43H263.166C262.486 43 262.146 42.66 262.146 41.98V5.44C262.146 4.76 262.486 4.42 263.166 4.42H266.946C267.626 4.42 267.966 4.76 267.966 5.44ZM284.222 43H280.442C279.762 43 279.422 42.66 279.422 41.98V13.42C279.422 12.74 279.762 12.4 280.442 12.4H284.222C284.902 12.4 285.242 12.74 285.242 13.42V15.58H285.482C286.442 13.46 288.462 12.4 291.542 12.4H294.182C297.102 12.4 299.342 13.2 300.902 14.8C302.462 16.4 303.242 18.7 303.242 21.7V41.98C303.242 42.66 302.882 43 302.162 43H298.382C297.702 43 297.362 42.66 297.362 41.98V21.94C297.362 18.98 295.902 17.5 292.982 17.5H290.162C286.882 17.5 285.242 19.2 285.242 22.6V41.98C285.242 42.66 284.902 43 284.222 43Z" fill="white"/>
<defs>
<linearGradient id="paint0_linear_26_465" x1="680.495" y1="9.45831" x2="89.5803" y2="379.172" gradientUnits="userSpaceOnUse">
<stop stop-color="#6FEEFF"/>
<stop offset="0.494792" stop-color="#4BB3ED"/>
<stop offset="1" stop-color="#00FF94"/>
</linearGradient>
</defs>
</svg>
