<svg width="66" height="67" viewBox="0 0 66 67" fill="none" xmlns="http://www.w3.org/2000/svg">
<path d="M6.64316 64.1888L1.41815 56.9377C0.950734 56.2891 0.699219 55.5098 0.699219 54.7103V4.81008C0.699219 2.70583 2.40505 1 4.5093 1H54.4655C55.3636 1 56.2328 1.31723 56.9198 1.89571L64.1147 7.95464C64.9744 8.67857 65.4706 9.74513 65.4706 10.869V61.9613C65.4706 64.0656 63.7648 65.7714 61.6605 65.7714H9.73431C8.50943 65.7714 7.35925 65.1825 6.64316 64.1888Z" fill="black" stroke="url(#paint0_linear_28_740)" stroke-width="0.762016"/>
<path d="M50.9922 32.4854C50.9922 30.408 49.2795 28.7374 47.1498 28.7374C46.1042 28.7374 45.1868 29.1441 44.4749 29.7979C41.8418 27.9646 38.2495 26.782 34.2373 26.6193L35.9917 18.5917L41.7167 19.7742C41.8001 21.2008 42.9707 22.3019 44.4332 22.3019C45.9374 22.3019 47.1498 21.1194 47.1498 19.6522C47.1498 18.1849 45.9374 17.0024 44.4332 17.0024C43.346 17.0024 42.4286 17.6126 41.9669 18.5103L35.6164 17.2058C35.4079 17.1651 35.2411 17.2058 35.116 17.2872C34.9492 17.3685 34.8658 17.5312 34.8241 17.7346L32.8612 26.66C28.7655 26.782 25.1316 27.9646 22.4567 29.8385C21.7895 29.1877 20.8274 28.7781 19.7819 28.7781C17.6522 28.7781 15.9395 30.4487 15.9395 32.5261C15.9395 34.034 16.8599 35.3385 18.1943 35.9079C18.1109 36.274 18.1109 36.6401 18.1109 37.0498C18.1109 42.7967 24.9618 47.4831 33.445 47.4831C41.9282 47.4831 48.7791 42.8373 48.7791 37.0498C48.7791 36.6837 48.7374 36.274 48.6957 35.9079C50.0301 35.3385 50.9922 33.9933 50.9922 32.4854ZM24.7116 35.1351C24.7116 33.6679 25.9239 32.4854 27.4281 32.4854C28.9323 32.4854 30.1446 33.6679 30.1446 35.1351C30.1446 36.6023 28.9323 37.7848 27.4281 37.7848C25.9656 37.8255 24.7116 36.6023 24.7116 35.1351ZM40.004 42.2243C38.1244 44.0576 34.5292 44.1796 33.5284 44.1796C32.4412 44.1796 28.8906 44.0169 27.0528 42.2243C26.7609 41.9396 26.7609 41.5328 27.0528 41.2452C27.3447 40.9605 27.7617 40.9605 28.0566 41.2452C29.2689 42.4277 31.774 42.7938 33.5314 42.7938C35.3275 42.7938 37.8772 42.387 39.0061 41.2452C39.298 40.9605 39.715 40.9605 40.0099 41.2452C40.2542 41.4921 40.2542 41.9396 40.004 42.2243ZM39.5006 37.8255C37.9964 37.8255 36.784 36.643 36.784 35.1758C36.784 33.7086 37.9964 32.5261 39.5006 32.5261C41.0048 32.5261 42.2171 33.7086 42.2171 35.1758C42.2171 36.6023 41.0048 37.8255 39.5006 37.8255Z" fill="url(#paint1_linear_28_740)"/>
<defs>
<linearGradient id="paint0_linear_28_740" x1="65.4706" y1="19.8916" x2="15.2607" y2="22.1769" gradientUnits="userSpaceOnUse">
<stop stop-color="#6FEEFF"/>
<stop offset="0.494792" stop-color="#4BB3ED"/>
<stop offset="1" stop-color="#00FF94"/>
</linearGradient>
<linearGradient id="paint1_linear_28_740" x1="50.9922" y1="25.8926" x2="23.8379" y2="27.3139" gradientUnits="userSpaceOnUse">
<stop stop-color="#6FEEFF"/>
<stop offset="0.494792" stop-color="#4BB3ED"/>
<stop offset="1" stop-color="#00FF94"/>
</linearGradient>
</defs>
</svg>
