<svg width="67" height="67" viewBox="0 0 67 67" fill="none" xmlns="http://www.w3.org/2000/svg">
<path d="M6.94394 64.1888L1.71893 56.9377C1.25152 56.2891 1 55.5098 1 54.7103V4.81008C1 2.70583 2.70583 1 4.81008 1H54.7663C55.6644 1 56.5336 1.31723 57.2205 1.89571L64.4155 7.95464C65.2752 8.67857 65.7714 9.74513 65.7714 10.869V61.9613C65.7714 64.0656 64.0656 65.7714 61.9613 65.7714H10.0351C8.81021 65.7714 7.66003 65.1825 6.94394 64.1888Z" fill="black" stroke="url(#paint0_linear_28_731)" stroke-width="0.762016"/>
<path d="M48.6618 19.8082C48.1203 19.3539 47.2696 19.2889 46.39 19.6382H46.3886C45.4635 20.0054 20.2034 30.7242 19.1751 31.1621C18.9881 31.2264 17.3546 31.8293 17.5229 33.1724C17.6731 34.3833 18.9859 34.8848 19.1462 34.9426L25.5681 37.118C25.9942 38.521 27.5648 43.6975 27.9122 44.8034C28.1288 45.4928 28.4819 46.3986 29.1008 46.5851C29.6438 46.7923 30.184 46.603 30.5335 46.3315L34.4597 42.7288L40.7979 47.6188L40.9488 47.7081C41.3792 47.8967 41.7915 47.991 42.1851 47.991C42.4891 47.991 42.7808 47.9346 43.0596 47.8217C44.0092 47.4359 44.389 46.5408 44.4287 46.4394L49.163 22.095C49.4519 20.7948 49.0504 20.1333 48.6618 19.8082ZM31.2318 37.9881L29.0654 43.7032L26.899 36.5593L43.508 24.4146L31.2318 37.9881Z" fill="url(#paint1_linear_28_731)"/>
<defs>
<linearGradient id="paint0_linear_28_731" x1="65.7714" y1="19.8916" x2="15.5614" y2="22.1769" gradientUnits="userSpaceOnUse">
<stop stop-color="#6FEEFF"/>
<stop offset="0.494792" stop-color="#4BB3ED"/>
<stop offset="1" stop-color="#00FF94"/>
</linearGradient>
<linearGradient id="paint1_linear_28_731" x1="49.2614" y1="27.7499" x2="24.6606" y2="28.994" gradientUnits="userSpaceOnUse">
<stop stop-color="#6FEEFF"/>
<stop offset="0.494792" stop-color="#4BB3ED"/>
<stop offset="1" stop-color="#00FF94"/>
</linearGradient>
</defs>
</svg>
