<svg width="559" height="53" viewBox="0 0 559 53" fill="none" xmlns="http://www.w3.org/2000/svg">
<path d="M20.9408 3.61926H24.7814C25.4723 3.61926 25.8178 3.94439 25.8178 4.59464V33.3684C25.8178 36.3352 24.9846 38.6517 23.3183 40.318C21.6521 41.9842 19.3355 42.8174 16.3688 42.8174H10.2726C7.2652 42.8174 4.92835 41.9842 3.26207 40.318C1.59579 38.6517 0.762656 36.3352 0.762656 33.3684V27.8819C0.762656 27.191 1.12842 26.8455 1.85996 26.8455H5.70052C6.39142 26.8455 6.73686 27.191 6.73686 27.8819V33.1245C6.73686 36.132 8.19994 37.6357 11.1261 37.6357H15.4543C18.3805 37.6357 19.8435 36.132 19.8435 33.1245V4.6556C19.8435 3.96471 20.2093 3.61926 20.9408 3.61926ZM51.0372 42.8174H45.6726C42.6651 42.8174 40.3283 41.9842 38.662 40.318C37.0364 38.6517 36.2236 36.3352 36.2236 33.3684V21.1761C36.2236 18.1687 37.0364 15.8522 38.662 14.2265C40.3283 12.5603 42.6651 11.7271 45.6726 11.7271H51.0372C54.0039 11.7271 56.3205 12.5603 57.9868 14.2265C59.6937 15.8522 60.5471 18.1687 60.5471 21.1761V33.3684C60.5471 36.3352 59.6937 38.6517 57.9868 40.318C56.3205 41.9842 54.0039 42.8174 51.0372 42.8174ZM46.526 37.6357H50.2447C53.1708 37.6357 54.6339 36.1523 54.6339 33.1855V21.359C54.6339 18.3922 53.1708 16.9088 50.2447 16.9088H46.526C44.9817 16.9088 43.864 17.2746 43.1732 18.0061C42.4823 18.697 42.1368 19.8146 42.1368 21.359V33.1855C42.1368 34.7298 42.4823 35.8678 43.1732 36.5993C43.864 37.2902 44.9817 37.6357 46.526 37.6357ZM70.9048 6.5454V0.997923C70.9048 0.34767 71.23 0.0225436 71.8802 0.0225436H75.8427C76.4929 0.0225436 76.8181 0.34767 76.8181 0.997923V6.5454C76.8181 7.2363 76.4929 7.58175 75.8427 7.58175H71.8802C71.23 7.58175 70.9048 7.2363 70.9048 6.5454ZM70.9048 41.781V12.7635C70.9048 12.0726 71.23 11.7271 71.8802 11.7271H75.7817C76.4726 11.7271 76.8181 12.0726 76.8181 12.7635V41.781C76.8181 42.1874 76.7368 42.4719 76.5742 42.6345C76.4523 42.7564 76.2085 42.8174 75.8427 42.8174H71.9412C71.2503 42.8174 70.9048 42.4719 70.9048 41.781ZM92.7533 42.8174H88.9127C88.2218 42.8174 87.8764 42.4719 87.8764 41.781V12.7635C87.8764 12.0726 88.2218 11.7271 88.9127 11.7271H92.7533C93.4442 11.7271 93.7896 12.0726 93.7896 12.7635V14.9581H94.0335C95.0088 12.8041 97.0612 11.7271 100.191 11.7271H102.873C105.84 11.7271 108.116 12.5399 109.701 14.1656C111.286 15.7912 112.078 18.1281 112.078 21.1761V41.781C112.078 42.4719 111.712 42.8174 110.981 42.8174H107.14C106.449 42.8174 106.104 42.4719 106.104 41.781V21.42C106.104 18.4125 104.62 16.9088 101.654 16.9088H98.7884C95.4559 16.9088 93.7896 18.6361 93.7896 22.0905V41.781C93.7896 42.4719 93.4442 42.8174 92.7533 42.8174ZM150.294 37.6357H155.597C158.564 37.6357 160.047 36.132 160.047 33.1245V13.3121C160.047 10.3047 158.564 8.80097 155.597 8.80097H150.294C147.367 8.80097 145.904 10.3047 145.904 13.3121V33.1245C145.904 36.132 147.367 37.6357 150.294 37.6357ZM156.512 42.8174H149.44C146.433 42.8174 144.096 41.9842 142.43 40.318C140.804 38.6517 139.991 36.3352 139.991 33.3684V13.0683C139.991 10.0608 140.804 7.74431 142.43 6.11867C144.096 4.4524 146.433 3.61926 149.44 3.61926H156.512C159.519 3.61926 161.856 4.4524 163.522 6.11867C165.188 7.74431 166.022 10.0608 166.022 13.0683V33.3684C166.022 36.3352 165.188 38.6517 163.522 40.318C161.856 41.9842 159.519 42.8174 156.512 42.8174ZM188.197 42.8174H185.454C182.527 42.8174 180.272 42.0046 178.687 40.3789C177.142 38.7127 176.37 36.3758 176.37 33.3684V12.7635C176.37 12.0726 176.716 11.7271 177.407 11.7271H181.247C181.938 11.7271 182.284 12.0726 182.284 12.7635V33.1245C182.284 36.132 183.747 37.6357 186.673 37.6357H189.599C192.931 37.6357 194.598 35.9084 194.598 32.454V12.7635C194.598 12.0726 194.943 11.7271 195.634 11.7271H199.475C200.206 11.7271 200.572 12.0726 200.572 12.7635V41.781C200.572 42.4719 200.206 42.8174 199.475 42.8174H195.634C194.943 42.8174 194.598 42.4719 194.598 41.781V39.5864H194.354C193.378 41.7404 191.326 42.8174 188.197 42.8174ZM216.093 42.8174H212.252C211.561 42.8174 211.216 42.4719 211.216 41.781V12.7635C211.216 12.0726 211.561 11.7271 212.252 11.7271H216.093C216.784 11.7271 217.129 12.0726 217.129 12.7635V15.08H217.373C217.779 14.064 218.552 13.2511 219.689 12.6415C220.868 12.0319 222.169 11.7271 223.591 11.7271H225.847C226.537 11.7271 226.883 12.0726 226.883 12.7635V15.9334C226.883 16.7056 226.537 17.0307 225.847 16.9088H222.189C218.816 16.9088 217.129 18.758 217.129 22.4563V41.781C217.129 42.4719 216.784 42.8174 216.093 42.8174Z" fill="white"/>
<path d="M268.778 42.8174H261.707C258.699 42.8174 256.362 41.9842 254.696 40.318C253.07 38.6517 252.258 36.3352 252.258 33.3684V13.0683C252.258 10.0608 253.07 7.74431 254.696 6.11867C256.362 4.4524 258.699 3.61926 261.707 3.61926H268.778C271.745 3.61926 274.061 4.4524 275.728 6.11867C277.394 7.74431 278.227 10.0608 278.227 13.0683V15.9944C278.227 16.7259 277.861 17.0917 277.13 17.0917H273.289C272.598 17.0917 272.253 16.7259 272.253 15.9944V13.3121C272.253 10.3047 270.79 8.80097 267.864 8.80097H262.56C259.634 8.80097 258.171 10.3047 258.171 13.3121V33.1245C258.171 36.132 259.634 37.6357 262.56 37.6357H267.864C270.79 37.6357 272.253 36.132 272.253 33.1245V30.4422C272.253 29.7107 272.598 29.3449 273.289 29.3449H277.13C277.861 29.3449 278.227 29.7107 278.227 30.4422V33.3684C278.227 36.3352 277.394 38.6517 275.728 40.318C274.061 41.9842 271.745 42.8174 268.778 42.8174ZM302.431 42.8174H297.067C294.059 42.8174 291.722 41.9842 290.056 40.318C288.43 38.6517 287.618 36.3352 287.618 33.3684V21.1761C287.618 18.1687 288.43 15.8522 290.056 14.2265C291.722 12.5603 294.059 11.7271 297.067 11.7271H302.431C305.398 11.7271 307.714 12.5603 309.381 14.2265C311.088 15.8522 311.941 18.1687 311.941 21.1761V33.3684C311.941 36.3352 311.088 38.6517 309.381 40.318C307.714 41.9842 305.398 42.8174 302.431 42.8174ZM297.92 37.6357H301.639C304.565 37.6357 306.028 36.1523 306.028 33.1855V21.359C306.028 18.3922 304.565 16.9088 301.639 16.9088H297.92C296.376 16.9088 295.258 17.2746 294.567 18.0061C293.876 18.697 293.531 19.8146 293.531 21.359V33.1855C293.531 34.7298 293.876 35.8678 294.567 36.5993C295.258 37.2902 296.376 37.6357 297.92 37.6357ZM326.871 42.8174H323.03C322.339 42.8174 321.994 42.4719 321.994 41.781V12.7635C321.994 12.0726 322.339 11.7271 323.03 11.7271H326.871C327.562 11.7271 327.907 12.0726 327.907 12.7635V14.9581H328.151C329.33 12.8041 331.484 11.7271 334.613 11.7271H336.625C340.16 11.7271 342.68 13.0683 344.184 15.7506C344.834 14.4501 345.83 13.4544 347.171 12.7635C348.512 12.0726 349.955 11.7271 351.499 11.7271H353.45C356.417 11.7271 358.672 12.5603 360.217 14.2265C361.802 15.8522 362.594 18.1687 362.594 21.1761V41.781C362.594 42.4719 362.249 42.8174 361.558 42.8174H357.656C356.965 42.8174 356.62 42.4719 356.62 41.781V21.42C356.62 18.4125 355.157 16.9088 352.231 16.9088H350.463C347.09 16.9088 345.403 18.6767 345.403 22.2125V41.781C345.403 42.4719 345.037 42.8174 344.306 42.8174H340.465C339.774 42.8174 339.429 42.4719 339.429 41.781V21.42C339.429 18.4125 337.966 16.9088 335.04 16.9088H332.906C329.573 16.9088 327.907 18.6361 327.907 22.0905V41.781C327.907 42.4719 327.562 42.8174 326.871 42.8174ZM377.902 42.8174H374.062C373.371 42.8174 373.025 42.4719 373.025 41.781V12.7635C373.025 12.0726 373.371 11.7271 374.062 11.7271H377.902C378.593 11.7271 378.939 12.0726 378.939 12.7635V14.9581H379.182C380.361 12.8041 382.515 11.7271 385.644 11.7271H387.656C391.192 11.7271 393.711 13.0683 395.215 15.7506C395.865 14.4501 396.861 13.4544 398.202 12.7635C399.543 12.0726 400.986 11.7271 402.531 11.7271H404.481C407.448 11.7271 409.704 12.5603 411.248 14.2265C412.833 15.8522 413.625 18.1687 413.625 21.1761V41.781C413.625 42.4719 413.28 42.8174 412.589 42.8174H408.688C407.997 42.8174 407.651 42.4719 407.651 41.781V21.42C407.651 18.4125 406.188 16.9088 403.262 16.9088H401.494C398.121 16.9088 396.434 18.6767 396.434 22.2125V41.781C396.434 42.4719 396.069 42.8174 395.337 42.8174H391.497C390.806 42.8174 390.46 42.4719 390.46 41.781V21.42C390.46 18.4125 388.997 16.9088 386.071 16.9088H383.937C380.605 16.9088 378.939 18.6361 378.939 22.0905V41.781C378.939 42.4719 378.593 42.8174 377.902 42.8174ZM435.578 42.8174H432.835C429.909 42.8174 427.653 42.0046 426.068 40.3789C424.524 38.7127 423.752 36.3758 423.752 33.3684V12.7635C423.752 12.0726 424.097 11.7271 424.788 11.7271H428.629C429.32 11.7271 429.665 12.0726 429.665 12.7635V33.1245C429.665 36.132 431.128 37.6357 434.054 37.6357H436.98C440.313 37.6357 441.979 35.9084 441.979 32.454V12.7635C441.979 12.0726 442.325 11.7271 443.016 11.7271H446.856C447.588 11.7271 447.953 12.0726 447.953 12.7635V41.781C447.953 42.4719 447.588 42.8174 446.856 42.8174H443.016C442.325 42.8174 441.979 42.4719 441.979 41.781V39.5864H441.735C440.76 41.7404 438.708 42.8174 435.578 42.8174ZM463.474 42.8174H459.634C458.943 42.8174 458.597 42.4719 458.597 41.781V12.7635C458.597 12.0726 458.943 11.7271 459.634 11.7271H463.474C464.165 11.7271 464.511 12.0726 464.511 12.7635V14.9581H464.754C465.73 12.8041 467.782 11.7271 470.911 11.7271H473.594C476.561 11.7271 478.836 12.5399 480.421 14.1656C482.006 15.7912 482.799 18.1281 482.799 21.1761V41.781C482.799 42.4719 482.433 42.8174 481.702 42.8174H477.861C477.17 42.8174 476.825 42.4719 476.825 41.781V21.42C476.825 18.4125 475.341 16.9088 472.375 16.9088H469.509C466.177 16.9088 464.511 18.6361 464.511 22.0905V41.781C464.511 42.4719 464.165 42.8174 463.474 42.8174ZM493.443 6.5454V0.997923C493.443 0.34767 493.768 0.0225436 494.418 0.0225436H498.381C499.031 0.0225436 499.356 0.34767 499.356 0.997923V6.5454C499.356 7.2363 499.031 7.58175 498.381 7.58175H494.418C493.768 7.58175 493.443 7.2363 493.443 6.5454ZM493.443 41.781V12.7635C493.443 12.0726 493.768 11.7271 494.418 11.7271H498.32C499.011 11.7271 499.356 12.0726 499.356 12.7635V41.781C499.356 42.1874 499.275 42.4719 499.112 42.6345C498.99 42.7564 498.747 42.8174 498.381 42.8174H494.479C493.788 42.8174 493.443 42.4719 493.443 41.781ZM511.329 16.9088H508.403C507.996 16.9088 507.712 16.8479 507.549 16.7259C507.427 16.5634 507.366 16.2992 507.366 15.9334V12.7635C507.366 12.0726 507.712 11.7271 508.403 11.7271H511.329C511.735 11.7271 511.938 11.5239 511.938 11.1175V5.63098C511.938 4.94009 512.304 4.59464 513.036 4.59464H516.876C517.567 4.59464 517.913 4.94009 517.913 5.63098V11.1175C517.913 11.5239 518.136 11.7271 518.583 11.7271H524.253C524.984 11.7271 525.35 12.0726 525.35 12.7635V15.9334C525.35 16.5837 524.984 16.9088 524.253 16.9088H518.583C518.136 16.9088 517.913 17.112 517.913 17.5184V33.1855C517.913 36.1523 519.437 37.6357 522.485 37.6357H524.862C525.594 37.6357 525.96 37.9811 525.96 38.672V41.842C525.96 42.4923 525.594 42.8174 524.862 42.8174H521.57C518.563 42.8174 516.206 42.0046 514.499 40.3789C512.792 38.7533 511.938 36.4571 511.938 33.4903V17.5184C511.938 17.112 511.735 16.9088 511.329 16.9088ZM538.492 52.6931H535.261C534.571 52.6931 534.225 52.3477 534.225 51.6568V48.5477C534.225 47.8162 534.571 47.4504 535.261 47.4504H536.664C539.143 47.4504 540.85 46.9628 541.784 45.9874C542.76 45.012 543.572 43.4067 544.223 41.1714H541.784C541.175 41.1714 540.748 40.826 540.504 40.1351L532.396 12.7635C532.234 12.0726 532.498 11.7271 533.189 11.7271H537.273C537.923 11.7271 538.33 12.0726 538.492 12.7635L545.137 36.6603H545.381L552.026 12.7635C552.148 12.0726 552.554 11.7271 553.245 11.7271H557.147C557.919 11.7271 558.244 12.0929 558.122 12.8244L549.77 42.1468C548.835 45.5606 547.515 48.1617 545.808 49.9499C544.101 51.7787 541.662 52.6931 538.492 52.6931Z" fill="url(#paint0_linear_28_728)"/>
<defs>
<linearGradient id="paint0_linear_28_728" x1="568.07" y1="8.56736" x2="164.94" y2="144.531" gradientUnits="userSpaceOnUse">
<stop stop-color="#6FEEFF"/>
<stop offset="0.494792" stop-color="#4BB3ED"/>
<stop offset="1" stop-color="#00FF94"/>
</linearGradient>
</defs>
</svg>
