<svg width="43" height="42" viewBox="0 0 43 42" fill="none" xmlns="http://www.w3.org/2000/svg">
<path d="M34.5628 5.94748H8.74303C8.45279 5.94347 8.1646 5.99633 7.89492 6.10305C7.62524 6.20976 7.37934 6.36824 7.17128 6.56942C6.96322 6.77061 6.79707 7.01056 6.68231 7.27558C6.56756 7.5406 6.50645 7.8255 6.50247 8.11399V34.0819C6.50645 34.3704 6.56756 34.6553 6.68231 34.9203C6.79707 35.1853 6.96322 35.4253 7.17128 35.6265C7.37934 35.8276 7.62524 35.9861 7.89492 36.0928C8.1646 36.1995 8.45279 36.2524 8.74303 36.2484H34.5628C34.8531 36.2524 35.1413 36.1995 35.4109 36.0928C35.6806 35.9861 35.9265 35.8276 36.1346 35.6265C36.3426 35.4253 36.5088 35.1853 36.6236 34.9203C36.7383 34.6553 36.7994 34.3704 36.8034 34.0819V8.11399C36.7994 7.8255 36.7383 7.5406 36.6236 7.27558C36.5088 7.01056 36.3426 6.77061 36.1346 6.56942C35.9265 6.36824 35.6806 6.20976 35.4109 6.10305C35.1413 5.99633 34.8531 5.94347 34.5628 5.94748V5.94748ZM15.6933 31.3094H11.1208V17.6739H15.6933V31.3094ZM13.4071 15.765C12.7764 15.765 12.1717 15.516 11.7257 15.0727C11.2798 14.6295 11.0293 14.0283 11.0293 13.4015C11.0293 12.7747 11.2798 12.1735 11.7257 11.7303C12.1717 11.287 12.7764 11.038 13.4071 11.038C13.7419 11.0003 14.081 11.0333 14.4022 11.1348C14.7233 11.2364 15.0193 11.4042 15.2706 11.6273C15.522 11.8505 15.7231 12.1238 15.8608 12.4296C15.9985 12.7353 16.0697 13.0665 16.0697 13.4015C16.0697 13.7365 15.9985 14.0677 15.8608 14.3734C15.7231 14.6792 15.522 14.9526 15.2706 15.1757C15.0193 15.3988 14.7233 15.5666 14.4022 15.6682C14.081 15.7697 13.7419 15.8027 13.4071 15.765V15.765ZM32.1851 31.3094H27.6125V23.9917C27.6125 22.1585 26.9571 20.9616 25.2958 20.9616C24.7816 20.9653 24.2809 21.1256 23.8612 21.4209C23.4415 21.7162 23.123 22.1322 22.9485 22.613C22.8292 22.9691 22.7775 23.3441 22.7961 23.719V31.2942H18.2235C18.2235 31.2942 18.2235 18.9011 18.2235 17.6588H22.7961V19.5829C23.2115 18.8664 23.8156 18.2762 24.5435 17.8757C25.2713 17.4753 26.0953 17.2798 26.9266 17.3103C29.975 17.3103 32.1851 19.2647 32.1851 23.4614V31.3094Z" fill="#7B7B7B"/>
</svg>
