<svg width="213" height="49" viewBox="0 0 213 49" fill="none" xmlns="http://www.w3.org/2000/svg">
<rect x="171.682" y="33.147" width="41.3175" height="15.8529" rx="3" fill="url(#paint0_linear_28_473)"/>
<path d="M92.3299 10.8155H67.9915C66.3318 10.8155 65.5048 11.5746 65.5048 13.0652V23.6345C65.5048 25.1251 66.3318 25.8842 67.9915 25.8842H92.4087V30.0332H67.9915C63.6847 30.0332 61.5215 28.1032 61.5215 24.2768V12.4136C61.5215 8.58422 63.6875 6.65723 67.9915 6.65723H92.3299V10.8155Z" fill="white"/>
<path d="M129.026 24.3445C129.026 28.1432 126.857 30.0425 122.556 30.0425H103.779C99.4718 30.0425 97.3086 28.1124 97.3086 24.2861V6.6665H101.292V23.8466C101.292 25.2204 102.122 25.8935 103.781 25.8935H122.556C124.213 25.8935 125.042 25.2204 125.042 23.905V6.6665H129.028L129.026 24.3445Z" fill="white"/>
<path d="M165.574 14.4667C165.587 15.1907 165.419 15.9048 165.089 16.5327C164.759 17.1606 164.279 17.6788 163.7 18.0318C164.324 18.2458 164.866 18.6748 165.247 19.2545C165.628 19.8341 165.827 20.5331 165.813 21.2465V24.2861C165.813 28.1124 163.675 30.0425 159.368 30.0425H133.916V6.6665H159.385C163.532 6.6665 165.591 8.5935 165.591 12.4229L165.574 14.4667ZM137.894 10.8155V16.3476H160.398C160.582 16.3526 160.765 16.3159 160.935 16.2398C161.106 16.1637 161.26 16.0499 161.388 15.9056C161.516 15.7612 161.616 15.5894 161.68 15.401C161.744 15.2126 161.772 15.0117 161.762 14.8109V13.1236C161.762 11.587 161.067 10.8155 159.354 10.8155H137.894ZM137.894 20.0787V25.8935H158.727C160.679 25.8935 161.821 25.454 161.821 23.7421V21.4217C161.821 20.6349 161.34 20.0787 160.415 20.0787H137.894Z" fill="white"/>
<path d="M174.67 30.0425H170.687V6.6665H174.67V30.0425Z" fill="white"/>
<path d="M200.991 17.537L213 30.0425H207.464L197.781 19.8728H194.065L184.383 30.0425H178.847L190.856 17.537L179.783 6.6665H185.345L194.347 15.8128H197.528L206.53 6.6665H212.091L200.991 17.537Z" fill="white"/>
<path d="M48.0006 9.09738L43.5054 0.507324L34.2617 17.9579L43.5673 35.4361L48.0006 27.1196L43.241 18.0224L48.0006 9.09738Z" fill="#3BF426"/>
<path d="M0 26.8461L4.49525 35.4361L13.7417 17.9856L4.43336 0.507324L0 8.82385L4.75967 17.921L0 26.8461Z" fill="#3BF426"/>
<path d="M33.1655 0L28.8671 8.92813L28.8531 8.90661H19.2831L14.8244 0H5.5498L14.8244 17.2385L33.1711 17.2723L42.3191 0H33.1655Z" fill="#3BF426"/>
<path d="M14.7035 35.8968L19.0018 26.9656L19.0158 26.9902H28.5858L33.0445 35.8968H42.3191L33.0445 18.6552L14.6978 18.6245L5.5498 35.8968H14.7035Z" fill="#3BF426"/>
<path d="M177.38 45.3972V37.4707H182.822C183.049 37.4707 183.259 37.5368 183.454 37.6689C183.648 37.7936 183.8 37.9661 183.91 38.1863C184.027 38.3991 184.085 38.6377 184.085 38.9019V40.5202C184.085 40.6156 184.075 40.711 184.056 40.8064C184.043 40.9018 184.017 40.9899 183.978 41.0706C184.108 41.2761 184.205 41.4706 184.27 41.6541C184.341 41.8303 184.377 42.0101 184.377 42.1936V43.966C184.377 44.2302 184.318 44.4724 184.202 44.6926C184.092 44.9054 183.939 45.0779 183.745 45.21C183.551 45.3348 183.337 45.3972 183.104 45.3972H177.38ZM178.672 44.2082H183.084C183.149 44.2082 183.204 44.1825 183.249 44.1311C183.295 44.0724 183.317 44.0064 183.317 43.933V42.2266C183.317 42.1532 183.295 42.0908 183.249 42.0394C183.204 41.9807 183.149 41.9514 183.084 41.9514H178.672C178.608 41.9514 178.549 41.9807 178.497 42.0394C178.452 42.0908 178.429 42.1532 178.429 42.2266V43.933C178.429 44.0064 178.452 44.0724 178.497 44.1311C178.549 44.1825 178.608 44.2082 178.672 44.2082ZM178.672 40.7624H182.793C182.857 40.7624 182.913 40.7367 182.958 40.6853C183.003 40.6266 183.026 40.5606 183.026 40.4872V38.9349C183.026 38.8615 183.003 38.7991 182.958 38.7477C182.913 38.689 182.857 38.6597 182.793 38.6597H178.672C178.608 38.6597 178.549 38.689 178.497 38.7477C178.452 38.7991 178.429 38.8615 178.429 38.9349V40.4872C178.429 40.5606 178.452 40.6266 178.497 40.6853C178.549 40.7367 178.608 40.7624 178.672 40.7624Z" fill="#121212"/>
<path d="M185.942 45.3972V37.4707H192.355V38.6597H187.001V40.8395H191.306V42.0284H187.001V44.2082H192.355V45.3972H185.942Z" fill="#121212"/>
<path d="M196.472 45.3972V38.6597H193.498V37.4707H200.495V38.6597H197.522V45.3972H196.472Z" fill="#121212"/>
<path d="M201.727 45.3972V38.9019C201.727 38.6377 201.782 38.3991 201.893 38.1863C202.009 37.9661 202.161 37.7936 202.349 37.6689C202.544 37.5368 202.757 37.4707 202.991 37.4707H207.451C207.684 37.4707 207.898 37.5368 208.093 37.6689C208.287 37.7936 208.439 37.9661 208.549 38.1863C208.666 38.3991 208.724 38.6377 208.724 38.9019V45.3972H207.665V42.6229H202.777V45.3972H201.727ZM202.777 41.4339H207.665V38.9349C207.665 38.8615 207.642 38.7991 207.597 38.7477C207.552 38.689 207.497 38.6597 207.432 38.6597H203.02C202.955 38.6597 202.897 38.689 202.845 38.7477C202.8 38.7991 202.777 38.8615 202.777 38.9349V41.4339Z" fill="#121212"/>
<defs>
<linearGradient id="paint0_linear_28_473" x1="212.999" y1="37.7707" x2="181.349" y2="41.5251" gradientUnits="userSpaceOnUse">
<stop stop-color="#6FEEFF"/>
<stop offset="0.494792" stop-color="#4BB3ED"/>
<stop offset="1" stop-color="#00FF94"/>
</linearGradient>
</defs>
</svg>
