<svg width="160" height="35" viewBox="0 0 160 35" fill="none" xmlns="http://www.w3.org/2000/svg">
<path d="M28.4141 17.2218C28.4141 23.4242 23.4655 28.4606 17.3353 28.4606C11.205 28.4606 6.2565 23.4242 6.2565 17.2218C6.2565 11.0193 11.205 5.98296 17.3353 5.98296C23.4655 5.98296 28.4141 11.0193 28.4141 17.2218ZM40.5515 17.2218C40.5515 23.052 38.0649 27.7907 35.0121 27.7907C31.9593 27.7907 29.4727 23.052 29.4727 17.2218C29.4727 11.3915 31.9593 6.65282 35.0121 6.65282C38.0649 6.65282 40.5515 11.3667 40.5515 17.2218ZM45.5246 17.2218C45.5246 22.4566 44.6629 26.6991 43.5797 26.6991C42.4964 26.6991 41.6347 22.4566 41.6347 17.2218C41.6347 11.9869 42.4964 7.74444 43.5797 7.74444C44.6629 7.74444 45.5246 11.9869 45.5246 17.2218ZM76.0774 6.95054H76.102V6.70244H69.7994L63.9646 20.5711L58.1052 6.72725H51.3102V6.97535H51.3348C52.4919 7.24826 53.0582 7.6204 53.0582 9.03455V25.5082C53.0582 26.9224 52.4673 27.2945 51.3348 27.5674H51.3102V27.8155H55.914V27.5674H55.8894C54.7323 27.2945 54.1661 26.9224 54.1661 25.5082V10.0021L61.675 27.8155H62.0935L69.8241 9.50594V25.93C69.7256 27.0464 69.1593 27.3937 68.1007 27.617H68.0761V27.8651H76.102V27.617H76.0774C75.0434 27.3689 74.4525 27.0464 74.354 25.93V9.05936C74.354 7.6204 74.9449 7.22344 76.0774 6.95054ZM79.7457 17.8668C79.8688 14.9145 80.9275 12.7808 82.7001 12.7312C83.2417 12.7312 83.7095 12.9297 84.0541 13.277C84.8173 14.0213 85.162 15.5595 85.1128 17.8668H79.7457ZM79.6719 18.6855H89.0765V18.6359C89.0519 16.3782 88.4118 14.6167 87.1562 13.4011C86.0729 12.3591 84.4727 11.7884 82.7739 11.7884H82.7247C81.8384 11.7884 80.7797 12.0117 80.0165 12.3839C79.1549 12.7808 78.3916 13.4011 77.7515 14.195C76.7175 15.4851 76.102 17.1969 75.9543 19.1569C75.9543 19.2065 75.9543 19.281 75.9297 19.3306C75.9297 19.3802 75.9297 19.4298 75.9297 19.5043C75.9051 19.7772 75.9051 20.0501 75.9051 20.323C76.0035 24.7391 78.367 28.2621 82.577 28.2621C86.2699 28.2621 88.4118 25.5578 88.9534 21.9108L88.6826 21.8116C87.7471 23.7715 86.0483 24.9624 84.128 24.8135C81.4937 24.6151 79.4749 21.9356 79.6719 18.6855ZM99.6875 24.6647C99.3675 25.409 98.7273 25.8059 97.8657 25.8059C97.004 25.8059 96.2162 25.2105 95.6499 24.1189C95.059 22.9528 94.739 21.3154 94.739 19.3554C94.739 15.3114 95.9946 12.6816 97.9395 12.6816C98.752 12.6816 99.3921 13.0785 99.6875 13.798V24.6647ZM105.941 27.5674C104.784 27.2945 104.218 26.8975 104.218 25.409V5.73486L97.2256 7.81888V8.06697H97.2748C98.235 7.99255 98.8997 8.1166 99.269 8.46393C99.5644 8.73684 99.7121 9.1586 99.7121 9.75403V12.4583C99.0228 12.0117 98.2103 11.7884 97.2009 11.7884C95.1821 11.7884 93.3357 12.632 92.0062 14.195C90.6275 15.8076 89.889 18.0157 89.889 20.5959C89.889 25.1857 92.1293 28.2621 95.453 28.2621C97.3979 28.2621 98.9735 27.1953 99.6875 25.3593V27.7907H105.965V27.5426L105.941 27.5674ZM111.923 8.41431C111.923 6.97535 110.865 5.90853 109.437 5.90853C108.034 5.90853 106.926 7.00016 106.926 8.41431C106.926 9.82846 108.034 10.9201 109.437 10.9201C110.84 10.9201 111.923 9.85327 111.923 8.41431ZM113.573 27.5674C112.416 27.2945 111.85 26.8975 111.85 25.409V11.8629L105.572 13.674V13.9221H105.621C106.975 14.0461 107.344 14.5175 107.344 16.1053V27.8155H113.598V27.5674H113.573ZM129.625 27.5674C128.468 27.2945 127.901 26.8975 127.901 25.409V11.8629L121.944 13.6244V13.8724H121.968C123.076 13.9965 123.396 14.4927 123.396 16.0805V24.6399C123.027 25.3842 122.337 25.8059 121.5 25.8555C120.146 25.8555 119.383 24.9376 119.383 23.2505V11.8629L113.105 13.674V13.9221H113.154C114.508 14.0461 114.878 14.5175 114.878 16.1053V23.3498C114.878 23.846 114.927 24.367 115.001 24.8631L115.124 25.3593C115.666 27.2697 117.044 28.2869 119.211 28.2869C121.057 28.2869 122.682 27.1456 123.396 25.3345V27.8403H129.674V27.5922L129.625 27.5674ZM153.974 27.8155V27.5674H153.949C152.693 27.2697 152.226 26.7239 152.226 25.6074V16.403C152.226 13.5251 150.625 11.8132 147.942 11.8132C145.997 11.8132 144.347 12.9545 143.707 14.716C143.215 12.8304 141.762 11.8132 139.596 11.8132C137.7 11.8132 136.223 12.8056 135.607 14.5175V11.8629L129.329 13.5995V13.8476H129.379C130.708 13.9717 131.102 14.4431 131.102 16.0061V27.8155H136.961V27.5674H136.937C135.952 27.3441 135.632 26.8976 135.632 25.8059V15.237C135.903 14.6167 136.42 13.8724 137.478 13.8724C138.783 13.8724 139.448 14.7904 139.448 16.5767V27.8155H145.307V27.5674H145.283C144.298 27.3441 143.978 26.8976 143.978 25.8059V16.403C143.978 16.0557 143.953 15.7084 143.904 15.361C144.175 14.6912 144.741 13.8973 145.824 13.8973C147.154 13.8973 147.794 14.7904 147.794 16.6015V27.8403H153.974V27.8155Z" fill="#7B7B7B"/>
</svg>
