<svg width="482" height="43" viewBox="0 0 482 43" fill="none" xmlns="http://www.w3.org/2000/svg">
<path d="M5.64094 42.6758H1.86094C1.18094 42.6758 0.840938 42.3358 0.840938 41.6558V5.11578C0.840938 4.43578 1.18094 4.09578 1.86094 4.09578H16.1409C19.0609 4.09578 21.3409 4.91578 22.9809 6.55578C24.6209 8.15578 25.4409 10.4358 25.4409 13.3958V19.6358C25.4409 22.5558 24.6209 24.8358 22.9809 26.4758C21.3409 28.1158 19.0609 28.9358 16.1409 28.9358H7.38094C6.90094 28.9358 6.66094 29.1358 6.66094 29.5358V41.6558C6.66094 42.3358 6.32094 42.6758 5.64094 42.6758ZM7.32094 23.7758H15.3009C18.1409 23.7758 19.5609 22.2958 19.5609 19.3358V13.6358C19.5609 10.6758 18.1409 9.19578 15.3009 9.19578H7.32094C6.88094 9.19578 6.66094 9.39578 6.66094 9.79578V23.1758C6.66094 23.5758 6.88094 23.7758 7.32094 23.7758ZM31.2802 41.6558V36.1358C31.2802 33.6558 32.3402 31.5758 34.4602 29.8958L45.8002 20.6558C47.7202 19.1358 48.6802 17.3758 48.6802 15.3758V13.3958C48.6802 10.5158 47.1802 9.07578 44.1802 9.07578H41.2402C39.7202 9.07578 38.6202 9.41578 37.9402 10.0958C37.2602 10.7758 36.9202 11.8758 36.9202 13.3958V15.6158C36.9202 16.3358 36.5802 16.6958 35.9002 16.6958H32.0602C31.3802 16.6958 31.0402 16.3358 31.0402 15.6158V13.2758C31.0402 10.3558 31.8602 8.09578 33.5002 6.49578C35.1402 4.89578 37.4402 4.09578 40.4002 4.09578H45.0802C48.0002 4.09578 50.2802 4.89578 51.9202 6.49578C53.5602 8.09578 54.3802 10.3558 54.3802 13.2758V15.7358C54.3802 18.8558 53.1602 21.4158 50.7202 23.4158L39.2002 32.8358C38.2802 33.5958 37.8202 34.4958 37.8202 35.5358V37.4558H53.4202C54.1402 37.4558 54.5002 37.7958 54.5002 38.4758V41.6558C54.5002 42.3358 54.1402 42.6758 53.4202 42.6758H32.3602C31.6402 42.6758 31.2802 42.3358 31.2802 41.6558ZM66.5784 42.6758H62.7984C62.1184 42.6758 61.7784 42.3358 61.7784 41.6558V5.11578C61.7784 4.43578 62.1184 4.09578 62.7984 4.09578H77.0784C79.9984 4.09578 82.2784 4.91578 83.9184 6.55578C85.5584 8.15578 86.3784 10.4358 86.3784 13.3958V19.6358C86.3784 22.5558 85.5584 24.8358 83.9184 26.4758C82.2784 28.1158 79.9984 28.9358 77.0784 28.9358H68.3184C67.8384 28.9358 67.5984 29.1358 67.5984 29.5358V41.6558C67.5984 42.3358 67.2584 42.6758 66.5784 42.6758ZM68.2584 23.7758H76.2384C79.0784 23.7758 80.4984 22.2958 80.4984 19.3358V13.6358C80.4984 10.6758 79.0784 9.19578 76.2384 9.19578H68.2584C67.8184 9.19578 67.5984 9.39578 67.5984 9.79578V23.1758C67.5984 23.5758 67.8184 23.7758 68.2584 23.7758ZM225.974 42.6758H219.014C216.054 42.6758 213.754 41.8558 212.114 40.2158C210.514 38.5758 209.714 36.2958 209.714 33.3758V13.3958C209.714 10.4358 210.514 8.15578 212.114 6.55578C213.754 4.91578 216.054 4.09578 219.014 4.09578H225.974C228.894 4.09578 231.174 4.91578 232.814 6.55578C234.454 8.15578 235.274 10.4358 235.274 13.3958V16.2758C235.274 16.9958 234.914 17.3558 234.194 17.3558H230.414C229.734 17.3558 229.394 16.9958 229.394 16.2758V13.6358C229.394 10.6758 227.954 9.19578 225.074 9.19578H219.854C216.974 9.19578 215.534 10.6758 215.534 13.6358V33.1358C215.534 36.0958 216.974 37.5758 219.854 37.5758H225.074C227.954 37.5758 229.394 36.0958 229.394 33.1358V30.4958C229.394 29.7758 229.734 29.4158 230.414 29.4158H234.194C234.914 29.4158 235.274 29.7758 235.274 30.4958V33.3758C235.274 36.2958 234.454 38.5758 232.814 40.2158C231.174 41.8558 228.894 42.6758 225.974 42.6758ZM253.156 42.6758H250.816C247.856 42.6758 245.556 41.8558 243.916 40.2158C242.316 38.5758 241.516 36.2958 241.516 33.3758V21.3758C241.516 18.4158 242.316 16.1358 243.916 14.5358C245.556 12.8958 247.856 12.0758 250.816 12.0758H264.256C264.976 12.0758 265.336 12.4158 265.336 13.0958V41.6558C265.336 42.3358 264.976 42.6758 264.256 42.6758H260.476C259.796 42.6758 259.456 42.3358 259.456 41.6558V39.4958H259.216C258.256 41.6158 256.236 42.6758 253.156 42.6758ZM259.456 32.4758V17.7758C259.456 17.3758 259.236 17.1758 258.796 17.1758H251.656C248.776 17.1758 247.336 18.6558 247.336 21.6158V33.1358C247.336 36.0958 248.776 37.5758 251.656 37.5758H254.536C257.816 37.5758 259.456 35.8758 259.456 32.4758ZM277.619 42.6758H273.839C273.159 42.6758 272.819 42.3358 272.819 41.6558V13.0958C272.819 12.4158 273.159 12.0758 273.839 12.0758H277.619C278.299 12.0758 278.639 12.4158 278.639 13.0958V15.3758H278.879C279.279 14.3758 280.039 13.5758 281.159 12.9758C282.319 12.3758 283.599 12.0758 284.999 12.0758H287.219C287.899 12.0758 288.239 12.4158 288.239 13.0958V16.2158C288.239 16.9758 287.899 17.2958 287.219 17.1758H283.619C280.299 17.1758 278.639 18.9958 278.639 22.6358V41.6558C278.639 42.3358 278.299 42.6758 277.619 42.6758ZM304.317 42.6758H301.257C298.377 42.6758 296.157 41.8758 294.597 40.2758C293.077 38.6358 292.317 36.3358 292.317 33.3758V21.3758C292.317 18.3758 293.077 16.0758 294.597 14.4758C296.157 12.8758 298.377 12.0758 301.257 12.0758H304.317C307.397 12.0758 309.397 13.1358 310.317 15.2558H310.557V1.51578C310.557 0.83578 310.897 0.495781 311.577 0.495781H315.417C316.097 0.495781 316.437 0.83578 316.437 1.51578V41.6558C316.437 42.3358 316.097 42.6758 315.417 42.6758H311.577C310.897 42.6758 310.557 42.3358 310.557 41.6558V39.4958H310.317C309.397 41.6158 307.397 42.6758 304.317 42.6758ZM310.557 32.4758V22.2758C310.557 18.8758 308.917 17.1758 305.637 17.1758H302.457C299.577 17.1758 298.137 18.6558 298.137 21.6158V33.1358C298.137 36.0958 299.577 37.5758 302.457 37.5758H305.637C308.917 37.5758 310.557 35.8758 310.557 32.4758ZM345.348 37.6958H353.748C356.748 37.6958 358.248 36.2558 358.248 33.3758V29.6558C358.248 26.7758 356.668 25.3358 353.508 25.3358H345.348C344.908 25.3358 344.688 25.5358 344.688 25.9358V37.0958C344.688 37.4958 344.908 37.6958 345.348 37.6958ZM345.348 20.5358H353.148C356.188 20.5358 357.708 19.0758 357.708 16.1558V13.3958C357.708 10.5158 356.228 9.07578 353.268 9.07578H345.348C344.908 9.07578 344.688 9.27578 344.688 9.67578V19.9358C344.688 20.3358 344.908 20.5358 345.348 20.5358ZM338.868 41.6558V5.11578C338.868 4.43578 339.208 4.09578 339.888 4.09578H354.108C357.068 4.09578 359.368 4.89578 361.008 6.49578C362.648 8.09578 363.468 10.3558 363.468 13.2758V16.2158C363.468 19.6958 361.828 21.9358 358.548 22.9358C360.108 23.1358 361.388 23.8158 362.388 24.9758C363.428 26.1358 363.948 27.6958 363.948 29.6558V33.4958C363.948 36.4158 363.128 38.6758 361.488 40.2758C359.848 41.8758 357.568 42.6758 354.648 42.6758H339.888C339.208 42.6758 338.868 42.3358 338.868 41.6558ZM382.414 42.6758H380.074C377.114 42.6758 374.814 41.8558 373.174 40.2158C371.574 38.5758 370.774 36.2958 370.774 33.3758V21.3758C370.774 18.4158 371.574 16.1358 373.174 14.5358C374.814 12.8958 377.114 12.0758 380.074 12.0758H393.514C394.234 12.0758 394.594 12.4158 394.594 13.0958V41.6558C394.594 42.3358 394.234 42.6758 393.514 42.6758H389.734C389.054 42.6758 388.714 42.3358 388.714 41.6558V39.4958H388.474C387.514 41.6158 385.494 42.6758 382.414 42.6758ZM388.714 32.4758V17.7758C388.714 17.3758 388.494 17.1758 388.054 17.1758H380.914C378.034 17.1758 376.594 18.6558 376.594 21.6158V33.1358C376.594 36.0958 378.034 37.5758 380.914 37.5758H383.794C387.074 37.5758 388.714 35.8758 388.714 32.4758ZM402.977 17.1758H400.097C399.697 17.1758 399.417 17.1158 399.257 16.9958C399.137 16.8358 399.077 16.5758 399.077 16.2158V13.0958C399.077 12.4158 399.417 12.0758 400.097 12.0758H402.977C403.377 12.0758 403.577 11.8758 403.577 11.4758V6.07578C403.577 5.39578 403.937 5.05578 404.657 5.05578H408.437C409.117 5.05578 409.457 5.39578 409.457 6.07578V11.4758C409.457 11.8758 409.677 12.0758 410.117 12.0758H415.697C416.417 12.0758 416.777 12.4158 416.777 13.0958V16.2158C416.777 16.8558 416.417 17.1758 415.697 17.1758H410.117C409.677 17.1758 409.457 17.3758 409.457 17.7758V33.1958C409.457 36.1158 410.957 37.5758 413.957 37.5758H416.297C417.017 37.5758 417.377 37.9158 417.377 38.5958V41.7158C417.377 42.3558 417.017 42.6758 416.297 42.6758H413.057C410.097 42.6758 407.777 41.8758 406.097 40.2758C404.417 38.6758 403.577 36.4158 403.577 33.4958V17.7758C403.577 17.3758 403.377 17.1758 402.977 17.1758ZM424.012 17.1758H421.132C420.732 17.1758 420.452 17.1158 420.292 16.9958C420.172 16.8358 420.112 16.5758 420.112 16.2158V13.0958C420.112 12.4158 420.452 12.0758 421.132 12.0758H424.012C424.412 12.0758 424.612 11.8758 424.612 11.4758V6.07578C424.612 5.39578 424.972 5.05578 425.692 5.05578H429.472C430.152 5.05578 430.492 5.39578 430.492 6.07578V11.4758C430.492 11.8758 430.712 12.0758 431.152 12.0758H436.732C437.452 12.0758 437.812 12.4158 437.812 13.0958V16.2158C437.812 16.8558 437.452 17.1758 436.732 17.1758H431.152C430.712 17.1758 430.492 17.3758 430.492 17.7758V33.1958C430.492 36.1158 431.992 37.5758 434.992 37.5758H437.332C438.052 37.5758 438.412 37.9158 438.412 38.5958V41.7158C438.412 42.3558 438.052 42.6758 437.332 42.6758H434.092C431.132 42.6758 428.812 41.8758 427.132 40.2758C425.452 38.6758 424.612 36.4158 424.612 33.4958V17.7758C424.612 17.3758 424.412 17.1758 424.012 17.1758ZM449.247 42.6758H445.467C444.787 42.6758 444.447 42.3358 444.447 41.6558V1.51578C444.447 0.83578 444.787 0.495781 445.467 0.495781H449.247C449.927 0.495781 450.267 0.83578 450.267 1.51578V41.6558C450.267 42.3358 449.927 42.6758 449.247 42.6758ZM479.811 42.6758H466.851C463.891 42.6758 461.591 41.8558 459.951 40.2158C458.351 38.5758 457.551 36.2958 457.551 33.3758V21.3758C457.551 18.4158 458.351 16.1358 459.951 14.5358C461.591 12.8958 463.891 12.0758 466.851 12.0758H471.771C474.731 12.0758 477.031 12.8958 478.671 14.5358C480.311 16.1358 481.131 18.4158 481.131 21.3758V28.9958C481.131 29.7158 480.771 30.0758 480.051 30.0758H463.971C463.531 30.0758 463.311 30.2758 463.311 30.6758V33.2558C463.311 36.1758 464.771 37.6358 467.691 37.6358H479.811C480.531 37.6358 480.891 37.9958 480.891 38.7158V41.7158C480.891 42.3558 480.531 42.6758 479.811 42.6758ZM463.971 25.9958H474.711C475.111 25.9958 475.311 25.7958 475.311 25.3958V21.5558C475.311 20.0358 474.971 18.9358 474.291 18.2558C473.611 17.5358 472.511 17.1758 470.991 17.1758H467.691C466.171 17.1758 465.071 17.5358 464.391 18.2558C463.711 18.9358 463.371 20.0358 463.371 21.5558V25.3958C463.371 25.7958 463.571 25.9958 463.971 25.9958Z" fill="white"/>
<path d="M112.515 42.6758H108.795C108.115 42.6758 107.775 42.3358 107.775 41.6558V5.11578C107.775 4.43578 108.115 4.09578 108.795 4.09578H112.155C112.795 4.09578 113.235 4.31578 113.475 4.75578L127.995 30.8558H128.235V5.11578C128.235 4.43578 128.575 4.09578 129.255 4.09578H132.975C133.655 4.09578 133.995 4.43578 133.995 5.11578V41.6558C133.995 42.3358 133.655 42.6758 132.975 42.6758H129.735C129.095 42.6758 128.575 42.3558 128.175 41.7158L113.775 15.9158H113.535V41.6558C113.535 42.3358 113.195 42.6758 112.515 42.6758ZM147.555 42.6758H143.775C143.095 42.6758 142.755 42.3358 142.755 41.6558V5.11578C142.755 4.43578 143.095 4.09578 143.775 4.09578H162.615C163.295 4.09578 163.635 4.43578 163.635 5.11578V8.17578C163.635 8.85578 163.295 9.19578 162.615 9.19578H149.295C148.815 9.19578 148.575 9.39578 148.575 9.79578V21.1358C148.575 21.5758 148.815 21.7958 149.295 21.7958H160.875C161.595 21.7958 161.955 22.1358 161.955 22.8158V25.8158C161.955 26.5358 161.595 26.8958 160.875 26.8958H149.295C148.815 26.8958 148.575 27.0958 148.575 27.4958V41.6558C148.575 42.3358 148.235 42.6758 147.555 42.6758ZM180.561 42.6758H176.781C176.061 42.6758 175.701 42.3358 175.701 41.6558V9.79578C175.701 9.39578 175.501 9.19578 175.101 9.19578H167.541C166.821 9.19578 166.461 8.85578 166.461 8.17578V5.11578C166.461 4.43578 166.821 4.09578 167.541 4.09578H189.801C190.521 4.09578 190.881 4.43578 190.881 5.11578V8.17578C190.881 8.85578 190.521 9.19578 189.801 9.19578H182.241C181.801 9.19578 181.581 9.39578 181.581 9.79578V41.6558C181.581 42.3358 181.241 42.6758 180.561 42.6758Z" fill="url(#paint0_linear_26_408)"/>
<defs>
<linearGradient id="paint0_linear_26_408" x1="194.842" y1="0.175779" x2="145.329" y2="52.8586" gradientUnits="userSpaceOnUse">
<stop stop-color="#6FEEFF"/>
<stop offset="0.494792" stop-color="#4BB3ED"/>
<stop offset="1" stop-color="#00FF94"/>
</linearGradient>
</defs>
</svg>
