<svg width="66" height="67" viewBox="0 0 66 67" fill="none" xmlns="http://www.w3.org/2000/svg">
<path d="M6.64316 64.1888L1.41815 56.9377C0.950734 56.2891 0.699219 55.5098 0.699219 54.7103V4.81008C0.699219 2.70583 2.40505 1 4.5093 1H54.4655C55.3636 1 56.2328 1.31723 56.9198 1.89571L64.1147 7.95464C64.9744 8.67857 65.4706 9.74513 65.4706 10.869V61.9613C65.4706 64.0656 63.7648 65.7714 61.6605 65.7714H9.73431C8.50943 65.7714 7.35925 65.1825 6.64316 64.1888Z" fill="black" stroke="url(#paint0_linear_27_165)" stroke-width="0.762016"/>
<path d="M50.9927 32.4854C50.9927 30.408 49.28 28.7374 47.1502 28.7374C46.1047 28.7374 45.1873 29.1441 44.4754 29.7979C41.8423 27.9646 38.25 26.782 34.2378 26.6193L35.9922 18.5917L41.7172 19.7742C41.8006 21.2008 42.9712 22.3019 44.4337 22.3019C45.9379 22.3019 47.1502 21.1194 47.1502 19.6522C47.1502 18.1849 45.9379 17.0024 44.4337 17.0024C43.3465 17.0024 42.4291 17.6126 41.9674 18.5103L35.6169 17.2058C35.4084 17.1651 35.2416 17.2058 35.1165 17.2872C34.9497 17.3685 34.8663 17.5312 34.8246 17.7346L32.8617 26.66C28.766 26.782 25.1321 27.9646 22.4572 29.8385C21.79 29.1877 20.8279 28.7781 19.7824 28.7781C17.6527 28.7781 15.9399 30.4487 15.9399 32.5261C15.9399 34.034 16.8603 35.3385 18.1948 35.9079C18.1114 36.274 18.1114 36.6401 18.1114 37.0498C18.1114 42.7967 24.9623 47.4831 33.4455 47.4831C41.9287 47.4831 48.7796 42.8373 48.7796 37.0498C48.7796 36.6837 48.7379 36.274 48.6962 35.9079C50.0306 35.3385 50.9927 33.9933 50.9927 32.4854ZM24.7121 35.1351C24.7121 33.6679 25.9244 32.4854 27.4286 32.4854C28.9328 32.4854 30.1451 33.6679 30.1451 35.1351C30.1451 36.6023 28.9328 37.7848 27.4286 37.7848C25.9661 37.8255 24.7121 36.6023 24.7121 35.1351ZM40.0045 42.2243C38.1249 44.0576 34.5297 44.1796 33.5289 44.1796C32.4417 44.1796 28.8911 44.0169 27.0533 42.2243C26.7614 41.9396 26.7614 41.5328 27.0533 41.2452C27.3452 40.9605 27.7622 40.9605 28.0571 41.2452C29.2694 42.4277 31.7744 42.7938 33.5318 42.7938C35.328 42.7938 37.8777 42.387 39.0066 41.2452C39.2985 40.9605 39.7155 40.9605 40.0104 41.2452C40.2547 41.4921 40.2547 41.9396 40.0045 42.2243ZM39.5011 37.8255C37.9968 37.8255 36.7845 36.643 36.7845 35.1758C36.7845 33.7086 37.9968 32.5261 39.5011 32.5261C41.0053 32.5261 42.2176 33.7086 42.2176 35.1758C42.2176 36.6023 41.0053 37.8255 39.5011 37.8255Z" fill="url(#paint1_linear_27_165)"/>
<defs>
<linearGradient id="paint0_linear_27_165" x1="65.4706" y1="19.8916" x2="15.2607" y2="22.1769" gradientUnits="userSpaceOnUse">
<stop stop-color="#6FEEFF"/>
<stop offset="0.494792" stop-color="#4BB3ED"/>
<stop offset="1" stop-color="#00FF94"/>
</linearGradient>
<linearGradient id="paint1_linear_27_165" x1="50.9927" y1="25.8926" x2="23.8384" y2="27.3139" gradientUnits="userSpaceOnUse">
<stop stop-color="#6FEEFF"/>
<stop offset="0.494792" stop-color="#4BB3ED"/>
<stop offset="1" stop-color="#00FF94"/>
</linearGradient>
</defs>
</svg>
