<svg width="532" height="158" viewBox="0 0 532 158" fill="none" xmlns="http://www.w3.org/2000/svg">
<path d="M11.454 32.6201H8.556C8.004 32.6201 7.728 32.3595 7.728 31.8381V7.41212C7.728 7.10545 7.57467 6.95212 7.268 6.95212H1.472C0.92 6.95212 0.644 6.69145 0.644 6.17011V3.82412C0.644 3.30278 0.92 3.04212 1.472 3.04212H18.538C19.09 3.04212 19.366 3.30278 19.366 3.82412V6.17011C19.366 6.69145 19.09 6.95212 18.538 6.95212H12.742C12.4047 6.95212 12.236 7.10545 12.236 7.41212V31.8381C12.236 32.3595 11.9753 32.6201 11.454 32.6201ZM26.5233 32.6201H23.6253C23.104 32.6201 22.8433 32.3595 22.8433 31.8381V9.94212C22.8433 9.42078 23.104 9.16011 23.6253 9.16011H26.5233C27.0446 9.16011 27.3053 9.42078 27.3053 9.94212V11.6901H27.4893C27.796 10.9234 28.3786 10.3101 29.2373 9.85012C30.1266 9.39012 31.108 9.16011 32.1813 9.16011H33.8833C34.4046 9.16011 34.6653 9.42078 34.6653 9.94212V12.3341C34.6653 12.9168 34.4046 13.1621 33.8833 13.0701H31.1233C28.578 13.0701 27.3053 14.4654 27.3053 17.2561V31.8381C27.3053 32.3595 27.0446 32.6201 26.5233 32.6201ZM46.7155 32.6201H44.9215C42.6522 32.6201 40.8888 31.9915 39.6315 30.7341C38.4048 29.4768 37.7915 27.7288 37.7915 25.4901V16.2901C37.7915 14.0208 38.4048 12.2728 39.6315 11.0461C40.8888 9.78878 42.6522 9.16011 44.9215 9.16011H55.2255C55.7775 9.16011 56.0535 9.42078 56.0535 9.94212V31.8381C56.0535 32.3595 55.7775 32.6201 55.2255 32.6201H52.3275C51.8062 32.6201 51.5455 32.3595 51.5455 31.8381V30.1821H51.3615C50.6255 31.8075 49.0768 32.6201 46.7155 32.6201ZM51.5455 24.8001V13.5301C51.5455 13.2234 51.3769 13.0701 51.0395 13.0701H45.5655C43.3575 13.0701 42.2535 14.2048 42.2535 16.4741V25.3061C42.2535 27.5755 43.3575 28.7101 45.5655 28.7101H47.7735C50.2882 28.7101 51.5455 27.4068 51.5455 24.8001ZM70.5306 32.6201H68.1846C65.9766 32.6201 64.2746 32.0068 63.0786 30.7801C61.9132 29.5228 61.3306 27.7595 61.3306 25.4901V16.2901C61.3306 13.9901 61.9132 12.2268 63.0786 11.0001C64.2746 9.77345 65.9766 9.16011 68.1846 9.16011H70.5306C72.8919 9.16011 74.4252 9.97278 75.1306 11.5981H75.3146V1.06411C75.3146 0.542783 75.5752 0.282117 76.0966 0.282117H79.0406C79.5619 0.282117 79.8226 0.542783 79.8226 1.06411V31.8381C79.8226 32.3595 79.5619 32.6201 79.0406 32.6201H76.0966C75.5752 32.6201 75.3146 32.3595 75.3146 31.8381V30.1821H75.1306C74.4252 31.8075 72.8919 32.6201 70.5306 32.6201ZM75.3146 24.8001V16.9801C75.3146 14.3735 74.0572 13.0701 71.5426 13.0701H69.1046C66.8966 13.0701 65.7926 14.2048 65.7926 16.4741V25.3061C65.7926 27.5755 66.8966 28.7101 69.1046 28.7101H71.5426C74.0572 28.7101 75.3146 27.4068 75.3146 24.8001ZM102.205 32.6201H92.2692C89.9998 32.6201 88.2365 31.9915 86.9792 30.7341C85.7525 29.4768 85.1392 27.7288 85.1392 25.4901V16.2901C85.1392 14.0208 85.7525 12.2728 86.9792 11.0461C88.2365 9.78878 89.9998 9.16011 92.2692 9.16011H96.0412C98.3105 9.16011 100.074 9.78878 101.331 11.0461C102.589 12.2728 103.217 14.0208 103.217 16.2901V22.1321C103.217 22.6841 102.941 22.9601 102.389 22.9601H90.0612C89.7238 22.9601 89.5552 23.1135 89.5552 23.4201V25.3981C89.5552 27.6368 90.6745 28.7561 92.9132 28.7561H102.205C102.757 28.7561 103.033 29.0321 103.033 29.5841V31.8841C103.033 32.3748 102.757 32.6201 102.205 32.6201ZM90.0612 19.8321H98.2952C98.6018 19.8321 98.7552 19.6788 98.7552 19.3721V16.4281C98.7552 15.2628 98.4945 14.4194 97.9732 13.8981C97.4518 13.3461 96.6085 13.0701 95.4432 13.0701H92.9132C91.7478 13.0701 90.9045 13.3461 90.3832 13.8981C89.8618 14.4194 89.6012 15.2628 89.6012 16.4281V19.3721C89.6012 19.6788 89.7545 19.8321 90.0612 19.8321ZM349.87 32.6201H344.994C344.442 32.6201 344.12 32.3595 344.028 31.8381L338.554 3.82412C338.493 3.30278 338.753 3.04212 339.336 3.04212H342.878C343.461 3.04212 343.767 3.30278 343.798 3.82412L347.524 27.9281H347.8L353.228 3.73212C353.289 3.27212 353.565 3.04212 354.056 3.04212H357.92C358.411 3.04212 358.702 3.27212 358.794 3.73212L364.268 27.9281H364.544L368.27 3.87012C368.301 3.31812 368.607 3.04212 369.19 3.04212H372.732C373.345 3.04212 373.606 3.31812 373.514 3.87012L368.04 31.8381C367.948 32.3595 367.641 32.6201 367.12 32.6201H362.244C361.723 32.6201 361.416 32.3595 361.324 31.8381L356.126 8.56212H355.942L350.744 31.8381C350.652 32.3595 350.361 32.6201 349.87 32.6201ZM377.597 5.25012V1.06411C377.597 0.573449 377.842 0.328116 378.333 0.328116H381.323C381.813 0.328116 382.059 0.573449 382.059 1.06411V5.25012C382.059 5.77145 381.813 6.03212 381.323 6.03212H378.333C377.842 6.03212 377.597 5.77145 377.597 5.25012ZM377.597 31.8381V9.94212C377.597 9.42078 377.842 9.16011 378.333 9.16011H381.277C381.798 9.16011 382.059 9.42078 382.059 9.94212V31.8381C382.059 32.1448 381.997 32.3595 381.875 32.4821C381.783 32.5741 381.599 32.6201 381.323 32.6201H378.379C377.857 32.6201 377.597 32.3595 377.597 31.8381ZM388.793 13.0701H386.585C386.278 13.0701 386.064 13.0241 385.941 12.9321C385.849 12.8094 385.803 12.6101 385.803 12.3341V9.94212C385.803 9.42078 386.064 9.16011 386.585 9.16011H388.793C389.1 9.16011 389.253 9.00678 389.253 8.70012V4.56012C389.253 4.03878 389.529 3.77812 390.081 3.77812H392.979C393.5 3.77812 393.761 4.03878 393.761 4.56012V8.70012C393.761 9.00678 393.93 9.16011 394.267 9.16011H398.545C399.097 9.16011 399.373 9.42078 399.373 9.94212V12.3341C399.373 12.8248 399.097 13.0701 398.545 13.0701H394.267C393.93 13.0701 393.761 13.2234 393.761 13.5301V25.3521C393.761 27.5908 394.911 28.7101 397.211 28.7101H399.005C399.557 28.7101 399.833 28.9708 399.833 29.4921V31.8841C399.833 32.3748 399.557 32.6201 399.005 32.6201H396.521C394.252 32.6201 392.473 32.0068 391.185 30.7801C389.897 29.5535 389.253 27.8208 389.253 25.5821V13.5301C389.253 13.2234 389.1 13.0701 388.793 13.0701ZM407.91 32.6201H405.012C404.491 32.6201 404.23 32.3595 404.23 31.8381V1.06411C404.23 0.542783 404.491 0.282117 405.012 0.282117H407.91C408.431 0.282117 408.692 0.542783 408.692 1.06411V11.5981H408.876C409.612 9.97278 411.161 9.16011 413.522 9.16011H415.546C417.785 9.16011 419.502 9.77345 420.698 11.0001C421.894 12.2268 422.492 13.9901 422.492 16.2901V31.8381C422.492 32.3595 422.216 32.6201 421.664 32.6201H418.766C418.245 32.6201 417.984 32.3595 417.984 31.8381V16.4741C417.984 14.2048 416.865 13.0701 414.626 13.0701H412.464C409.949 13.0701 408.692 14.3735 408.692 16.9801V31.8381C408.692 32.3595 408.431 32.6201 407.91 32.6201ZM454.917 32.6201H440.197C439.675 32.6201 439.415 32.3595 439.415 31.8381V3.82412C439.415 3.30278 439.675 3.04212 440.197 3.04212H454.917C455.407 3.04212 455.653 3.30278 455.653 3.82412V6.17011C455.653 6.69145 455.407 6.95212 454.917 6.95212H444.429C444.061 6.95212 443.877 7.10545 443.877 7.41212V15.1861C443.877 15.4928 444.061 15.6461 444.429 15.6461H453.307C453.859 15.6461 454.135 15.9068 454.135 16.4281V18.7741C454.135 19.2954 453.859 19.5561 453.307 19.5561H444.429C444.061 19.5561 443.877 19.7094 443.877 20.0161V28.2041C443.877 28.5415 444.061 28.7101 444.429 28.7101H454.917C455.407 28.7101 455.653 28.9708 455.653 29.4921V31.8381C455.653 32.3595 455.407 32.6201 454.917 32.6201ZM469.52 32.6201H467.726C465.457 32.6201 463.694 31.9915 462.436 30.7341C461.21 29.4768 460.596 27.7288 460.596 25.4901V16.2901C460.596 14.0208 461.21 12.2728 462.436 11.0461C463.694 9.78878 465.457 9.16011 467.726 9.16011H478.03C478.582 9.16011 478.858 9.42078 478.858 9.94212V31.8381C478.858 32.3595 478.582 32.6201 478.03 32.6201H475.132C474.611 32.6201 474.35 32.3595 474.35 31.8381V30.1821H474.166C473.43 31.8075 471.882 32.6201 469.52 32.6201ZM474.35 24.8001V13.5301C474.35 13.2234 474.182 13.0701 473.844 13.0701H468.37C466.162 13.0701 465.058 14.2048 465.058 16.4741V25.3061C465.058 27.5755 466.162 28.7101 468.37 28.7101H470.578C473.093 28.7101 474.35 27.4068 474.35 24.8001ZM492.967 32.6201H484.503C483.982 32.6201 483.721 32.3595 483.721 31.8381V29.5841C483.721 29.0935 483.982 28.8481 484.503 28.8481H492.231C494.225 28.8481 495.221 28.1581 495.221 26.7781V26.2261C495.221 24.9995 494.501 24.0641 493.059 23.4201L488.045 21.0281C486.481 20.2921 485.347 19.4794 484.641 18.5901C483.936 17.7008 483.583 16.5354 483.583 15.0941C483.583 11.1381 485.776 9.16011 490.161 9.16011H497.797C498.288 9.16011 498.533 9.42078 498.533 9.94212V12.1961C498.533 12.7174 498.288 12.9781 497.797 12.9781H491.081C490.161 12.9781 489.456 13.1468 488.965 13.4841C488.475 13.7908 488.229 14.2048 488.229 14.7261V15.2321C488.229 16.2134 489.011 17.0721 490.575 17.8081L495.635 20.3841C497.23 21.0895 498.319 21.9328 498.901 22.9141C499.515 23.8648 499.821 25.1068 499.821 26.6401C499.821 30.6268 497.537 32.6201 492.967 32.6201ZM521.192 32.6201H511.256C508.986 32.6201 507.223 31.9915 505.966 30.7341C504.739 29.4768 504.126 27.7288 504.126 25.4901V16.2901C504.126 14.0208 504.739 12.2728 505.966 11.0461C507.223 9.78878 508.986 9.16011 511.256 9.16011H515.028C517.297 9.16011 519.06 9.78878 520.318 11.0461C521.575 12.2728 522.204 14.0208 522.204 16.2901V22.1321C522.204 22.6841 521.928 22.9601 521.376 22.9601H509.048C508.71 22.9601 508.542 23.1135 508.542 23.4201V25.3981C508.542 27.6368 509.661 28.7561 511.9 28.7561H521.192C521.744 28.7561 522.02 29.0321 522.02 29.5841V31.8841C522.02 32.3748 521.744 32.6201 521.192 32.6201ZM509.048 19.8321H517.282C517.588 19.8321 517.742 19.6788 517.742 19.3721V16.4281C517.742 15.2628 517.481 14.4194 516.96 13.8981C516.438 13.3461 515.595 13.0701 514.43 13.0701H511.9C510.734 13.0701 509.891 13.3461 509.37 13.8981C508.848 14.4194 508.588 15.2628 508.588 16.4281V19.3721C508.588 19.6788 508.741 19.8321 509.048 19.8321ZM531.273 9.89612V15.5081C531.273 16.0294 531.028 16.2901 530.537 16.2901H527.409C526.888 16.2901 526.627 15.9988 526.627 15.4161V9.94212C526.627 9.42078 526.888 9.16011 527.409 9.16011H530.537C531.028 9.16011 531.273 9.40545 531.273 9.89612ZM531.273 26.2261V31.8381C531.273 32.3595 531.028 32.6201 530.537 32.6201H527.409C526.888 32.6201 526.627 32.3441 526.627 31.7921V26.2261C526.627 25.7355 526.888 25.4901 527.409 25.4901H530.537C531.028 25.4901 531.273 25.7355 531.273 26.2261ZM341.117 87.7101H345.119C347.358 87.7101 348.477 86.5755 348.477 84.3061V69.3561C348.477 67.0868 347.358 65.9521 345.119 65.9521H341.117C338.909 65.9521 337.805 67.0868 337.805 69.3561V84.3061C337.805 86.5755 338.909 87.7101 341.117 87.7101ZM345.809 91.6201H340.473C338.204 91.6201 336.441 90.9915 335.183 89.7341C333.957 88.4768 333.343 86.7288 333.343 84.4901V69.1721C333.343 66.9028 333.957 65.1548 335.183 63.9281C336.441 62.6708 338.204 62.0421 340.473 62.0421H345.809C348.079 62.0421 349.842 62.6708 351.099 63.9281C352.357 65.1548 352.985 66.9028 352.985 69.1721V84.4901C352.985 86.7288 352.357 88.4768 351.099 89.7341C349.842 90.9915 348.079 91.6201 345.809 91.6201ZM362.404 91.6201H359.506C358.985 91.6201 358.724 91.3595 358.724 90.8381V68.9421C358.724 68.4208 358.985 68.1601 359.506 68.1601H362.404C362.926 68.1601 363.186 68.4208 363.186 68.9421V70.5981H363.37C364.106 68.9728 365.655 68.1601 368.016 68.1601H370.04C372.279 68.1601 373.996 68.7734 375.192 70.0001C376.388 71.2268 376.986 72.9901 376.986 75.2901V90.8381C376.986 91.3595 376.71 91.6201 376.158 91.6201H373.26C372.739 91.6201 372.478 91.3595 372.478 90.8381V75.4741C372.478 73.2048 371.359 72.0701 369.12 72.0701H366.958C364.444 72.0701 363.186 73.3735 363.186 75.9801V90.8381C363.186 91.3595 362.926 91.6201 362.404 91.6201ZM402.005 91.6201H399.107C398.555 91.6201 398.279 91.3595 398.279 90.8381V66.4121C398.279 66.1054 398.125 65.9521 397.819 65.9521H392.023C391.471 65.9521 391.195 65.6914 391.195 65.1701V62.8241C391.195 62.3028 391.471 62.0421 392.023 62.0421H409.089C409.641 62.0421 409.917 62.3028 409.917 62.8241V65.1701C409.917 65.6914 409.641 65.9521 409.089 65.9521H403.293C402.955 65.9521 402.787 66.1054 402.787 66.4121V90.8381C402.787 91.3595 402.526 91.6201 402.005 91.6201ZM417.074 91.6201H414.176C413.655 91.6201 413.394 91.3595 413.394 90.8381V60.0641C413.394 59.5428 413.655 59.2821 414.176 59.2821H417.074C417.595 59.2821 417.856 59.5428 417.856 60.0641V70.5981H418.04C418.776 68.9728 420.325 68.1601 422.686 68.1601H424.71C426.949 68.1601 428.666 68.7734 429.862 70.0001C431.058 71.2268 431.656 72.9901 431.656 75.2901V90.8381C431.656 91.3595 431.38 91.6201 430.828 91.6201H427.93C427.409 91.6201 427.148 91.3595 427.148 90.8381V75.4741C427.148 73.2048 426.029 72.0701 423.79 72.0701H421.628C419.113 72.0701 417.856 73.3735 417.856 75.9801V90.8381C417.856 91.3595 417.595 91.6201 417.074 91.6201ZM453.764 91.6201H443.828C441.558 91.6201 439.795 90.9915 438.538 89.7341C437.311 88.4768 436.698 86.7288 436.698 84.4901V75.2901C436.698 73.0208 437.311 71.2728 438.538 70.0461C439.795 68.7888 441.558 68.1601 443.828 68.1601H447.6C449.869 68.1601 451.632 68.7888 452.89 70.0461C454.147 71.2728 454.776 73.0208 454.776 75.2901V81.1321C454.776 81.6841 454.5 81.9601 453.948 81.9601H441.62C441.282 81.9601 441.114 82.1135 441.114 82.4201V84.3981C441.114 86.6368 442.233 87.7561 444.472 87.7561H453.764C454.316 87.7561 454.592 88.0321 454.592 88.5841V90.8841C454.592 91.3748 454.316 91.6201 453.764 91.6201ZM441.62 78.8321H449.854C450.16 78.8321 450.314 78.6788 450.314 78.3721V75.4281C450.314 74.2628 450.053 73.4194 449.532 72.8981C449.01 72.3461 448.167 72.0701 447.002 72.0701H444.472C443.306 72.0701 442.463 72.3461 441.942 72.8981C441.42 73.4194 441.16 74.2628 441.16 75.4281V78.3721C441.16 78.6788 441.313 78.8321 441.62 78.8321Z" fill="white"/>
<path d="M131.712 32.6201H126.376C124.106 32.6201 122.343 31.9915 121.086 30.7341C119.859 29.4768 119.246 27.7288 119.246 25.4901V10.1721C119.246 7.90278 119.859 6.15478 121.086 4.92811C122.343 3.67078 124.106 3.04212 126.376 3.04212H131.712C133.95 3.04212 135.698 3.67078 136.956 4.92811C138.213 6.15478 138.842 7.90278 138.842 10.1721V12.3801C138.842 12.9321 138.566 13.2081 138.014 13.2081H135.116C134.594 13.2081 134.334 12.9321 134.334 12.3801V10.3561C134.334 8.08678 133.23 6.95212 131.022 6.95212H127.02C124.812 6.95212 123.708 8.08678 123.708 10.3561V25.3061C123.708 27.5755 124.812 28.7101 127.02 28.7101H131.022C133.23 28.7101 134.334 27.5755 134.334 25.3061V23.2821C134.334 22.7301 134.594 22.4541 135.116 22.4541H138.014C138.566 22.4541 138.842 22.7301 138.842 23.2821V25.4901C138.842 27.7288 138.213 29.4768 136.956 30.7341C135.698 31.9915 133.95 32.6201 131.712 32.6201ZM160.003 3.04212H162.901C163.453 3.04212 163.729 3.28745 163.729 3.77812V25.4901C163.729 27.7288 163.085 29.4768 161.797 30.7341C160.54 31.9915 158.792 32.6201 156.553 32.6201H151.447C149.209 32.6201 147.461 31.9915 146.203 30.7341C144.946 29.4768 144.317 27.7288 144.317 25.4901V3.82412C144.317 3.30278 144.578 3.04212 145.099 3.04212H147.997C148.519 3.04212 148.779 3.30278 148.779 3.82412V25.3061C148.779 27.5755 149.883 28.7101 152.091 28.7101H155.863C158.102 28.7101 159.221 27.5755 159.221 25.3061V3.82412C159.221 3.30278 159.482 3.04212 160.003 3.04212ZM175.121 28.8021H181.561C183.861 28.8021 185.011 27.6981 185.011 25.4901V22.6381C185.011 20.4301 183.8 19.3261 181.377 19.3261H175.121C174.784 19.3261 174.615 19.4795 174.615 19.7861V28.3421C174.615 28.6488 174.784 28.8021 175.121 28.8021ZM175.121 15.6461H181.101C183.432 15.6461 184.597 14.5268 184.597 12.2881V10.1721C184.597 7.96412 183.462 6.86012 181.193 6.86012H175.121C174.784 6.86012 174.615 7.01345 174.615 7.32012V15.1861C174.615 15.4928 174.784 15.6461 175.121 15.6461ZM170.153 31.8381V3.82412C170.153 3.30278 170.414 3.04212 170.935 3.04212H181.837C184.106 3.04212 185.87 3.65545 187.127 4.88212C188.384 6.10878 189.013 7.84145 189.013 10.0801V12.3341C189.013 15.0021 187.756 16.7195 185.241 17.4861C186.437 17.6395 187.418 18.1608 188.185 19.0501C188.982 19.9395 189.381 21.1355 189.381 22.6381V25.5821C189.381 27.8208 188.752 29.5535 187.495 30.7801C186.238 32.0068 184.49 32.6201 182.251 32.6201H170.935C170.414 32.6201 170.153 32.3595 170.153 31.8381ZM200.226 3.82412V31.8381C200.226 32.3595 199.965 32.6201 199.444 32.6201H196.546C196.024 32.6201 195.764 32.3595 195.764 31.8381V3.82412C195.764 3.30278 196.024 3.04212 196.546 3.04212H199.444C199.965 3.04212 200.226 3.30278 200.226 3.82412ZM209.055 32.6201H205.651C205.405 32.6201 205.221 32.5435 205.099 32.3901C205.007 32.2368 205.022 32.0375 205.145 31.7921L212.735 17.3021L205.467 3.87012C205.344 3.65545 205.329 3.47145 205.421 3.31812C205.543 3.13412 205.727 3.04212 205.973 3.04212H209.239C209.852 3.04212 210.281 3.30278 210.527 3.82412L215.817 14.4961H216.001L221.291 3.82412C221.567 3.30278 221.965 3.04212 222.487 3.04212H225.891C226.136 3.04212 226.305 3.13412 226.397 3.31812C226.519 3.50212 226.535 3.70145 226.443 3.91612L219.083 17.3021L226.673 31.7461C226.795 31.9915 226.811 32.2061 226.719 32.3901C226.627 32.5435 226.443 32.6201 226.167 32.6201H222.717C222.226 32.6201 221.873 32.3748 221.659 31.8841L216.001 20.6601H215.817L210.159 31.8841C209.944 32.3748 209.576 32.6201 209.055 32.6201ZM245.976 32.6201H243.124C242.603 32.6201 242.342 32.3595 242.342 31.8381V3.82412C242.342 3.30278 242.603 3.04212 243.124 3.04212H245.7C246.191 3.04212 246.528 3.21078 246.712 3.54812L257.844 23.5581H258.028V3.82412C258.028 3.30278 258.289 3.04212 258.81 3.04212H261.662C262.184 3.04212 262.444 3.30278 262.444 3.82412V31.8381C262.444 32.3595 262.184 32.6201 261.662 32.6201H259.178C258.688 32.6201 258.289 32.3748 257.982 31.8841L246.942 12.1041H246.758V31.8381C246.758 32.3595 246.498 32.6201 245.976 32.6201ZM272.841 32.6201H269.943C269.421 32.6201 269.161 32.3595 269.161 31.8381V3.82412C269.161 3.30278 269.421 3.04212 269.943 3.04212H284.387C284.908 3.04212 285.169 3.30278 285.169 3.82412V6.17011C285.169 6.69145 284.908 6.95212 284.387 6.95212H274.175C273.807 6.95212 273.623 7.10545 273.623 7.41212V16.1061C273.623 16.4434 273.807 16.6121 274.175 16.6121H283.053C283.605 16.6121 283.881 16.8728 283.881 17.3941V19.6941C283.881 20.2461 283.605 20.5221 283.053 20.5221H274.175C273.807 20.5221 273.623 20.6754 273.623 20.9821V31.8381C273.623 32.3595 273.362 32.6201 272.841 32.6201ZM298.145 32.6201H295.247C294.695 32.6201 294.419 32.3595 294.419 31.8381V7.41212C294.419 7.10545 294.266 6.95212 293.959 6.95212H288.163C287.611 6.95212 287.335 6.69145 287.335 6.17011V3.82412C287.335 3.30278 287.611 3.04212 288.163 3.04212H305.229C305.781 3.04212 306.057 3.30278 306.057 3.82412V6.17011C306.057 6.69145 305.781 6.95212 305.229 6.95212H299.433C299.096 6.95212 298.927 7.10545 298.927 7.41212V31.8381C298.927 32.3595 298.667 32.6201 298.145 32.6201ZM317.907 32.6201H309.443C308.921 32.6201 308.661 32.3595 308.661 31.8381V29.5841C308.661 29.0935 308.921 28.8481 309.443 28.8481H317.171C319.164 28.8481 320.161 28.1581 320.161 26.7781V26.2261C320.161 24.9995 319.44 24.0641 317.999 23.4201L312.985 21.0281C311.421 20.2921 310.286 19.4794 309.581 18.5901C308.875 17.7008 308.523 16.5354 308.523 15.0941C308.523 11.1381 310.715 9.16011 315.101 9.16011H322.737C323.227 9.16011 323.473 9.42078 323.473 9.94212V12.1961C323.473 12.7174 323.227 12.9781 322.737 12.9781H316.021C315.101 12.9781 314.395 13.1468 313.905 13.4841C313.414 13.7908 313.169 14.2048 313.169 14.7261V15.2321C313.169 16.2134 313.951 17.0721 315.515 17.8081L320.575 20.3841C322.169 21.0895 323.258 21.9328 323.841 22.9141C324.454 23.8648 324.761 25.1068 324.761 26.6401C324.761 30.6268 322.476 32.6201 317.907 32.6201ZM8.326 87.8021H14.766C17.066 87.8021 18.216 86.6981 18.216 84.4901V81.6381C18.216 79.4301 17.0047 78.3261 14.582 78.3261H8.326C7.98867 78.3261 7.82 78.4795 7.82 78.7861V87.3421C7.82 87.6488 7.98867 87.8021 8.326 87.8021ZM8.326 74.6461H14.306C16.6367 74.6461 17.802 73.5268 17.802 71.2881V69.1721C17.802 66.9641 16.6673 65.8601 14.398 65.8601H8.326C7.98867 65.8601 7.82 66.0135 7.82 66.3201V74.1861C7.82 74.4928 7.98867 74.6461 8.326 74.6461ZM3.358 90.8381V62.8241C3.358 62.3028 3.61867 62.0421 4.14 62.0421H15.042C17.3113 62.0421 19.0747 62.6554 20.332 63.8821C21.5893 65.1088 22.218 66.8414 22.218 69.0801V71.3341C22.218 74.0021 20.9607 75.7195 18.446 76.4861C19.642 76.6395 20.6233 77.1608 21.39 78.0501C22.1873 78.9395 22.586 80.1355 22.586 81.6381V84.5821C22.586 86.8208 21.9573 88.5535 20.7 89.7801C19.4427 91.0068 17.6947 91.6201 15.456 91.6201H4.14C3.61867 91.6201 3.358 91.3595 3.358 90.8381ZM36.9729 91.6201H34.9029C32.6949 91.6201 30.9929 91.0068 29.7969 89.7801C28.6315 88.5228 28.0489 86.7595 28.0489 84.4901V68.9421C28.0489 68.4208 28.3095 68.1601 28.8309 68.1601H31.7289C32.2502 68.1601 32.5109 68.4208 32.5109 68.9421V84.3061C32.5109 86.5755 33.6149 87.7101 35.8229 87.7101H38.0309C40.5455 87.7101 41.8029 86.4068 41.8029 83.8001V68.9421C41.8029 68.4208 42.0635 68.1601 42.5849 68.1601H45.4829C46.0349 68.1601 46.3109 68.4208 46.3109 68.9421V90.8381C46.3109 91.3595 46.0349 91.6201 45.4829 91.6201H42.5849C42.0635 91.6201 41.8029 91.3595 41.8029 90.8381V89.1821H41.6189C40.8829 90.8075 39.3342 91.6201 36.9729 91.6201ZM54.8025 99.0721H52.3645C51.8432 99.0721 51.5825 98.8115 51.5825 98.2901V95.9441C51.5825 95.3921 51.8432 95.1161 52.3645 95.1161H53.4225C55.2932 95.1161 56.5812 94.7481 57.2865 94.0121C58.0225 93.2761 58.6359 92.0648 59.1265 90.3781H57.2865C56.8265 90.3781 56.5045 90.1175 56.3205 89.5961L50.2025 68.9421C50.0799 68.4208 50.2792 68.1601 50.8005 68.1601H53.8825C54.3732 68.1601 54.6799 68.4208 54.8025 68.9421L59.8165 86.9741H60.0005L65.0145 68.9421C65.1065 68.4208 65.4132 68.1601 65.9345 68.1601H68.8785C69.4612 68.1601 69.7065 68.4361 69.6145 68.9881L63.3125 91.1141C62.6072 93.6901 61.6105 95.6528 60.3225 97.0021C59.0345 98.3821 57.1945 99.0721 54.8025 99.0721ZM77.5172 85.2261V88.8141C77.5172 89.5501 77.2259 90.4701 76.6432 91.5741L74.2052 96.0361C74.0825 96.3121 73.8525 96.4501 73.5152 96.4501C73.0859 96.4501 72.8712 96.2048 72.8712 95.7141V85.2261C72.8712 84.7355 73.1319 84.4901 73.6532 84.4901H76.7812C77.2719 84.4901 77.5172 84.7355 77.5172 85.2261ZM93.5482 84.4441V83.2481C93.5482 82.7268 93.8089 82.4661 94.3302 82.4661H97.2742C97.7955 82.4661 98.0562 82.7268 98.0562 83.2481V84.0761C98.0562 85.3641 98.3322 86.2995 98.8842 86.8821C99.4669 87.4341 100.418 87.7101 101.736 87.7101H104.91C106.229 87.7101 107.18 87.4188 107.762 86.8361C108.345 86.2228 108.636 85.2415 108.636 83.8921V82.8341C108.636 81.8528 108.253 81.0861 107.486 80.5341C106.75 79.9514 105.83 79.5834 104.726 79.4301C103.622 79.2461 102.411 79.0008 101.092 78.6941C99.7735 78.3874 98.5622 78.0348 97.4582 77.6361C96.3542 77.2375 95.4189 76.4861 94.6522 75.3821C93.9162 74.2781 93.5482 72.8674 93.5482 71.1501V69.2181C93.5482 66.9795 94.1769 65.2315 95.4342 63.9741C96.7222 62.6861 98.4855 62.0421 100.724 62.0421H105.6C107.87 62.0421 109.633 62.6861 110.89 63.9741C112.178 65.2315 112.822 66.9795 112.822 69.2181V70.2301C112.822 70.7514 112.562 71.0121 112.04 71.0121H109.096C108.575 71.0121 108.314 70.7514 108.314 70.2301V69.6321C108.314 68.3134 108.023 67.3781 107.44 66.8261C106.888 66.2434 105.953 65.9521 104.634 65.9521H101.736C100.418 65.9521 99.4669 66.2588 98.8842 66.8721C98.3322 67.4548 98.0562 68.4668 98.0562 69.9081V71.3341C98.0562 72.7141 99.0529 73.6494 101.046 74.1401C101.936 74.3548 102.902 74.5388 103.944 74.6921C105.018 74.8454 106.091 75.0755 107.164 75.3821C108.238 75.6888 109.219 76.1028 110.108 76.6241C110.998 77.1148 111.718 77.8815 112.27 78.9241C112.822 79.9361 113.098 81.1781 113.098 82.6501V84.4441C113.098 86.6828 112.454 88.4461 111.166 89.7341C109.909 90.9915 108.161 91.6201 105.922 91.6201H100.77C98.5315 91.6201 96.7682 90.9915 95.4802 89.7341C94.1922 88.4461 93.5482 86.6828 93.5482 84.4441ZM135.447 91.6201H125.511C123.242 91.6201 121.479 90.9915 120.221 89.7341C118.995 88.4768 118.381 86.7288 118.381 84.4901V75.2901C118.381 73.0208 118.995 71.2728 120.221 70.0461C121.479 68.7888 123.242 68.1601 125.511 68.1601H129.283C131.553 68.1601 133.316 68.7888 134.573 70.0461C135.831 71.2728 136.459 73.0208 136.459 75.2901V81.1321C136.459 81.6841 136.183 81.9601 135.631 81.9601H123.303C122.966 81.9601 122.797 82.1135 122.797 82.4201V84.3981C122.797 86.6368 123.917 87.7561 126.155 87.7561H135.447C135.999 87.7561 136.275 88.0321 136.275 88.5841V90.8841C136.275 91.3748 135.999 91.6201 135.447 91.6201ZM123.303 78.8321H131.537C131.844 78.8321 131.997 78.6788 131.997 78.3721V75.4281C131.997 74.2628 131.737 73.4194 131.215 72.8981C130.694 72.3461 129.851 72.0701 128.685 72.0701H126.155C124.99 72.0701 124.147 72.3461 123.625 72.8981C123.104 73.4194 122.843 74.2628 122.843 75.4281V78.3721C122.843 78.6788 122.997 78.8321 123.303 78.8321ZM145.437 91.6201H142.539C142.018 91.6201 141.757 91.3595 141.757 90.8381V60.0641C141.757 59.5428 142.018 59.2821 142.539 59.2821H145.437C145.958 59.2821 146.219 59.5428 146.219 60.0641V90.8381C146.219 91.3595 145.958 91.6201 145.437 91.6201ZM156.173 91.6201H153.275C152.754 91.6201 152.493 91.3595 152.493 90.8381V60.0641C152.493 59.5428 152.754 59.2821 153.275 59.2821H156.173C156.695 59.2821 156.955 59.5428 156.955 60.0641V90.8381C156.955 91.3595 156.695 91.6201 156.173 91.6201ZM167.002 85.2261V88.8141C167.002 89.5501 166.71 90.4701 166.128 91.5741L163.69 96.0361C163.567 96.3121 163.337 96.4501 163 96.4501C162.57 96.4501 162.356 96.2048 162.356 95.7141V85.2261C162.356 84.7355 162.616 84.4901 163.138 84.4901H166.266C166.756 84.4901 167.002 84.7355 167.002 85.2261ZM190.899 87.7101H194.901C197.139 87.7101 198.259 86.5755 198.259 84.3061V69.3561C198.259 67.0868 197.139 65.9521 194.901 65.9521H190.899C188.691 65.9521 187.587 67.0868 187.587 69.3561V84.3061C187.587 86.5755 188.691 87.7101 190.899 87.7101ZM195.591 91.6201H190.255C187.985 91.6201 186.222 90.9915 184.965 89.7341C183.738 88.4768 183.125 86.7288 183.125 84.4901V69.1721C183.125 66.9028 183.738 65.1548 184.965 63.9281C186.222 62.6708 187.985 62.0421 190.255 62.0421H195.591C197.86 62.0421 199.623 62.6708 200.881 63.9281C202.138 65.1548 202.767 66.9028 202.767 69.1721V84.4901C202.767 86.7288 202.138 88.4768 200.881 89.7341C199.623 90.9915 197.86 91.6201 195.591 91.6201ZM212.185 91.6201H209.287C208.766 91.6201 208.505 91.3595 208.505 90.8381V68.9421C208.505 68.4208 208.766 68.1601 209.287 68.1601H212.185C212.707 68.1601 212.967 68.4208 212.967 68.9421V70.6901H213.151C213.458 69.9234 214.041 69.3101 214.899 68.8501C215.789 68.3901 216.77 68.1601 217.843 68.1601H219.545C220.067 68.1601 220.327 68.4208 220.327 68.9421V71.3341C220.327 71.9168 220.067 72.1621 219.545 72.0701H216.785C214.24 72.0701 212.967 73.4654 212.967 76.2561V90.8381C212.967 91.3595 212.707 91.6201 212.185 91.6201ZM239.015 91.6201H236.117C235.595 91.6201 235.335 91.3595 235.335 90.8381V62.8241C235.335 62.3028 235.595 62.0421 236.117 62.0421H246.881C249.119 62.0421 250.867 62.6861 252.125 63.9741C253.413 65.2315 254.057 66.9795 254.057 69.2181V73.0821C254.057 76.6088 252.6 78.8321 249.687 79.7521V79.9361L254.793 90.7001C255.13 91.3135 254.931 91.6201 254.195 91.6201H251.343C250.607 91.6201 250.131 91.3595 249.917 90.8381L244.995 80.2581H240.349C239.981 80.2581 239.797 80.4114 239.797 80.7181V90.8381C239.797 91.3595 239.536 91.6201 239.015 91.6201ZM240.303 76.5781H246.145C248.414 76.5781 249.549 75.4588 249.549 73.2201V69.3561C249.549 67.0868 248.414 65.9521 246.145 65.9521H240.303C239.965 65.9521 239.797 66.1054 239.797 66.4121V76.1181C239.797 76.4248 239.965 76.5781 240.303 76.5781ZM276.412 91.6201H266.476C264.207 91.6201 262.444 90.9915 261.186 89.7341C259.96 88.4768 259.346 86.7288 259.346 84.4901V75.2901C259.346 73.0208 259.96 71.2728 261.186 70.0461C262.444 68.7888 264.207 68.1601 266.476 68.1601H270.248C272.518 68.1601 274.281 68.7888 275.538 70.0461C276.796 71.2728 277.424 73.0208 277.424 75.2901V81.1321C277.424 81.6841 277.148 81.9601 276.596 81.9601H264.268C263.931 81.9601 263.762 82.1135 263.762 82.4201V84.3981C263.762 86.6368 264.882 87.7561 267.12 87.7561H276.412C276.964 87.7561 277.24 88.0321 277.24 88.5841V90.8841C277.24 91.3748 276.964 91.6201 276.412 91.6201ZM264.268 78.8321H272.502C272.809 78.8321 272.962 78.6788 272.962 78.3721V75.4281C272.962 74.2628 272.702 73.4194 272.18 72.8981C271.659 72.3461 270.816 72.0701 269.65 72.0701H267.12C265.955 72.0701 265.112 72.3461 264.59 72.8981C264.069 73.4194 263.808 74.2628 263.808 75.4281V78.3721C263.808 78.6788 263.962 78.8321 264.268 78.8321ZM286.172 91.6201H283.274C282.752 91.6201 282.492 91.3595 282.492 90.8381V68.9421C282.492 68.4208 282.752 68.1601 283.274 68.1601H286.172C286.693 68.1601 286.954 68.4208 286.954 68.9421V70.5981H287.138C287.874 68.9728 289.422 68.1601 291.784 68.1601H293.808C296.046 68.1601 297.764 68.7734 298.96 70.0001C300.156 71.2268 300.754 72.9901 300.754 75.2901V90.8381C300.754 91.3595 300.478 91.6201 299.926 91.6201H297.028C296.506 91.6201 296.246 91.3595 296.246 90.8381V75.4741C296.246 73.2048 295.126 72.0701 292.888 72.0701H290.726C288.211 72.0701 286.954 73.3735 286.954 75.9801V90.8381C286.954 91.3595 286.693 91.6201 286.172 91.6201ZM306.945 72.0701H304.737C304.431 72.0701 304.216 72.0241 304.093 71.9321C304.001 71.8094 303.955 71.6101 303.955 71.3341V68.9421C303.955 68.4208 304.216 68.1601 304.737 68.1601H306.945C307.252 68.1601 307.405 68.0068 307.405 67.7001V63.5601C307.405 63.0388 307.681 62.7781 308.233 62.7781H311.131C311.653 62.7781 311.913 63.0388 311.913 63.5601V67.7001C311.913 68.0068 312.082 68.1601 312.419 68.1601H316.697C317.249 68.1601 317.525 68.4208 317.525 68.9421V71.3341C317.525 71.8248 317.249 72.0701 316.697 72.0701H312.419C312.082 72.0701 311.913 72.2234 311.913 72.5301V84.3521C311.913 86.5908 313.063 87.7101 315.363 87.7101H317.157C317.709 87.7101 317.985 87.9708 317.985 88.4921V90.8841C317.985 91.3748 317.709 91.6201 317.157 91.6201H314.673C312.404 91.6201 310.625 91.0068 309.337 89.7801C308.049 88.5535 307.405 86.8208 307.405 84.5821V72.5301C307.405 72.2234 307.252 72.0701 306.945 72.0701ZM15.364 150.62H10.028C7.75867 150.62 5.99533 149.991 4.738 148.734C3.51133 147.477 2.898 145.729 2.898 143.49V128.172C2.898 125.903 3.51133 124.155 4.738 122.928C5.99533 121.671 7.75867 121.042 10.028 121.042H15.364C17.6027 121.042 19.3507 121.671 20.608 122.928C21.8653 124.155 22.494 125.903 22.494 128.172V130.38C22.494 130.932 22.218 131.208 21.666 131.208H18.768C18.2467 131.208 17.986 130.932 17.986 130.38V128.356C17.986 126.087 16.882 124.952 14.674 124.952H10.672C8.464 124.952 7.36 126.087 7.36 128.356V143.306C7.36 145.575 8.464 146.71 10.672 146.71H14.674C16.882 146.71 17.986 145.575 17.986 143.306V141.282C17.986 140.73 18.2467 140.454 18.768 140.454H21.666C22.218 140.454 22.494 140.73 22.494 141.282V143.49C22.494 145.729 21.8653 147.477 20.608 148.734C19.3507 149.991 17.6027 150.62 15.364 150.62ZM43.6558 121.042H46.5538C47.1058 121.042 47.3818 121.287 47.3818 121.778V143.49C47.3818 145.729 46.7378 147.477 45.4498 148.734C44.1925 149.991 42.4445 150.62 40.2058 150.62H35.0998C32.8611 150.62 31.1131 149.991 29.8558 148.734C28.5985 147.477 27.9698 145.729 27.9698 143.49V121.824C27.9698 121.303 28.2305 121.042 28.7518 121.042H31.6498C32.1711 121.042 32.4318 121.303 32.4318 121.824V143.306C32.4318 145.575 33.5358 146.71 35.7438 146.71H39.5158C41.7545 146.71 42.8738 145.575 42.8738 143.306V121.824C42.8738 121.303 43.1345 121.042 43.6558 121.042ZM58.7733 146.802H65.2133C67.5133 146.802 68.6633 145.698 68.6633 143.49V140.638C68.6633 138.43 67.4519 137.326 65.0293 137.326H58.7733C58.4359 137.326 58.2673 137.479 58.2673 137.786V146.342C58.2673 146.649 58.4359 146.802 58.7733 146.802ZM58.7733 133.646H64.7533C67.0839 133.646 68.2493 132.527 68.2493 130.288V128.172C68.2493 125.964 67.1146 124.86 64.8453 124.86H58.7733C58.4359 124.86 58.2673 125.013 58.2673 125.32V133.186C58.2673 133.493 58.4359 133.646 58.7733 133.646ZM53.8053 149.838V121.824C53.8053 121.303 54.0659 121.042 54.5873 121.042H65.4893C67.7586 121.042 69.5219 121.655 70.7793 122.882C72.0366 124.109 72.6653 125.841 72.6653 128.08V130.334C72.6653 133.002 71.4079 134.719 68.8933 135.486C70.0893 135.639 71.0706 136.161 71.8373 137.05C72.6346 137.939 73.0333 139.135 73.0333 140.638V143.582C73.0333 145.821 72.4046 147.553 71.1473 148.78C69.8899 150.007 68.1419 150.62 65.9033 150.62H54.5873C54.0659 150.62 53.8053 150.359 53.8053 149.838ZM83.8781 121.824V149.838C83.8781 150.359 83.6175 150.62 83.0961 150.62H80.1981C79.6768 150.62 79.4161 150.359 79.4161 149.838V121.824C79.4161 121.303 79.6768 121.042 80.1981 121.042H83.0961C83.6175 121.042 83.8781 121.303 83.8781 121.824ZM92.7069 150.62H89.3029C89.0576 150.62 88.8736 150.543 88.7509 150.39C88.6589 150.237 88.6742 150.037 88.7969 149.792L96.3869 135.302L89.1189 121.87C88.9962 121.655 88.9809 121.471 89.0729 121.318C89.1956 121.134 89.3796 121.042 89.6249 121.042H92.8909C93.5042 121.042 93.9336 121.303 94.1789 121.824L99.4689 132.496H99.6529L104.943 121.824C105.219 121.303 105.618 121.042 106.139 121.042H109.543C109.788 121.042 109.957 121.134 110.049 121.318C110.172 121.502 110.187 121.701 110.095 121.916L102.735 135.302L110.325 149.746C110.448 149.991 110.463 150.206 110.371 150.39C110.279 150.543 110.095 150.62 109.819 150.62H106.369C105.878 150.62 105.526 150.375 105.311 149.884L99.6529 138.66H99.4689L93.8109 149.884C93.5962 150.375 93.2282 150.62 92.7069 150.62ZM146.235 121.042H151.387C151.908 121.042 152.169 121.303 152.169 121.824V149.838C152.169 150.359 151.908 150.62 151.387 150.62H148.535C148.013 150.62 147.753 150.359 147.753 149.838V126.608H147.569L141.589 143.444C141.405 143.935 141.067 144.18 140.577 144.18H137.633C137.173 144.18 136.851 143.935 136.667 143.444L130.549 126.562H130.365V149.838C130.365 150.145 130.303 150.359 130.181 150.482C130.089 150.574 129.889 150.62 129.583 150.62H126.777C126.255 150.62 125.995 150.359 125.995 149.838V121.824C125.995 121.303 126.255 121.042 126.777 121.042H131.929C132.266 121.042 132.511 121.211 132.665 121.548L138.967 139.304H139.197L145.545 121.548C145.606 121.211 145.836 121.042 146.235 121.042ZM166.882 150.62H165.088C162.818 150.62 161.055 149.991 159.798 148.734C158.571 147.477 157.958 145.729 157.958 143.49V134.29C157.958 132.021 158.571 130.273 159.798 129.046C161.055 127.789 162.818 127.16 165.088 127.16H175.392C175.944 127.16 176.22 127.421 176.22 127.942V149.838C176.22 150.359 175.944 150.62 175.392 150.62H172.494C171.972 150.62 171.712 150.359 171.712 149.838V148.182H171.528C170.792 149.807 169.243 150.62 166.882 150.62ZM171.712 142.8V131.53C171.712 131.223 171.543 131.07 171.206 131.07H165.732C163.524 131.07 162.42 132.205 162.42 134.474V143.306C162.42 145.575 163.524 146.71 165.732 146.71H167.94C170.454 146.71 171.712 145.407 171.712 142.8ZM185.637 150.62H182.739C182.217 150.62 181.957 150.359 181.957 149.838V127.942C181.957 127.421 182.217 127.16 182.739 127.16H185.637C186.158 127.16 186.419 127.421 186.419 127.942V129.69H186.603C186.909 128.923 187.492 128.31 188.351 127.85C189.24 127.39 190.221 127.16 191.295 127.16H192.997C193.518 127.16 193.779 127.421 193.779 127.942V130.334C193.779 130.917 193.518 131.162 192.997 131.07H190.237C187.691 131.07 186.419 132.465 186.419 135.256V149.838C186.419 150.359 186.158 150.62 185.637 150.62ZM210.705 127.16H214.017C214.293 127.16 214.477 127.252 214.569 127.436C214.691 127.589 214.661 127.804 214.477 128.08L207.991 138.384V138.568L214.983 149.7C215.136 149.945 215.151 150.16 215.029 150.344C214.937 150.528 214.722 150.62 214.385 150.62H211.395C210.689 150.62 210.168 150.359 209.831 149.838L203.345 139.212C203.13 138.813 203.13 138.399 203.345 137.97L209.371 127.896C209.647 127.405 210.091 127.16 210.705 127.16ZM201.045 150.62H198.147C197.625 150.62 197.365 150.359 197.365 149.838V119.064C197.365 118.543 197.625 118.282 198.147 118.282H201.045C201.566 118.282 201.827 118.543 201.827 119.064V149.838C201.827 150.359 201.566 150.62 201.045 150.62ZM234.949 150.62H225.013C222.744 150.62 220.981 149.991 219.723 148.734C218.497 147.477 217.883 145.729 217.883 143.49V134.29C217.883 132.021 218.497 130.273 219.723 129.046C220.981 127.789 222.744 127.16 225.013 127.16H228.785C231.055 127.16 232.818 127.789 234.075 129.046C235.333 130.273 235.961 132.021 235.961 134.29V140.132C235.961 140.684 235.685 140.96 235.133 140.96H222.805C222.468 140.96 222.299 141.113 222.299 141.42V143.398C222.299 145.637 223.419 146.756 225.657 146.756H234.949C235.501 146.756 235.777 147.032 235.777 147.584V149.884C235.777 150.375 235.501 150.62 234.949 150.62ZM222.805 137.832H231.039C231.346 137.832 231.499 137.679 231.499 137.372V134.428C231.499 133.263 231.239 132.419 230.717 131.898C230.196 131.346 229.353 131.07 228.187 131.07H225.657C224.492 131.07 223.649 131.346 223.127 131.898C222.606 132.419 222.345 133.263 222.345 134.428V137.372C222.345 137.679 222.499 137.832 222.805 137.832ZM241.719 131.07H239.511C239.204 131.07 238.99 131.024 238.867 130.932C238.775 130.809 238.729 130.61 238.729 130.334V127.942C238.729 127.421 238.99 127.16 239.511 127.16H241.719C242.026 127.16 242.179 127.007 242.179 126.7V122.56C242.179 122.039 242.455 121.778 243.007 121.778H245.905C246.426 121.778 246.687 122.039 246.687 122.56V126.7C246.687 127.007 246.856 127.16 247.193 127.16H251.471C252.023 127.16 252.299 127.421 252.299 127.942V130.334C252.299 130.825 252.023 131.07 251.471 131.07H247.193C246.856 131.07 246.687 131.223 246.687 131.53V143.352C246.687 145.591 247.837 146.71 250.137 146.71H251.931C252.483 146.71 252.759 146.971 252.759 147.492V149.884C252.759 150.375 252.483 150.62 251.931 150.62H249.447C247.178 150.62 245.399 150.007 244.111 148.78C242.823 147.553 242.179 145.821 242.179 143.582V131.53C242.179 131.223 242.026 131.07 241.719 131.07ZM260.836 157.106H257.938C257.416 157.106 257.156 156.845 257.156 156.324V127.942C257.156 127.421 257.416 127.16 257.938 127.16H260.836C261.357 127.16 261.618 127.421 261.618 127.942V129.598H261.802C262.538 127.973 264.086 127.16 266.448 127.16H268.794C271.002 127.16 272.688 127.773 273.854 129C275.05 130.227 275.648 131.99 275.648 134.29V143.49C275.648 145.759 275.05 147.523 273.854 148.78C272.688 150.007 271.002 150.62 268.794 150.62H266.448C264.086 150.62 262.538 149.807 261.802 148.182H261.618V156.324C261.618 156.845 261.357 157.106 260.836 157.106ZM265.39 146.71H267.828C270.036 146.71 271.14 145.575 271.14 143.306V134.474C271.14 132.205 270.036 131.07 267.828 131.07H265.39C262.875 131.07 261.618 132.373 261.618 134.98V142.8C261.618 145.407 262.875 146.71 265.39 146.71ZM284.874 150.62H281.976C281.455 150.62 281.194 150.359 281.194 149.838V119.064C281.194 118.543 281.455 118.282 281.976 118.282H284.874C285.396 118.282 285.656 118.543 285.656 119.064V149.838C285.656 150.359 285.396 150.62 284.874 150.62ZM300.165 150.62H298.371C296.101 150.62 294.338 149.991 293.081 148.734C291.854 147.477 291.241 145.729 291.241 143.49V134.29C291.241 132.021 291.854 130.273 293.081 129.046C294.338 127.789 296.101 127.16 298.371 127.16H308.675C309.227 127.16 309.503 127.421 309.503 127.942V149.838C309.503 150.359 309.227 150.62 308.675 150.62H305.777C305.255 150.62 304.995 150.359 304.995 149.838V148.182H304.811C304.075 149.807 302.526 150.62 300.165 150.62ZM304.995 142.8V131.53C304.995 131.223 304.826 131.07 304.489 131.07H299.015C296.807 131.07 295.703 132.205 295.703 134.474V143.306C295.703 145.575 296.807 146.71 299.015 146.71H301.223C303.737 146.71 304.995 145.407 304.995 142.8ZM329.5 147.492V149.884C329.5 150.375 329.224 150.62 328.672 150.62H321.91C319.64 150.62 317.877 149.991 316.62 148.734C315.393 147.477 314.78 145.729 314.78 143.49V134.29C314.78 132.021 315.393 130.273 316.62 129.046C317.877 127.789 319.64 127.16 321.91 127.16H328.672C329.224 127.16 329.5 127.421 329.5 127.942V130.334C329.5 130.825 329.224 131.07 328.672 131.07H322.554C320.346 131.07 319.242 132.205 319.242 134.474V143.306C319.242 145.575 320.346 146.71 322.554 146.71H328.672C329.224 146.71 329.5 146.971 329.5 147.492ZM350.488 150.62H340.552C338.283 150.62 336.52 149.991 335.262 148.734C334.036 147.477 333.422 145.729 333.422 143.49V134.29C333.422 132.021 334.036 130.273 335.262 129.046C336.52 127.789 338.283 127.16 340.552 127.16H344.324C346.594 127.16 348.357 127.789 349.614 129.046C350.872 130.273 351.5 132.021 351.5 134.29V140.132C351.5 140.684 351.224 140.96 350.672 140.96H338.344C338.007 140.96 337.838 141.113 337.838 141.42V143.398C337.838 145.637 338.958 146.756 341.196 146.756H350.488C351.04 146.756 351.316 147.032 351.316 147.584V149.884C351.316 150.375 351.04 150.62 350.488 150.62ZM338.344 137.832H346.578C346.885 137.832 347.038 137.679 347.038 137.372V134.428C347.038 133.263 346.778 132.419 346.256 131.898C345.735 131.346 344.892 131.07 343.726 131.07H341.196C340.031 131.07 339.188 131.346 338.666 131.898C338.145 132.419 337.884 133.263 337.884 134.428V137.372C337.884 137.679 338.038 137.832 338.344 137.832Z" fill="url(#paint0_linear_28_581)"/>
<defs>
<linearGradient id="paint0_linear_28_581" x1="573" y1="38.3284" x2="138.494" y2="106.183" gradientUnits="userSpaceOnUse">
<stop stop-color="#6FEEFF"/>
<stop offset="0.494792" stop-color="#4BB3ED"/>
<stop offset="1" stop-color="#00FF94"/>
</linearGradient>
</defs>
</svg>
