<svg width="408" height="119" viewBox="0 0 408 119" fill="none" xmlns="http://www.w3.org/2000/svg">
<path d="M21.54 4.46004H25.32C26.04 4.46004 26.4 4.78004 26.4 5.42004V33.74C26.4 36.66 25.56 38.94 23.88 40.58C22.24 42.22 19.96 43.04 17.04 43.04H10.38C7.46 43.04 5.18 42.22 3.54 40.58C1.9 38.94 1.08 36.66 1.08 33.74V5.48004C1.08 4.80004 1.42 4.46004 2.1 4.46004H5.88C6.56 4.46004 6.9 4.80004 6.9 5.48004V33.5C6.9 36.46 8.34 37.94 11.22 37.94H16.14C19.06 37.94 20.52 36.46 20.52 33.5V5.48004C20.52 4.80004 20.86 4.46004 21.54 4.46004ZM38.9784 43.04H35.1984C34.5184 43.04 34.1784 42.7 34.1784 42.02V13.46C34.1784 12.78 34.5184 12.44 35.1984 12.44H38.9784C39.6584 12.44 39.9984 12.78 39.9984 13.46V15.62H40.2384C41.1984 13.5 43.2184 12.44 46.2984 12.44H48.9384C51.8584 12.44 54.0984 13.24 55.6584 14.84C57.2184 16.44 57.9984 18.74 57.9984 21.74V42.02C57.9984 42.7 57.6384 43.04 56.9184 43.04H53.1384C52.4584 43.04 52.1184 42.7 52.1184 42.02V21.98C52.1184 19.02 50.6584 17.54 47.7384 17.54H44.9184C41.6384 17.54 39.9984 19.24 39.9984 22.64V42.02C39.9984 42.7 39.6584 43.04 38.9784 43.04ZM70.2745 43.04H66.4945C65.8145 43.04 65.4745 42.7 65.4745 42.02V1.88004C65.4745 1.20004 65.8145 0.860039 66.4945 0.860039H70.2745C70.9545 0.860039 71.2945 1.20004 71.2945 1.88004V42.02C71.2945 42.7 70.9545 43.04 70.2745 43.04ZM100.838 43.04H87.8784C84.9184 43.04 82.6184 42.22 80.9784 40.58C79.3784 38.94 78.5784 36.66 78.5784 33.74V21.74C78.5784 18.78 79.3784 16.5 80.9784 14.9C82.6184 13.26 84.9184 12.44 87.8784 12.44H92.7984C95.7584 12.44 98.0584 13.26 99.6984 14.9C101.338 16.5 102.158 18.78 102.158 21.74V29.36C102.158 30.08 101.798 30.44 101.078 30.44H84.9984C84.5584 30.44 84.3384 30.64 84.3384 31.04V33.62C84.3384 36.54 85.7984 38 88.7184 38H100.838C101.558 38 101.918 38.36 101.918 39.08V42.08C101.918 42.72 101.558 43.04 100.838 43.04ZM84.9984 26.36H95.7384C96.1384 26.36 96.3384 26.16 96.3384 25.76V21.92C96.3384 20.4 95.9984 19.3 95.3184 18.62C94.6384 17.9 93.5384 17.54 92.0184 17.54H88.7184C87.1984 17.54 86.0984 17.9 85.4184 18.62C84.7384 19.3 84.3984 20.4 84.3984 21.92V25.76C84.3984 26.16 84.5984 26.36 84.9984 26.36ZM119.808 43.04H117.468C114.508 43.04 112.208 42.22 110.568 40.58C108.968 38.94 108.168 36.66 108.168 33.74V21.74C108.168 18.78 108.968 16.5 110.568 14.9C112.208 13.26 114.508 12.44 117.468 12.44H130.908C131.628 12.44 131.988 12.78 131.988 13.46V42.02C131.988 42.7 131.628 43.04 130.908 43.04H127.128C126.448 43.04 126.108 42.7 126.108 42.02V39.86H125.868C124.908 41.98 122.888 43.04 119.808 43.04ZM126.108 32.84V18.14C126.108 17.74 125.888 17.54 125.448 17.54H118.308C115.428 17.54 113.988 19.02 113.988 21.98V33.5C113.988 36.46 115.428 37.94 118.308 37.94H121.188C124.468 37.94 126.108 36.24 126.108 32.84ZM150.391 43.04H139.351C138.671 43.04 138.331 42.7 138.331 42.02V39.08C138.331 38.44 138.671 38.12 139.351 38.12H149.431C152.031 38.12 153.331 37.22 153.331 35.42V34.7C153.331 33.1 152.391 31.88 150.511 31.04L143.971 27.92C141.931 26.96 140.451 25.9 139.531 24.74C138.611 23.58 138.151 22.06 138.151 20.18C138.151 15.02 141.011 12.44 146.731 12.44H156.691C157.331 12.44 157.651 12.78 157.651 13.46V16.4C157.651 17.08 157.331 17.42 156.691 17.42H147.931C146.731 17.42 145.811 17.64 145.171 18.08C144.531 18.48 144.211 19.02 144.211 19.7V20.36C144.211 21.64 145.231 22.76 147.271 23.72L153.871 27.08C155.951 28 157.371 29.1 158.131 30.38C158.931 31.62 159.331 33.24 159.331 35.24C159.331 40.44 156.351 43.04 150.391 43.04ZM170.346 43.04H166.566C165.886 43.04 165.546 42.7 165.546 42.02V1.88004C165.546 1.20004 165.886 0.860039 166.566 0.860039H170.346C171.026 0.860039 171.366 1.20004 171.366 1.88004V15.62H171.606C172.566 13.5 174.586 12.44 177.666 12.44H180.306C183.226 12.44 185.466 13.24 187.026 14.84C188.586 16.44 189.366 18.74 189.366 21.74V42.02C189.366 42.7 189.006 43.04 188.286 43.04H184.506C183.826 43.04 183.486 42.7 183.486 42.02V21.98C183.486 19.02 182.026 17.54 179.106 17.54H176.286C173.006 17.54 171.366 19.24 171.366 22.64V42.02C171.366 42.7 171.026 43.04 170.346 43.04ZM221.999 43.04H218.219C217.499 43.04 217.139 42.7 217.139 42.02V10.16C217.139 9.76004 216.939 9.56004 216.539 9.56004H208.979C208.259 9.56004 207.899 9.22004 207.899 8.54004V5.48004C207.899 4.80004 208.259 4.46004 208.979 4.46004H231.239C231.959 4.46004 232.319 4.80004 232.319 5.48004V8.54004C232.319 9.22004 231.959 9.56004 231.239 9.56004H223.679C223.239 9.56004 223.019 9.76004 223.019 10.16V42.02C223.019 42.7 222.679 43.04 221.999 43.04ZM241.654 43.04H237.874C237.194 43.04 236.854 42.7 236.854 42.02V1.88004C236.854 1.20004 237.194 0.860039 237.874 0.860039H241.654C242.334 0.860039 242.674 1.20004 242.674 1.88004V15.62H242.914C243.874 13.5 245.894 12.44 248.974 12.44H251.614C254.534 12.44 256.774 13.24 258.334 14.84C259.894 16.44 260.674 18.74 260.674 21.74V42.02C260.674 42.7 260.314 43.04 259.594 43.04H255.814C255.134 43.04 254.794 42.7 254.794 42.02V21.98C254.794 19.02 253.334 17.54 250.414 17.54H247.594C244.314 17.54 242.674 19.24 242.674 22.64V42.02C242.674 42.7 242.334 43.04 241.654 43.04ZM289.51 43.04H276.55C273.59 43.04 271.29 42.22 269.65 40.58C268.05 38.94 267.25 36.66 267.25 33.74V21.74C267.25 18.78 268.05 16.5 269.65 14.9C271.29 13.26 273.59 12.44 276.55 12.44H281.47C284.43 12.44 286.73 13.26 288.37 14.9C290.01 16.5 290.83 18.78 290.83 21.74V29.36C290.83 30.08 290.47 30.44 289.75 30.44H273.67C273.23 30.44 273.01 30.64 273.01 31.04V33.62C273.01 36.54 274.47 38 277.39 38H289.51C290.23 38 290.59 38.36 290.59 39.08V42.08C290.59 42.72 290.23 43.04 289.51 43.04ZM273.67 26.36H284.41C284.81 26.36 285.01 26.16 285.01 25.76V21.92C285.01 20.4 284.67 19.3 283.99 18.62C283.31 17.9 282.21 17.54 280.69 17.54H277.39C275.87 17.54 274.77 17.9 274.09 18.62C273.41 19.3 273.07 20.4 273.07 21.92V25.76C273.07 26.16 273.27 26.36 273.67 26.36ZM269.414 72.48V109.02C269.414 109.7 269.074 110.04 268.394 110.04H264.614C263.934 110.04 263.594 109.7 263.594 109.02V72.48C263.594 71.8 263.934 71.46 264.614 71.46H268.394C269.074 71.46 269.414 71.8 269.414 72.48ZM282.67 110.04H278.89C278.21 110.04 277.87 109.7 277.87 109.02V80.46C277.87 79.78 278.21 79.44 278.89 79.44H282.67C283.35 79.44 283.69 79.78 283.69 80.46V82.62H283.93C284.89 80.5 286.91 79.44 289.99 79.44H292.63C295.55 79.44 297.79 80.24 299.35 81.84C300.91 83.44 301.69 85.74 301.69 88.74V109.02C301.69 109.7 301.33 110.04 300.61 110.04H296.83C296.15 110.04 295.81 109.7 295.81 109.02V88.98C295.81 86.02 294.35 84.54 291.43 84.54H288.61C285.33 84.54 283.69 86.24 283.69 89.64V109.02C283.69 109.7 283.35 110.04 282.67 110.04ZM336.543 110.04H332.703C332.023 110.04 331.683 109.7 331.683 109.02V95.76L320.463 72.54C320.303 72.22 320.303 71.96 320.463 71.76C320.623 71.56 320.843 71.46 321.123 71.46H325.923C326.443 71.46 326.843 71.8 327.123 72.48L334.503 88.98H334.863L342.123 72.48C342.363 71.8 342.763 71.46 343.323 71.46H348.123C348.443 71.46 348.663 71.56 348.783 71.76C348.943 71.96 348.943 72.22 348.783 72.54L337.563 95.76V109.02C337.563 109.7 337.223 110.04 336.543 110.04ZM367.612 110.04H362.332C359.372 110.04 357.072 109.22 355.432 107.58C353.832 105.94 353.032 103.66 353.032 100.74V88.74C353.032 85.78 353.832 83.5 355.432 81.9C357.072 80.26 359.372 79.44 362.332 79.44H367.612C370.532 79.44 372.812 80.26 374.452 81.9C376.132 83.5 376.972 85.78 376.972 88.74V100.74C376.972 103.66 376.132 105.94 374.452 107.58C372.812 109.22 370.532 110.04 367.612 110.04ZM363.172 104.94H366.832C369.712 104.94 371.152 103.48 371.152 100.56V88.92C371.152 86 369.712 84.54 366.832 84.54H363.172C361.652 84.54 360.552 84.9 359.872 85.62C359.192 86.3 358.852 87.4 358.852 88.92V100.56C358.852 102.08 359.192 103.2 359.872 103.92C360.552 104.6 361.652 104.94 363.172 104.94ZM395.206 110.04H392.506C389.626 110.04 387.406 109.24 385.846 107.64C384.326 106 383.566 103.7 383.566 100.74V80.46C383.566 79.78 383.906 79.44 384.586 79.44H388.366C389.046 79.44 389.386 79.78 389.386 80.46V100.5C389.386 103.46 390.826 104.94 393.706 104.94H396.586C399.866 104.94 401.506 103.24 401.506 99.84V80.46C401.506 79.78 401.846 79.44 402.526 79.44H406.306C407.026 79.44 407.386 79.78 407.386 80.46V109.02C407.386 109.7 407.026 110.04 406.306 110.04H402.526C401.846 110.04 401.506 109.7 401.506 109.02V106.86H401.266C400.306 108.98 398.286 110.04 395.206 110.04Z" fill="white"/>
<path d="M17.04 110.04H10.08C7.12 110.04 4.82 109.22 3.18 107.58C1.58 105.94 0.78 103.66 0.78 100.74V80.76C0.78 77.8 1.58 75.52 3.18 73.92C4.82 72.28 7.12 71.46 10.08 71.46H17.04C19.96 71.46 22.24 72.28 23.88 73.92C25.52 75.52 26.34 77.8 26.34 80.76V83.64C26.34 84.36 25.98 84.72 25.26 84.72H21.48C20.8 84.72 20.46 84.36 20.46 83.64V81C20.46 78.04 19.02 76.56 16.14 76.56H10.92C8.04 76.56 6.6 78.04 6.6 81V100.5C6.6 103.46 8.04 104.94 10.92 104.94H16.14C19.02 104.94 20.46 103.46 20.46 100.5V97.86C20.46 97.14 20.8 96.78 21.48 96.78H25.26C25.98 96.78 26.34 97.14 26.34 97.86V100.74C26.34 103.66 25.52 105.94 23.88 107.58C22.24 109.22 19.96 110.04 17.04 110.04ZM37.9823 110.04H34.2023C33.5223 110.04 33.1823 109.7 33.1823 109.02V68.88C33.1823 68.2 33.5223 67.86 34.2023 67.86H37.9823C38.6623 67.86 39.0023 68.2 39.0023 68.88V82.62H39.2423C40.2023 80.5 42.2223 79.44 45.3023 79.44H47.9423C50.8623 79.44 53.1023 80.24 54.6623 81.84C56.2223 83.44 57.0023 85.74 57.0023 88.74V109.02C57.0023 109.7 56.6423 110.04 55.9223 110.04H52.1423C51.4623 110.04 51.1223 109.7 51.1223 109.02V88.98C51.1223 86.02 49.6623 84.54 46.7423 84.54H43.9223C40.6423 84.54 39.0023 86.24 39.0023 89.64V109.02C39.0023 109.7 38.6623 110.04 37.9823 110.04ZM75.2184 110.04H72.8784C69.9184 110.04 67.6184 109.22 65.9784 107.58C64.3784 105.94 63.5784 103.66 63.5784 100.74V88.74C63.5784 85.78 64.3784 83.5 65.9784 81.9C67.6184 80.26 69.9184 79.44 72.8784 79.44H86.3184C87.0384 79.44 87.3984 79.78 87.3984 80.46V109.02C87.3984 109.7 87.0384 110.04 86.3184 110.04H82.5384C81.8584 110.04 81.5184 109.7 81.5184 109.02V106.86H81.2784C80.3184 108.98 78.2984 110.04 75.2184 110.04ZM81.5184 99.84V85.14C81.5184 84.74 81.2984 84.54 80.8584 84.54H73.7184C70.8384 84.54 69.3984 86.02 69.3984 88.98V100.5C69.3984 103.46 70.8384 104.94 73.7184 104.94H76.5984C79.8784 104.94 81.5184 103.24 81.5184 99.84ZM99.6816 110.04H95.9016C95.2216 110.04 94.8816 109.7 94.8816 109.02V80.46C94.8816 79.78 95.2216 79.44 95.9016 79.44H99.6816C100.362 79.44 100.702 79.78 100.702 80.46V82.62H100.942C102.102 80.5 104.222 79.44 107.302 79.44H109.282C112.762 79.44 115.242 80.76 116.722 83.4C117.362 82.12 118.342 81.14 119.662 80.46C120.982 79.78 122.402 79.44 123.922 79.44H125.842C128.762 79.44 130.982 80.26 132.502 81.9C134.062 83.5 134.842 85.78 134.842 88.74V109.02C134.842 109.7 134.502 110.04 133.822 110.04H129.982C129.302 110.04 128.962 109.7 128.962 109.02V88.98C128.962 86.02 127.522 84.54 124.642 84.54H122.902C119.582 84.54 117.922 86.28 117.922 89.76V109.02C117.922 109.7 117.562 110.04 116.842 110.04H113.062C112.382 110.04 112.042 109.7 112.042 109.02V88.98C112.042 86.02 110.602 84.54 107.722 84.54H105.622C102.342 84.54 100.702 86.24 100.702 89.64V109.02C100.702 109.7 100.362 110.04 99.6816 110.04ZM146.908 118.5H143.128C142.448 118.5 142.108 118.16 142.108 117.48V80.46C142.108 79.78 142.448 79.44 143.128 79.44H146.908C147.588 79.44 147.928 79.78 147.928 80.46V82.62H148.168C149.128 80.5 151.148 79.44 154.228 79.44H157.288C160.168 79.44 162.368 80.24 163.888 81.84C165.448 83.44 166.228 85.74 166.228 88.74V100.74C166.228 103.7 165.448 106 163.888 107.64C162.368 109.24 160.168 110.04 157.288 110.04H154.228C151.148 110.04 149.128 108.98 148.168 106.86H147.928V117.48C147.928 118.16 147.588 118.5 146.908 118.5ZM152.848 104.94H156.028C158.908 104.94 160.348 103.46 160.348 100.5V88.98C160.348 86.02 158.908 84.54 156.028 84.54H152.848C149.568 84.54 147.928 86.24 147.928 89.64V99.84C147.928 103.24 149.568 104.94 152.848 104.94ZM173.463 74.34V68.88C173.463 68.24 173.783 67.92 174.423 67.92H178.323C178.963 67.92 179.283 68.24 179.283 68.88V74.34C179.283 75.02 178.963 75.36 178.323 75.36H174.423C173.783 75.36 173.463 75.02 173.463 74.34ZM173.463 109.02V80.46C173.463 79.78 173.783 79.44 174.423 79.44H178.263C178.943 79.44 179.283 79.78 179.283 80.46V109.02C179.283 109.42 179.203 109.7 179.043 109.86C178.923 109.98 178.683 110.04 178.323 110.04H174.483C173.803 110.04 173.463 109.7 173.463 109.02ZM201.147 110.04H195.867C192.907 110.04 190.607 109.22 188.967 107.58C187.367 105.94 186.567 103.66 186.567 100.74V88.74C186.567 85.78 187.367 83.5 188.967 81.9C190.607 80.26 192.907 79.44 195.867 79.44H201.147C204.067 79.44 206.347 80.26 207.987 81.9C209.667 83.5 210.507 85.78 210.507 88.74V100.74C210.507 103.66 209.667 105.94 207.987 107.58C206.347 109.22 204.067 110.04 201.147 110.04ZM196.707 104.94H200.367C203.247 104.94 204.687 103.48 204.687 100.56V88.92C204.687 86 203.247 84.54 200.367 84.54H196.707C195.187 84.54 194.087 84.9 193.407 85.62C192.727 86.3 192.387 87.4 192.387 88.92V100.56C192.387 102.08 192.727 103.2 193.407 103.92C194.087 104.6 195.187 104.94 196.707 104.94ZM222.201 110.04H218.421C217.741 110.04 217.401 109.7 217.401 109.02V80.46C217.401 79.78 217.741 79.44 218.421 79.44H222.201C222.881 79.44 223.221 79.78 223.221 80.46V82.62H223.461C224.421 80.5 226.441 79.44 229.521 79.44H232.161C235.081 79.44 237.321 80.24 238.881 81.84C240.441 83.44 241.221 85.74 241.221 88.74V109.02C241.221 109.7 240.861 110.04 240.141 110.04H236.361C235.681 110.04 235.341 109.7 235.341 109.02V88.98C235.341 86.02 233.881 84.54 230.961 84.54H228.141C224.861 84.54 223.221 86.24 223.221 89.64V109.02C223.221 109.7 222.881 110.04 222.201 110.04Z" fill="url(#paint0_linear_26_336)"/>
<defs>
<linearGradient id="paint0_linear_26_336" x1="465.48" y1="31.1233" x2="110.555" y2="87.5996" gradientUnits="userSpaceOnUse">
<stop stop-color="#6FEEFF"/>
<stop offset="0.494792" stop-color="#4BB3ED"/>
<stop offset="1" stop-color="#00FF94"/>
</linearGradient>
</defs>
</svg>
