<svg width="463" height="53" viewBox="0 0 463 53" fill="none" xmlns="http://www.w3.org/2000/svg">
<path d="M21.1159 3.83203H24.9535C25.6845 3.83203 26.05 4.1569 26.05 4.80666V33.5583C26.05 36.5228 25.1972 38.8375 23.4916 40.5025C21.8266 42.1675 19.5118 43 16.5473 43H9.78584C6.82133 43 4.50659 42.1675 2.84159 40.5025C1.1766 38.8375 0.3441 36.5228 0.3441 33.5583V4.86757C0.3441 4.17721 0.689282 3.83203 1.37965 3.83203H5.21725C5.90762 3.83203 6.2528 4.17721 6.2528 4.86757V33.3146C6.2528 36.3197 7.71475 37.8223 10.6386 37.8223H15.6336C18.5981 37.8223 20.0804 36.3197 20.0804 33.3146V4.86757C20.0804 4.17721 20.4256 3.83203 21.1159 3.83203ZM41.8658 51.5889H38.0282C37.3379 51.5889 36.9927 51.2438 36.9927 50.5534V12.9692C36.9927 12.2788 37.3379 11.9336 38.0282 11.9336H41.8658C42.5562 11.9336 42.9014 12.2788 42.9014 12.9692V15.1621H43.145C44.1197 13.0098 46.1705 11.9336 49.2974 11.9336H52.404C55.3279 11.9336 57.5615 12.7458 59.1046 14.3702C60.6884 15.9946 61.4803 18.3297 61.4803 21.3754V33.5583C61.4803 36.5634 60.6884 38.8984 59.1046 40.5634C57.5615 42.1878 55.3279 43 52.404 43H49.2974C46.1705 43 44.1197 41.9238 43.145 39.7715H42.9014V50.5534C42.9014 51.2438 42.5562 51.5889 41.8658 51.5889ZM47.8964 37.8223H51.1248C54.0487 37.8223 55.5107 36.3197 55.5107 33.3146V21.619C55.5107 18.6139 54.0487 17.1114 51.1248 17.1114H47.8964C44.5664 17.1114 42.9014 18.8373 42.9014 22.2891V32.6445C42.9014 36.0964 44.5664 37.8223 47.8964 37.8223ZM90.4499 38.8578V42.0254C90.4499 42.6751 90.0844 43 89.3534 43H80.399C77.3939 43 75.0588 42.1675 73.3938 40.5025C71.7694 38.8375 70.9572 36.5228 70.9572 33.5583V21.3754C70.9572 18.3703 71.7694 16.0555 73.3938 14.4311C75.0588 12.7661 77.3939 11.9336 80.399 11.9336H89.3534C90.0844 11.9336 90.4499 12.2788 90.4499 12.9692V16.1367C90.4499 16.7865 90.0844 17.1114 89.3534 17.1114H81.2518C78.3279 17.1114 76.8659 18.6139 76.8659 21.619V33.3146C76.8659 36.3197 78.3279 37.8223 81.2518 37.8223H89.3534C90.0844 37.8223 90.4499 38.1675 90.4499 38.8578ZM113.492 43H108.132C105.127 43 102.792 42.1675 101.127 40.5025C99.5021 38.8375 98.69 36.5228 98.69 33.5583V21.3754C98.69 18.3703 99.5021 16.0555 101.127 14.4311C102.792 12.7661 105.127 11.9336 108.132 11.9336H113.492C116.457 11.9336 118.771 12.7661 120.436 14.4311C122.142 16.0555 122.995 18.3703 122.995 21.3754V33.5583C122.995 36.5228 122.142 38.8375 120.436 40.5025C118.771 42.1675 116.457 43 113.492 43ZM108.984 37.8223H112.7C115.624 37.8223 117.086 36.34 117.086 33.3755V21.5581C117.086 18.5936 115.624 17.1114 112.7 17.1114H108.984C107.441 17.1114 106.325 17.4769 105.634 18.2078C104.944 18.8982 104.599 20.015 104.599 21.5581V33.3755C104.599 34.9187 104.944 36.0558 105.634 36.7867C106.325 37.4771 107.441 37.8223 108.984 37.8223ZM137.913 43H134.076C133.385 43 133.04 42.6548 133.04 41.9645V12.9692C133.04 12.2788 133.385 11.9336 134.076 11.9336H137.913C138.604 11.9336 138.949 12.2788 138.949 12.9692V15.1621H139.192C140.37 13.0098 142.522 11.9336 145.649 11.9336H147.659C151.192 11.9336 153.71 13.2738 155.213 15.954C155.863 14.6545 156.858 13.6596 158.198 12.9692C159.538 12.2788 160.979 11.9336 162.523 11.9336H164.472C167.436 11.9336 169.69 12.7661 171.233 14.4311C172.817 16.0555 173.609 18.3703 173.609 21.3754V41.9645C173.609 42.6548 173.264 43 172.573 43H168.675C167.985 43 167.639 42.6548 167.639 41.9645V21.619C167.639 18.6139 166.177 17.1114 163.254 17.1114H161.487C158.116 17.1114 156.431 18.8779 156.431 22.4109V41.9645C156.431 42.6548 156.066 43 155.335 43H151.497C150.807 43 150.462 42.6548 150.462 41.9645V21.619C150.462 18.6139 149 17.1114 146.076 17.1114H143.944C140.614 17.1114 138.949 18.8373 138.949 22.2891V41.9645C138.949 42.6548 138.604 43 137.913 43ZM184.337 6.75592V1.2127C184.337 0.562951 184.661 0.238075 185.311 0.238075H189.271C189.92 0.238075 190.245 0.562951 190.245 1.2127V6.75592C190.245 7.44628 189.92 7.79146 189.271 7.79146H185.311C184.661 7.79146 184.337 7.44628 184.337 6.75592ZM184.337 41.9645V12.9692C184.337 12.2788 184.661 11.9336 185.311 11.9336H189.21C189.9 11.9336 190.245 12.2788 190.245 12.9692V41.9645C190.245 42.3706 190.164 42.6548 190.002 42.8173C189.88 42.9391 189.636 43 189.271 43H185.372C184.682 43 184.337 42.6548 184.337 41.9645ZM206.168 43H202.331C201.64 43 201.295 42.6548 201.295 41.9645V12.9692C201.295 12.2788 201.64 11.9336 202.331 11.9336H206.168C206.859 11.9336 207.204 12.2788 207.204 12.9692V15.1621H207.447C208.422 13.0098 210.473 11.9336 213.6 11.9336H216.28C219.245 11.9336 221.519 12.7458 223.102 14.3702C224.686 15.9946 225.478 18.3297 225.478 21.3754V41.9645C225.478 42.6548 225.113 43 224.382 43H220.544C219.854 43 219.508 42.6548 219.508 41.9645V21.619C219.508 18.6139 218.026 17.1114 215.062 17.1114H212.199C208.869 17.1114 207.204 18.8373 207.204 22.2891V41.9645C207.204 42.6548 206.859 43 206.168 43ZM247.139 41.4771H244.398C241.474 41.4771 239.22 40.6649 237.637 39.0406C236.094 37.3756 235.322 35.0405 235.322 32.0354V21.3754C235.322 18.3703 236.154 16.0555 237.819 14.4311C239.484 12.7661 241.799 11.9336 244.764 11.9336H258.409C259.139 11.9336 259.505 12.2788 259.505 12.9692V43.1218C259.505 46.0863 258.652 48.3808 256.947 50.0052C255.282 51.6702 252.967 52.5026 250.002 52.5026H238.55C237.86 52.5026 237.515 52.1778 237.515 51.528V48.3605C237.515 47.6701 237.86 47.3249 238.55 47.3249H249.089C252.053 47.3249 253.535 45.8224 253.535 42.8173V38.1878H253.292C252.276 40.3807 250.226 41.4771 247.139 41.4771ZM253.535 31.1217V17.7205C253.535 17.3144 253.312 17.1114 252.865 17.1114H245.616C242.733 17.1114 241.292 18.6139 241.292 21.619V31.7308C241.292 34.7359 242.733 36.2385 245.616 36.2385H248.54C251.87 36.2385 253.535 34.5329 253.535 31.1217Z" fill="white"/>
<path d="M303.665 43H297.147C294.142 43 291.807 42.1675 290.142 40.5025C288.518 38.8375 287.705 36.5228 287.705 33.5583V13.2738C287.705 10.2686 288.518 7.9539 290.142 6.32951C291.807 4.66452 294.142 3.83203 297.147 3.83203H303.665C306.67 3.83203 308.985 4.66452 310.609 6.32951C312.274 7.9539 313.107 10.2686 313.107 13.2738V15.4667C313.107 16.1977 312.762 16.5631 312.071 16.5631H308.234C307.543 16.5631 307.198 16.1977 307.198 15.4667V13.5174C307.198 10.5123 305.736 9.00975 302.812 9.00975H298C295.076 9.00975 293.614 10.5123 293.614 13.5174V33.3146C293.614 36.3197 295.076 37.8223 298 37.8223H302.812C305.736 37.8223 307.198 36.3197 307.198 33.3146V27.8323C307.198 27.4262 306.975 27.2232 306.528 27.2232H301.594C300.904 27.2232 300.558 26.878 300.558 26.1876V23.081C300.558 22.3906 300.904 22.0454 301.594 22.0454H311.828C312.68 22.0454 313.107 22.4718 313.107 23.3246V33.5583C313.107 36.5228 312.274 38.8375 310.609 40.5025C308.944 42.1675 306.63 43 303.665 43ZM335.034 43H332.658C329.653 43 327.318 42.1675 325.653 40.5025C324.029 38.8375 323.217 36.5228 323.217 33.5583V21.3754C323.217 18.3703 324.029 16.0555 325.653 14.4311C327.318 12.7661 329.653 11.9336 332.658 11.9336H346.303C347.034 11.9336 347.4 12.2788 347.4 12.9692V41.9645C347.4 42.6548 347.034 43 346.303 43H342.466C341.775 43 341.43 42.6548 341.43 41.9645V39.7715H341.186C340.212 41.9238 338.161 43 335.034 43ZM341.43 32.6445V17.7205C341.43 17.3144 341.207 17.1114 340.76 17.1114H333.511C330.587 17.1114 329.125 18.6139 329.125 21.619V33.3146C329.125 36.3197 330.587 37.8223 333.511 37.8223H336.435C339.765 37.8223 341.43 36.0964 341.43 32.6445ZM362.916 43H359.078C358.388 43 358.043 42.6548 358.043 41.9645V12.9692C358.043 12.2788 358.388 11.9336 359.078 11.9336H362.916C363.606 11.9336 363.951 12.2788 363.951 12.9692V15.1621H364.195C365.373 13.0098 367.525 11.9336 370.652 11.9336H372.662C376.195 11.9336 378.713 13.2738 380.215 15.954C380.865 14.6545 381.86 13.6596 383.2 12.9692C384.54 12.2788 385.982 11.9336 387.525 11.9336H389.474C392.439 11.9336 394.693 12.7661 396.236 14.4311C397.82 16.0555 398.612 18.3703 398.612 21.3754V41.9645C398.612 42.6548 398.266 43 397.576 43H393.678C392.987 43 392.642 42.6548 392.642 41.9645V21.619C392.642 18.6139 391.18 17.1114 388.256 17.1114H386.49C383.119 17.1114 381.434 18.8779 381.434 22.4109V41.9645C381.434 42.6548 381.068 43 380.337 43H376.5C375.809 43 375.464 42.6548 375.464 41.9645V21.619C375.464 18.6139 374.002 17.1114 371.078 17.1114H368.946C365.616 17.1114 363.951 18.8373 363.951 22.2891V41.9645C363.951 42.6548 363.606 43 362.916 43ZM431.025 43H417.867C414.862 43 412.527 42.1675 410.862 40.5025C409.238 38.8375 408.426 36.5228 408.426 33.5583V21.3754C408.426 18.3703 409.238 16.0555 410.862 14.4311C412.527 12.7661 414.862 11.9336 417.867 11.9336H422.862C425.867 11.9336 428.202 12.7661 429.867 14.4311C431.532 16.0555 432.365 18.3703 432.365 21.3754V29.1115C432.365 29.8425 431.999 30.208 431.268 30.208H414.943C414.497 30.208 414.273 30.411 414.273 30.8171V33.4364C414.273 36.4009 415.756 37.8832 418.72 37.8832H431.025C431.756 37.8832 432.121 38.2487 432.121 38.9796V42.0254C432.121 42.6751 431.756 43 431.025 43ZM414.943 26.0658H425.847C426.253 26.0658 426.456 25.8627 426.456 25.4566V21.5581C426.456 20.015 426.111 18.8982 425.421 18.2078C424.73 17.4769 423.614 17.1114 422.07 17.1114H418.72C417.177 17.1114 416.06 17.4769 415.37 18.2078C414.679 18.8982 414.334 20.015 414.334 21.5581V25.4566C414.334 25.8627 414.537 26.0658 414.943 26.0658ZM453.208 43H441.999C441.309 43 440.964 42.6548 440.964 41.9645V38.9796C440.964 38.3299 441.309 38.005 441.999 38.005H452.233C454.873 38.005 456.192 37.0913 456.192 35.2639V34.5329C456.192 32.9085 455.238 31.6699 453.329 30.8171L446.69 27.6496C444.619 26.6749 443.116 25.5988 442.182 24.4211C441.248 23.2434 440.781 21.7003 440.781 19.7916C440.781 14.553 443.685 11.9336 449.492 11.9336H459.604C460.253 11.9336 460.578 12.2788 460.578 12.9692V15.954C460.578 16.6444 460.253 16.9895 459.604 16.9895H450.71C449.492 16.9895 448.558 17.2129 447.908 17.6596C447.258 18.0657 446.933 18.6139 446.933 19.3043V19.9743C446.933 21.2739 447.969 22.4109 450.04 23.3856L456.741 26.7968C458.852 27.7308 460.294 28.8475 461.066 30.1471C461.878 31.406 462.284 33.0506 462.284 35.0811C462.284 40.3604 459.258 43 453.208 43Z" fill="url(#paint0_linear_26_727)"/>
<defs>
<linearGradient id="paint0_linear_26_727" x1="464.979" y1="8.74997" x2="126.046" y2="101.504" gradientUnits="userSpaceOnUse">
<stop stop-color="#6FEEFF"/>
<stop offset="0.494792" stop-color="#4BB3ED"/>
<stop offset="1" stop-color="#00FF94"/>
</linearGradient>
</defs>
</svg>
