<svg width="425" height="329" viewBox="0 0 425 329" fill="none" xmlns="http://www.w3.org/2000/svg">
<path d="M5.75736 324.168L5.29344 323.705C2.43191 320.849 0.823914 316.971 0.823914 312.928V258.658V16.4332C0.823914 8.02267 7.64199 1.20459 16.0525 1.20459H106.801C110.16 1.20459 113.358 2.64968 115.578 5.17146C117.797 7.69323 120.995 9.13833 124.354 9.13833H189.242C192.718 9.13833 196.04 7.70292 198.422 5.17146C200.804 2.64 204.126 1.20459 207.602 1.20459H400.768C405.232 1.20459 409.47 3.16246 412.363 6.56066L420.546 16.1703C422.891 18.925 424.179 22.4248 424.179 26.0428V313.391C424.179 321.802 417.361 328.62 408.951 328.62H266.696H164.827H16.5164C12.4821 328.62 8.61253 327.019 5.75736 324.168Z" stroke="url(#paint0_linear_26_725)" stroke-width="0.76143"/>
<defs>
<linearGradient id="paint0_linear_26_725" x1="424.179" y1="96.7005" x2="96.4548" y2="115.987" gradientUnits="userSpaceOnUse">
<stop stop-color="#6FEEFF"/>
<stop offset="0.494792" stop-color="#4BB3ED"/>
<stop offset="1" stop-color="#00FF94"/>
</linearGradient>
</defs>
</svg>
