<svg width="313" height="268" viewBox="0 0 313 268" fill="none" xmlns="http://www.w3.org/2000/svg">
<path d="M6.20811 5.72714L5.7259 6.20938C2.69994 9.23566 1 13.34 1 17.6195V34.7923V251.126C1 260.038 8.22485 267.263 17.1372 267.263H64.6804C68.2373 267.263 71.622 265.732 73.9698 263.06C76.3177 260.388 79.7023 258.856 83.2593 258.856H151.883C155.563 258.856 159.079 260.377 161.599 263.06C164.118 265.742 167.634 267.263 171.314 267.263H286.855C291.59 267.263 296.085 265.184 299.151 261.577L307.799 251.402C310.279 248.484 311.64 244.78 311.64 240.951V17.1373C311.64 8.22498 304.415 1.00012 295.503 1.00012H249.953H174.475H17.6194C13.3392 1.00012 9.23446 2.7005 6.20811 5.72714Z" fill="#0F100D" stroke="url(#paint0_linear_28_700)" stroke-width="0.806858"/>
<defs>
<linearGradient id="paint0_linear_28_700" x1="311.64" y1="189.603" x2="71.0155" y2="176.826" gradientUnits="userSpaceOnUse">
<stop stop-color="#6FEEFF"/>
<stop offset="0.494792" stop-color="#4BB3ED"/>
<stop offset="1" stop-color="#00FF94"/>
</linearGradient>
</defs>
</svg>
