<svg width="424" height="329" viewBox="0 0 424 329" fill="none" xmlns="http://www.w3.org/2000/svg">
<path d="M5.91489 324.159L5.45984 323.704C2.60424 320.848 1 316.975 1 312.936V258.658V16.4332C1 8.02267 7.81809 1.20459 16.2286 1.20459H106.781C110.138 1.20459 113.332 2.64995 115.547 5.17146C117.763 7.69297 120.957 9.13833 124.314 9.13833H189.074C192.547 9.13833 195.865 7.70266 198.243 5.17146C200.62 2.64026 203.938 1.20459 207.411 1.20459H400.204C404.672 1.20459 408.915 3.16659 411.808 6.57095L419.969 16.1729C422.309 18.9262 423.594 22.4218 423.594 26.0352V313.391C423.594 321.802 416.776 328.62 408.365 328.62H266.394H164.708H16.6837C12.6445 328.62 8.77085 327.015 5.91489 324.159Z" stroke="url(#paint0_linear_26_724)" stroke-width="0.76143"/>
<defs>
<linearGradient id="paint0_linear_26_724" x1="423.594" y1="96.7005" x2="96.4548" y2="115.918" gradientUnits="userSpaceOnUse">
<stop stop-color="#6FEEFF"/>
<stop offset="0.494792" stop-color="#4BB3ED"/>
<stop offset="1" stop-color="#00FF94"/>
</linearGradient>
</defs>
</svg>
