<svg width="424" height="329" viewBox="0 0 424 329" fill="none" xmlns="http://www.w3.org/2000/svg">
<path d="M5.3212 324.159L4.86615 323.704C2.01055 320.848 0.406311 316.975 0.406311 312.936V258.658V16.4332C0.406311 8.02267 7.2244 1.20459 15.6349 1.20459H106.187C109.544 1.20459 112.738 2.64995 114.954 5.17146C117.169 7.69297 120.363 9.13833 123.72 9.13833H188.48C191.953 9.13833 195.271 7.70266 197.649 5.17146C200.026 2.64026 203.345 1.20459 206.817 1.20459H399.611C404.078 1.20459 408.321 3.16659 411.214 6.57095L419.375 16.1729C421.715 18.9262 423 22.4218 423 26.0352V313.391C423 321.802 416.182 328.62 407.772 328.62H265.8H164.114H16.09C12.0508 328.62 8.17716 327.015 5.3212 324.159Z" stroke="url(#paint0_linear_26_726)" stroke-width="0.76143"/>
<defs>
<linearGradient id="paint0_linear_26_726" x1="423" y1="96.7005" x2="95.8612" y2="115.918" gradientUnits="userSpaceOnUse">
<stop stop-color="#6FEEFF"/>
<stop offset="0.494792" stop-color="#4BB3ED"/>
<stop offset="1" stop-color="#00FF94"/>
</linearGradient>
</defs>
</svg>
