<svg width="71" height="62" viewBox="0 0 71 62" fill="none" xmlns="http://www.w3.org/2000/svg">
<path d="M33.7449 36.3571L45.0521 29.2348C46.1122 28.5722 46.6422 27.6612 46.6422 26.5018C46.6422 25.3423 46.1122 24.4313 45.0521 23.7688L33.7449 16.6464C32.5671 15.8735 31.3598 15.8182 30.1231 16.4808C28.8864 17.1433 28.268 18.1371 28.268 19.4622V33.5413C28.268 34.8664 28.8864 35.8602 30.1231 36.5227C31.3598 37.1853 32.5671 37.1301 33.7449 36.3571ZM6.00695 60.6228C4.88801 61.6718 3.60653 61.9059 2.1625 61.3251C0.720834 60.7465 0 59.7118 0 58.2211V6.62544C0 4.80344 0.692567 3.24315 2.0777 1.94457C3.46048 0.648189 5.12358 0 7.067 0H63.603C65.5465 0 67.2107 0.648189 68.5959 1.94457C69.9786 3.24315 70.67 4.80344 70.67 6.62544V46.3781C70.67 48.2001 69.9786 49.7604 68.5959 51.059C67.2107 52.3553 65.5465 53.0035 63.603 53.0035H14.134L6.00695 60.6228Z" fill="#D9D9D9"/>
</svg>
