<svg width="1307" height="453" viewBox="0 0 1307 453" fill="none" xmlns="http://www.w3.org/2000/svg">
<g filter="url(#filter0_d_26_453)">
<path d="M14.3875 441.215L8.46036 435.288C5.60444 432.432 4 428.558 4 424.52V334.887V16.2286C4 7.81808 10.8181 1 19.2286 1H173C177.38 1 181.548 2.88589 184.439 6.17598L186.383 8.38762C189.274 11.6777 193.442 13.5636 197.822 13.5636H303.887C308.091 13.5636 312.108 11.8257 314.987 8.76165L317.767 5.80195C320.645 2.73788 324.662 1 328.866 1H1270.07C1274.54 1 1278.78 2.96179 1281.67 6.36582L1299.37 27.1921C1301.72 29.9455 1303 33.4413 1303 37.0549V430.447C1303 438.857 1296.18 445.675 1287.77 445.675H1058.33C1053.89 445.675 1049.68 443.746 1046.79 440.39L1046.39 439.92C1043.49 436.564 1039.28 434.635 1034.85 434.635H906.606C902.069 434.635 897.766 436.659 894.873 440.155C891.98 443.651 887.678 445.675 883.141 445.675H25.1558C21.1169 445.675 17.2435 444.071 14.3875 441.215Z" fill="#0F100D"/>
<path d="M14.3875 441.215L8.46036 435.288C5.60444 432.432 4 428.558 4 424.52V334.887V16.2286C4 7.81808 10.8181 1 19.2286 1H173C177.38 1 181.548 2.88589 184.439 6.17598L186.383 8.38762C189.274 11.6777 193.442 13.5636 197.822 13.5636H303.887C308.091 13.5636 312.108 11.8257 314.987 8.76165L317.767 5.80195C320.645 2.73788 324.662 1 328.866 1H1270.07C1274.54 1 1278.78 2.96179 1281.67 6.36582L1299.37 27.1921C1301.72 29.9455 1303 33.4413 1303 37.0549V430.447C1303 438.857 1296.18 445.675 1287.77 445.675H1058.33C1053.89 445.675 1049.68 443.746 1046.79 440.39L1046.39 439.92C1043.49 436.564 1039.28 434.635 1034.85 434.635H906.606C902.069 434.635 897.766 436.659 894.873 440.155C891.98 443.651 887.678 445.675 883.141 445.675H25.1558C21.1169 445.675 17.2435 444.071 14.3875 441.215Z" stroke="url(#paint0_linear_26_453)" stroke-width="0.76143"/>
</g>
<defs>
<filter id="filter0_d_26_453" x="0.573542" y="0.619263" width="1305.85" height="451.528" filterUnits="userSpaceOnUse" color-interpolation-filters="sRGB">
<feFlood flood-opacity="0" result="BackgroundImageFix"/>
<feColorMatrix in="SourceAlpha" type="matrix" values="0 0 0 0 0 0 0 0 0 0 0 0 0 0 0 0 0 0 127 0" result="hardAlpha"/>
<feOffset dy="3.04572"/>
<feGaussianBlur stdDeviation="1.52286"/>
<feComposite in2="hardAlpha" operator="out"/>
<feColorMatrix type="matrix" values="0 0 0 0 0 0 0 0 0 0 0 0 0 0 0 0 0 0 0.25 0"/>
<feBlend mode="normal" in2="BackgroundImageFix" result="effect1_dropShadow_26_453"/>
<feBlend mode="normal" in="SourceGraphic" in2="effect1_dropShadow_26_453" result="shape"/>
</filter>
<linearGradient id="paint0_linear_26_453" x1="1303" y1="130.697" x2="311.474" y2="262.527" gradientUnits="userSpaceOnUse">
<stop stop-color="#6FEEFF"/>
<stop offset="0.494792" stop-color="#4BB3ED"/>
<stop offset="1" stop-color="#00FF94"/>
</linearGradient>
</defs>
</svg>
