<svg width="1308" height="361" viewBox="0 0 1308 361" fill="none" xmlns="http://www.w3.org/2000/svg">
<g filter="url(#filter0_d_28_726)">
<path d="M14.3955 349.35L6.69413 341.648C4.96911 339.923 4 337.584 4 335.144V16.2403C4 7.82333 10.8233 1 19.2403 1H173.13C177.513 1 181.684 2.88734 184.578 6.17996L186.523 8.39331C189.416 11.6859 193.588 13.5733 197.971 13.5733H304.118C308.325 13.5733 312.345 11.8341 315.226 8.76762L318.008 5.80565C320.889 2.73922 324.909 1 329.116 1H1271.04C1275.51 1 1279.76 2.9633 1282.66 6.36996L1300.37 27.2123C1302.71 29.9677 1304 33.4663 1304 37.0826V338.573C1304 346.99 1297.18 353.814 1288.76 353.814H1059.14C1054.7 353.814 1050.49 351.883 1047.59 348.524L1047.19 348.054C1044.29 344.695 1040.08 342.764 1035.64 342.764H907.301C902.76 342.764 898.454 344.79 895.559 348.289C892.664 351.787 888.358 353.814 883.817 353.814H25.1721C21.1301 353.814 17.2536 352.208 14.3955 349.35Z" fill="#1B1B1B"/>
<path d="M14.3955 349.35L6.69413 341.648C4.96911 339.923 4 337.584 4 335.144V16.2403C4 7.82333 10.8233 1 19.2403 1H173.13C177.513 1 181.684 2.88734 184.578 6.17996L186.523 8.39331C189.416 11.6859 193.588 13.5733 197.971 13.5733H304.118C308.325 13.5733 312.345 11.8341 315.226 8.76762L318.008 5.80565C320.889 2.73922 324.909 1 329.116 1H1271.04C1275.51 1 1279.76 2.9633 1282.66 6.36996L1300.37 27.2123C1302.71 29.9677 1304 33.4663 1304 37.0826V338.573C1304 346.99 1297.18 353.814 1288.76 353.814H1059.14C1054.7 353.814 1050.49 351.883 1047.59 348.524L1047.19 348.054C1044.29 344.695 1040.08 342.764 1035.64 342.764H907.301C902.76 342.764 898.454 344.79 895.559 348.289C892.664 351.787 888.358 353.814 883.817 353.814H25.1721C21.1301 353.814 17.2536 352.208 14.3955 349.35Z" stroke="url(#paint0_linear_28_726)" stroke-width="0.762016"/>
</g>
<defs>
<filter id="filter0_d_28_726" x="0.571075" y="0.619019" width="1306.86" height="359.672" filterUnits="userSpaceOnUse" color-interpolation-filters="sRGB">
<feFlood flood-opacity="0" result="BackgroundImageFix"/>
<feColorMatrix in="SourceAlpha" type="matrix" values="0 0 0 0 0 0 0 0 0 0 0 0 0 0 0 0 0 0 127 0" result="hardAlpha"/>
<feOffset dy="3.04807"/>
<feGaussianBlur stdDeviation="1.52403"/>
<feComposite in2="hardAlpha" operator="out"/>
<feColorMatrix type="matrix" values="0 0 0 0 0 0 0 0 0 0 0 0 0 0 0 0 0 0 0.25 0"/>
<feBlend mode="normal" in2="BackgroundImageFix" result="effect1_dropShadow_28_726"/>
<feBlend mode="normal" in="SourceGraphic" in2="effect1_dropShadow_28_726" result="shape"/>
</filter>
<linearGradient id="paint0_linear_28_726" x1="1304" y1="103.904" x2="321.793" y2="268.623" gradientUnits="userSpaceOnUse">
<stop stop-color="#6FEEFF"/>
<stop offset="0.494792" stop-color="#4BB3ED"/>
<stop offset="1" stop-color="#00FF94"/>
</linearGradient>
</defs>
</svg>
