<svg width="1308" height="428" viewBox="0 0 1308 428" fill="none" xmlns="http://www.w3.org/2000/svg">
<g filter="url(#filter0_d_28_568)">
<path d="M14.7008 417.218L8.51088 411.374C5.63173 408.656 4 404.871 4 400.911V316.468V15.3885C4 7.44195 10.4419 1 18.3885 1H173.762C177.757 1 181.572 2.66093 184.294 5.58515L186.807 8.28536C189.529 11.2096 193.344 12.8705 197.339 12.8705H304.731C308.559 12.8705 312.23 11.3447 314.93 8.63072L318.304 5.23978C321.005 2.52583 324.675 1 328.504 1H1271.68C1275.76 1 1279.65 2.73049 1282.38 5.76119L1300.3 25.6725C1302.68 28.3148 1304 31.7444 1304 35.2998V406.755C1304 414.702 1297.56 421.144 1289.61 421.144H1058.5C1054.46 421.144 1050.6 419.443 1047.87 416.457L1046.91 415.399C1044.18 412.413 1040.33 410.712 1036.28 410.712H906.653C902.508 410.712 898.565 412.499 895.833 415.616L895.286 416.24C892.554 419.357 888.61 421.144 884.466 421.144H24.5784C20.9054 421.144 17.3715 419.739 14.7008 417.218Z" fill="#1B1B1B"/>
<path d="M14.7008 417.218L8.51088 411.374C5.63173 408.656 4 404.871 4 400.911V316.468V15.3885C4 7.44195 10.4419 1 18.3885 1H173.762C177.757 1 181.572 2.66093 184.294 5.58515L186.807 8.28536C189.529 11.2096 193.344 12.8705 197.339 12.8705H304.731C308.559 12.8705 312.23 11.3447 314.93 8.63072L318.304 5.23978C321.005 2.52583 324.675 1 328.504 1H1271.68C1275.76 1 1279.65 2.73049 1282.38 5.76119L1300.3 25.6725C1302.68 28.3148 1304 31.7444 1304 35.2998V406.755C1304 414.702 1297.56 421.144 1289.61 421.144H1058.5C1054.46 421.144 1050.6 419.443 1047.87 416.457L1046.91 415.399C1044.18 412.413 1040.33 410.712 1036.28 410.712H906.653C902.508 410.712 898.565 412.499 895.833 415.616L895.286 416.24C892.554 419.357 888.61 421.144 884.466 421.144H24.5784C20.9054 421.144 17.3715 419.739 14.7008 417.218Z" stroke="url(#paint0_linear_28_568)" stroke-width="0.719424"/>
</g>
<defs>
<filter id="filter0_d_28_568" x="0.762927" y="0.640137" width="1306.47" height="426.619" filterUnits="userSpaceOnUse" color-interpolation-filters="sRGB">
<feFlood flood-opacity="0" result="BackgroundImageFix"/>
<feColorMatrix in="SourceAlpha" type="matrix" values="0 0 0 0 0 0 0 0 0 0 0 0 0 0 0 0 0 0 127 0" result="hardAlpha"/>
<feOffset dy="2.8777"/>
<feGaussianBlur stdDeviation="1.43885"/>
<feComposite in2="hardAlpha" operator="out"/>
<feColorMatrix type="matrix" values="0 0 0 0 0 0 0 0 0 0 0 0 0 0 0 0 0 0 0.25 0"/>
<feBlend mode="normal" in2="BackgroundImageFix" result="effect1_dropShadow_28_568"/>
<feBlend mode="normal" in="SourceGraphic" in2="effect1_dropShadow_28_568" result="shape"/>
</filter>
<linearGradient id="paint0_linear_28_568" x1="1304" y1="123.542" x2="313.807" y2="262.989" gradientUnits="userSpaceOnUse">
<stop stop-color="#6FEEFF"/>
<stop offset="0.494792" stop-color="#4BB3ED"/>
<stop offset="1" stop-color="#00FF94"/>
</linearGradient>
</defs>
</svg>
