<svg width="125" height="38" viewBox="0 0 125 38" fill="none" xmlns="http://www.w3.org/2000/svg">
<g clip-path="url(#clip0_27_143)">
<path d="M41.3931 10.5024C40.9816 8.965 39.7734 7.75683 38.236 7.34529C35.4493 6.59863 24.2818 6.59863 24.2818 6.59863C24.2818 6.59863 13.1143 6.59863 10.3305 7.34529C8.79307 7.75683 7.58489 8.965 7.17335 10.5024C6.4267 13.2862 6.4267 19.0978 6.4267 19.0978C6.4267 19.0978 6.4267 24.9093 7.17335 27.6931C7.58489 29.2305 8.79307 30.4387 10.3305 30.8502C13.1143 31.5969 24.2818 31.5969 24.2818 31.5969C24.2818 31.5969 35.4493 31.5969 38.233 30.8502C39.7705 30.4387 40.9786 29.2305 41.3902 27.6931C42.1368 24.9093 42.1368 19.0978 42.1368 19.0978C42.1368 19.0978 42.1368 13.2862 41.3902 10.5024H41.3931ZM20.7102 24.4537V13.7418L29.9875 19.0978L20.7102 24.4537Z" fill="#7B7B7B"/>
<path d="M58.2634 29.3393C57.5579 28.8631 57.0552 28.1223 56.7554 27.117C56.4585 26.1117 56.3085 24.7771 56.3085 23.1074V20.8351C56.3085 19.1507 56.479 17.7956 56.82 16.7755C57.161 15.7555 57.6931 15.0088 58.4162 14.5414C59.1394 14.074 60.0888 13.8389 61.2647 13.8389C62.4405 13.8389 63.3488 14.077 64.0485 14.5532C64.7452 15.0294 65.2566 15.7761 65.58 16.7873C65.9033 17.8014 66.065 19.1507 66.065 20.8351V23.1074C66.065 24.7771 65.9063 26.1175 65.5918 27.1287C65.2772 28.1429 64.7657 28.8837 64.0602 29.3511C63.3547 29.8185 62.3964 30.0536 61.1882 30.0536C59.9801 30.0536 58.9718 29.8155 58.2634 29.3393ZM62.223 26.8877C62.417 26.3762 62.5169 25.5443 62.5169 24.3861V19.5093C62.5169 18.3864 62.4199 17.5633 62.223 17.046C62.026 16.5257 61.6821 16.267 61.1882 16.267C60.6944 16.267 60.374 16.5257 60.18 17.046C59.983 17.5663 59.886 18.3864 59.886 19.5093V24.3861C59.886 25.5443 59.9801 26.3792 60.1682 26.8877C60.3563 27.3992 60.6944 27.6549 61.1882 27.6549C61.6821 27.6549 62.026 27.3992 62.223 26.8877Z" fill="#7B7B7B"/>
<path d="M112.505 23.1456V23.9363C112.505 24.9417 112.534 25.6942 112.593 26.1969C112.652 26.6995 112.775 27.0641 112.963 27.2963C113.151 27.5256 113.439 27.6402 113.83 27.6402C114.357 27.6402 114.721 27.4344 114.915 27.0258C115.112 26.6172 115.218 25.9353 115.236 24.9828L118.275 25.1621C118.293 25.2974 118.302 25.4855 118.302 25.7236C118.302 27.1699 117.905 28.2517 117.114 28.966C116.323 29.6803 115.203 30.0389 113.757 30.0389C112.02 30.0389 110.803 29.4951 110.106 28.4045C109.406 27.3139 109.059 25.6295 109.059 23.3484V20.6146C109.059 18.2659 109.421 16.5491 110.144 15.4674C110.867 14.3856 112.105 13.8447 113.86 13.8447C115.068 13.8447 115.997 14.0652 116.644 14.5091C117.29 14.953 117.746 15.6408 118.01 16.5785C118.275 17.5163 118.407 18.8097 118.407 20.4617V23.1426H112.508L112.505 23.1456ZM112.951 16.558C112.772 16.7784 112.655 17.14 112.593 17.6427C112.534 18.1453 112.505 18.9067 112.505 19.9297V21.0526H115.083V19.9297C115.083 18.9243 115.047 18.163 114.98 17.6427C114.912 17.1224 114.789 16.7579 114.609 16.5433C114.43 16.3316 114.154 16.2229 113.78 16.2229C113.407 16.2229 113.128 16.3346 112.951 16.555V16.558Z" fill="#7B7B7B"/>
<path d="M49.6798 22.8544L45.6702 8.37402H49.1683L50.5734 14.9381C50.932 16.5549 51.1937 17.9336 51.3641 19.0741H51.467C51.5846 18.2569 51.8492 16.8871 52.2578 14.9616L53.7129 8.37402H57.211L53.1514 22.8544V29.8007H49.6768V22.8544H49.6798Z" fill="#7B7B7B"/>
<path d="M77.4442 14.1445V29.8008H74.6869L74.3812 27.8842H74.3047C73.5551 29.3304 72.4322 30.0536 70.933 30.0536C69.8954 30.0536 69.1281 29.7126 68.6343 29.0335C68.1404 28.3516 67.8935 27.2874 67.8935 25.8412V14.1445H71.4181V25.6354C71.4181 26.335 71.4945 26.8318 71.6473 27.1287C71.8002 27.4256 72.0559 27.5755 72.4146 27.5755C72.7203 27.5755 73.0143 27.4814 73.2965 27.2933C73.5787 27.1052 73.7844 26.8671 73.9226 26.579V14.1445H77.4472H77.4442Z" fill="#7B7B7B"/>
<path d="M95.5198 14.1445V29.8008H92.7625L92.4567 27.8842H92.3803C91.6307 29.3304 90.5078 30.0536 89.0086 30.0536C87.9709 30.0536 87.2037 29.7126 86.7098 29.0335C86.216 28.3516 85.9691 27.2874 85.9691 25.8412V14.1445H89.4936V25.6354C89.4936 26.335 89.57 26.8318 89.7229 27.1287C89.8758 27.4256 90.1315 27.5755 90.4901 27.5755C90.7959 27.5755 91.0898 27.4814 91.372 27.2933C91.6542 27.1052 91.86 26.8671 91.9982 26.579V14.1445H95.5227H95.5198Z" fill="#7B7B7B"/>
<path d="M87.0185 11.2078H83.5203V29.8007H80.0722V11.2078H76.5741V8.37402H87.0185V11.2078Z" fill="#7B7B7B"/>
<path d="M107.184 16.646C106.969 15.6583 106.626 14.944 106.149 14.5001C105.673 14.0562 105.018 13.8358 104.183 13.8358C103.536 13.8358 102.93 14.018 102.369 14.3855C101.808 14.7529 101.372 15.2321 101.067 15.8288H101.04V7.58032H97.6451V29.7977H100.555L100.914 28.3162H100.99C101.264 28.8453 101.672 29.2598 102.216 29.5684C102.76 29.8742 103.366 30.027 104.03 30.027C105.22 30.027 106.099 29.4773 106.661 28.3809C107.222 27.2814 107.504 25.5677 107.504 23.2336V20.7556C107.504 19.0036 107.399 17.6308 107.184 16.6431V16.646ZM103.953 23.0308C103.953 24.1714 103.906 25.065 103.812 25.7117C103.718 26.3584 103.562 26.8199 103.339 27.0904C103.119 27.3638 102.819 27.499 102.445 27.499C102.154 27.499 101.887 27.4314 101.64 27.2932C101.393 27.158 101.193 26.9522 101.04 26.6818V17.7954C101.158 17.3692 101.364 17.0223 101.655 16.7489C101.943 16.4755 102.26 16.3403 102.598 16.3403C102.957 16.3403 103.233 16.4814 103.427 16.7607C103.624 17.0429 103.759 17.5132 103.836 18.1775C103.912 18.8419 103.951 19.7855 103.951 21.0113V23.0279L103.953 23.0308Z" fill="#7B7B7B"/>
</g>
<defs>
<clipPath id="clip0_27_143">
<rect width="111.975" height="24.9983" fill="white" transform="translate(6.4267 6.59863)"/>
</clipPath>
</defs>
</svg>
